Mogra-Regular.ufo
<glyph name="numbersign" format="1">
  <advance width="767"/>
  <unicode hex="0023"/>
  <outline>
    <contour>
      <point x="681" y="580" type="line"/>
      <point x="684" y="594"/>
      <point x="686" y="605"/>
      <point x="686" y="614" type="curve" smooth="yes"/>
      <point x="686" y="644"/>
      <point x="612" y="703"/>
      <point x="570" y="703" type="curve" smooth="yes"/>
      <point x="543" y="703"/>
      <point x="529" y="651"/>
      <point x="510" y="567" type="curve"/>
      <point x="404" y="557" type="line"/>
      <point x="411" y="582"/>
      <point x="415" y="600"/>
      <point x="415" y="614" type="curve" smooth="yes"/>
      <point x="415" y="644"/>
      <point x="341" y="703"/>
      <point x="299" y="703" type="curve" smooth="yes"/>
      <point x="270" y="703"/>
      <point x="256" y="642"/>
      <point x="234" y="545" type="curve"/>
      <point x="83" y="540" type="line"/>
      <point x="35" y="495"/>
      <point x="49" y="424"/>
      <point x="96" y="401" type="curve"/>
      <point x="207" y="410" type="line"/>
      <point x="161" y="256" type="line"/>
      <point x="33" y="253" type="line"/>
      <point x="-15" y="208"/>
      <point x="-1" y="137"/>
      <point x="46" y="114" type="curve"/>
      <point x="114" y="119" type="line"/>
      <point x="109" y="100"/>
      <point x="105" y="83"/>
      <point x="105" y="74" type="curve" smooth="yes"/>
      <point x="107" y="41"/>
      <point x="180" y="-2"/>
      <point x="225" y="-2" type="curve" smooth="yes"/>
      <point x="245" y="-2"/>
      <point x="261" y="49"/>
      <point x="281" y="127" type="curve"/>
      <point x="388" y="136" type="line"/>
      <point x="379" y="107"/>
      <point x="373" y="86"/>
      <point x="373" y="74" type="curve"/>
      <point x="375" y="41"/>
      <point x="452" y="-2"/>
      <point x="497" y="-2" type="curve" smooth="yes"/>
      <point x="518" y="-2"/>
      <point x="535" y="58"/>
      <point x="558" y="149" type="curve"/>
      <point x="702" y="155" type="line"/>
      <point x="740" y="191"/>
      <point x="744" y="266"/>
      <point x="693" y="295" type="curve"/>
      <point x="590" y="284" type="line"/>
      <point x="634" y="440" type="line"/>
      <point x="753" y="445" type="line"/>
      <point x="791" y="481"/>
      <point x="795" y="556"/>
      <point x="744" y="585" type="curve"/>
    </contour>
    <contour>
      <point x="437" y="266" type="line"/>
      <point x="310" y="255" type="line"/>
      <point x="359" y="428" type="line"/>
      <point x="487" y="438" type="line"/>
    </contour>
  </outline>
</glyph>
<glyph name="parenleft" format="1">
  <advance width="411"/>
  <unicode hex="0028"/>
  <outline>
    <contour>
      <point x="44" y="248" type="curve" smooth="yes"/>
      <point x="36" y="94"/>
      <point x="138" y="-127"/>
      <point x="256" y="-127" type="curve" smooth="yes"/>
      <point x="316" y="-127"/>
      <point x="352" y="-74"/>
      <point x="343" y="-18" type="curve"/>
      <point x="244" y="42"/>
      <point x="194" y="97"/>
      <point x="166" y="220" type="curve"/>
      <point x="203" y="387"/>
      <point x="292" y="559"/>
      <point x="452" y="692" type="curve"/>
      <point x="456" y="759"/>
      <point x="408" y="811"/>
      <point x="328" y="807" type="curve"/>
      <point x="180" y="671"/>
      <point x="54" y="408"/>
    </contour>
  </outline>
</glyph>
<glyph name="parenright" format="1">
  <advance width="376"/>
  <unicode hex="0029"/>
  <outline>
    <contour>
      <point x="345" y="444" type="curve" smooth="yes"/>
      <point x="345" y="598"/>
      <point x="231" y="807"/>
      <point x="113" y="807" type="curve" smooth="yes"/>
      <point x="53" y="807"/>
      <point x="23" y="750"/>
      <point x="35" y="695" type="curve"/>
      <point x="137" y="640"/>
      <point x="187" y="586"/>
      <point x="222" y="465" type="curve"/>
      <point x="195" y="297"/>
      <point x="116" y="119"/>
      <point x="-37" y="-23" type="curve"/>
      <point x="-37" y="-89"/>
      <point x="14" y="-139"/>
      <point x="94" y="-130" type="curve"/>
      <point x="234" y="14"/>
      <point x="345" y="283"/>
    </contour>
  </outline>
</glyph>
<glyph name="asterisk" format="1">
  <advance width="438"/>
  <unicode hex="002A"/>
  <outline>
    <contour>
      <point x="304" y="639" type="line"/>
      <point x="421" y="697" type="line"/>
      <point x="439" y="734"/>
      <point x="405" y="778"/>
      <point x="363" y="762" type="curve"/>
      <point x="290" y="657" type="line"/>
      <point x="333" y="772" type="line"/>
      <point x="317" y="810"/>
      <point x="262" y="815"/>
      <point x="243" y="780" type="curve"/>
      <point x="264" y="659" type="line"/>
      <point x="204" y="770" type="line"/>
      <point x="165" y="784"/>
      <point x="125" y="746"/>
      <point x="138" y="708" type="curve"/>
      <point x="244" y="642" type="line"/>
      <point x="123" y="671" type="line"/>
      <point x="87" y="652"/>
      <point x="87" y="597"/>
      <point x="124" y="581" type="curve"/>
      <point x="241" y="617" type="line"/>
      <point x="125" y="545" type="line"/>
      <point x="116" y="511"/>
      <point x="147" y="477"/>
      <point x="190" y="487" type="curve"/>
      <point x="259" y="601" type="line"/>
      <point x="225" y="482" type="line"/>
      <point x="241" y="444"/>
      <point x="296" y="439"/>
      <point x="315" y="474" type="curve"/>
      <point x="284" y="601" type="line"/>
      <point x="348" y="491" type="line"/>
      <point x="386" y="478"/>
      <point x="424" y="512"/>
      <point x="413" y="553" type="curve"/>
      <point x="302" y="617" type="line"/>
      <point x="426" y="580" type="line"/>
      <point x="462" y="599"/>
      <point x="462" y="654"/>
      <point x="425" y="670" type="curve"/>
    </contour>
  </outline>
</glyph>
<glyph name="plus" format="1">
  <advance width="449"/>
  <unicode hex="002B"/>
  <outline>
    <contour>
      <point x="295" y="398" type="curve"/>
      <point x="304" y="431"/>
      <point x="312" y="475"/>
      <point x="317" y="508" type="curve"/>
      <point x="297" y="556"/>
      <point x="228" y="574"/>
      <point x="179" y="528" type="curve"/>
      <point x="177" y="484"/>
      <point x="175" y="432"/>
      <point x="173" y="394" type="curve"/>
      <point x="138" y="395"/>
      <point x="89" y="397"/>
      <point x="50" y="400" type="curve"/>
      <point x="0" y="356"/>
      <point x="11" y="285"/>
      <point x="56" y="261" type="curve"/>
      <point x="92" y="266"/>
      <point x="128" y="269"/>
      <point x="158" y="273" type="curve"/>
      <point x="153" y="244"/>
      <point x="145" y="203"/>
      <point x="137" y="171" type="curve"/>
      <point x="163" y="119"/>
      <point x="238" y="119"/>
      <point x="277" y="155" type="curve"/>
      <point x="277" y="191"/>
      <point x="278" y="235"/>
      <point x="281" y="276" type="curve"/>
      <point x="325" y="275"/>
      <point x="370" y="274"/>
      <point x="414" y="270" type="curve"/>
      <point x="452" y="305"/>
      <point x="460" y="380"/>
      <point x="410" y="410" type="curve"/>
      <point x="376" y="404"/>
      <point x="335" y="400"/>
    </contour>
  </outline>
</glyph>
<glyph name="period" format="1">
  <advance width="315"/>
  <unicode hex="002E"/>
  <outline>
    <contour>
      <point x="230" y="89" type="curve" smooth="yes"/>
      <point x="230" y="122"/>
      <point x="195" y="190"/>
      <point x="158" y="190" type="curve" smooth="yes"/>
      <point x="106" y="190"/>
      <point x="19" y="144"/>
      <point x="19" y="109" type="curve" smooth="yes"/>
      <point x="19" y="69"/>
      <point x="63" y="0"/>
      <point x="98" y="0" type="curve" smooth="yes"/>
      <point x="141" y="0"/>
      <point x="230" y="50"/>
    </contour>
  </outline>
</glyph>
<glyph name="two" format="1">
  <advance width="543"/>
  <unicode hex="0032"/>
  <outline>
    <contour>
      <point x="495" y="49" type="curve"/>
      <point x="524" y="105"/>
      <point x="509" y="181"/>
      <point x="450" y="181" type="curve" smooth="yes"/>
      <point x="410" y="181"/>
      <point x="262" y="139"/>
      <point x="170" y="121" type="curve"/>
      <point x="162" y="134" type="line"/>
      <point x="333" y="236"/>
      <point x="517" y="386"/>
      <point x="517" y="525" type="curve" smooth="yes"/>
      <point x="517" y="579"/>
      <point x="433" y="668"/>
      <point x="357" y="668" type="curve" smooth="yes"/>
      <point x="229" y="668"/>
      <point x="99" y="609"/>
      <point x="96" y="536" type="curve" smooth="yes"/>
      <point x="94" y="496"/>
      <point x="124" y="455"/>
      <point x="180" y="444" type="curve"/>
      <point x="241" y="491"/>
      <point x="306" y="527"/>
      <point x="384" y="534" type="curve"/>
      <point x="333" y="352"/>
      <point x="17" y="230"/>
      <point x="16" y="152" type="curve" smooth="yes"/>
      <point x="15" y="98"/>
      <point x="87" y="0"/>
      <point x="146" y="0" type="curve" smooth="yes"/>
      <point x="231" y="0"/>
      <point x="389" y="30"/>
    </contour>
  </outline>
</glyph>
<glyph name="three" format="1">
  <advance width="560"/>
  <unicode hex="0033"/>
  <outline>
    <contour>
      <point x="536" y="225" type="curve" smooth="yes"/>
      <point x="536" y="265"/>
      <point x="448" y="327"/>
      <point x="329" y="322" type="curve"/>
      <point x="325" y="333" type="line"/>
      <point x="460" y="376"/>
      <point x="540" y="447"/>
      <point x="540" y="525" type="curve" smooth="yes"/>
      <point x="540" y="579"/>
      <point x="456" y="668"/>
      <point x="380" y="668" type="curve" smooth="yes"/>
      <point x="252" y="668"/>
      <point x="122" y="609"/>
      <point x="119" y="536" type="curve" smooth="yes"/>
      <point x="117" y="496"/>
      <point x="147" y="455"/>
      <point x="203" y="444" type="curve"/>
      <point x="264" y="491"/>
      <point x="329" y="527"/>
      <point x="409" y="534" type="curve"/>
      <point x="352" y="389"/>
      <point x="149" y="386"/>
      <point x="149" y="331" type="curve" smooth="yes"/>
      <point x="149" y="291"/>
      <point x="177" y="247"/>
      <point x="206" y="233" type="curve" smooth="yes"/>
      <point x="229" y="222"/>
      <point x="297" y="256"/>
      <point x="378" y="231" type="curve"/>
      <point x="344" y="155"/>
      <point x="289" y="120"/>
      <point x="202" y="97" type="curve"/>
      <point x="192" y="117"/>
      <point x="179" y="149"/>
      <point x="171" y="187" type="curve"/>
      <point x="70" y="199"/>
      <point x="10" y="162"/>
      <point x="10" y="113" type="curve" smooth="yes"/>
      <point x="10" y="61"/>
      <point x="116" y="0"/>
      <point x="208" y="0" type="curve" smooth="yes"/>
      <point x="356" y="0"/>
      <point x="536" y="110"/>
    </contour>
  </outline>
</glyph>
<glyph name="four" format="1">
  <advance width="548"/>
  <unicode hex="0034"/>
  <outline>
    <contour>
      <point x="509" y="342" type="curve" smooth="yes"/>
      <point x="509" y="375"/>
      <point x="425" y="420"/>
      <point x="388" y="420" type="curve" smooth="yes"/>
      <point x="368" y="420"/>
      <point x="366" y="339"/>
      <point x="355" y="296" type="curve"/>
      <point x="288" y="287"/>
      <point x="239" y="284"/>
      <point x="169" y="284" type="curve"/>
      <point x="246" y="395"/>
      <point x="316" y="478"/>
      <point x="431" y="557" type="curve"/>
      <point x="436" y="619"/>
      <point x="405" y="668"/>
      <point x="338" y="668" type="curve" smooth="yes"/>
      <point x="254" y="668"/>
      <point x="42" y="363"/>
      <point x="42" y="303" type="curve" smooth="yes"/>
      <point x="42" y="256"/>
      <point x="96" y="180"/>
      <point x="136" y="165" type="curve" smooth="yes"/>
      <point x="176" y="150"/>
      <point x="284" y="166"/>
      <point x="332" y="176" type="curve"/>
      <point x="324" y="139"/>
      <point x="311" y="102"/>
      <point x="311" y="82" type="curve" smooth="yes"/>
      <point x="311" y="55"/>
      <point x="390" y="0"/>
      <point x="429" y="0" type="curve" smooth="yes"/>
      <point x="466" y="0"/>
      <point x="509" y="287"/>
    </contour>
  </outline>
</glyph>
<glyph name="five" format="1">
  <advance width="540"/>
  <unicode hex="0035"/>
  <outline>
    <contour>
      <point x="264" y="511" type="curve"/>
      <point x="332" y="517"/>
      <point x="439" y="521"/>
      <point x="508" y="522" type="curve"/>
      <point x="546" y="558"/>
      <point x="550" y="639"/>
      <point x="499" y="668" type="curve"/>
      <point x="403" y="654"/>
      <point x="296" y="648"/>
      <point x="184" y="648" type="curve" smooth="yes"/>
      <point x="138" y="648"/>
      <point x="97" y="477"/>
      <point x="97" y="442" type="curve" smooth="yes"/>
      <point x="97" y="414"/>
      <point x="106" y="379"/>
      <point x="127" y="362" type="curve" smooth="yes"/>
      <point x="194" y="306"/>
      <point x="307" y="268"/>
      <point x="351" y="241" type="curve"/>
      <point x="334" y="185"/>
      <point x="268" y="140"/>
      <point x="204" y="115" type="curve"/>
      <point x="188" y="143"/>
      <point x="178" y="177"/>
      <point x="171" y="217" type="curve"/>
      <point x="75" y="246"/>
      <point x="14" y="191"/>
      <point x="14" y="131" type="curve" smooth="yes"/>
      <point x="14" y="76"/>
      <point x="121" y="0"/>
      <point x="213" y="0" type="curve" smooth="yes"/>
      <point x="339" y="0"/>
      <point x="518" y="132"/>
      <point x="518" y="231" type="curve" smooth="yes"/>
      <point x="518" y="331"/>
      <point x="242" y="380"/>
      <point x="242" y="431" type="curve" smooth="yes"/>
      <point x="242" y="451"/>
      <point x="249" y="479"/>
    </contour>
  </outline>
</glyph>
<glyph name="six" format="1">
  <advance width="544"/>
  <unicode hex="0036"/>
  <outline>
    <contour>
      <point x="189" y="343" type="line"/>
      <point x="262" y="433"/>
      <point x="328" y="493"/>
      <point x="418" y="546" type="curve"/>
      <point x="433" y="622"/>
      <point x="399" y="668"/>
      <point x="317" y="668" type="curve"/>
      <point x="153" y="575"/>
      <point x="43" y="378"/>
      <point x="37" y="229" type="curve" smooth="yes"/>
      <point x="32" y="122"/>
      <point x="118" y="0"/>
      <point x="260" y="0" type="curve" smooth="yes"/>
      <point x="391" y="0"/>
      <point x="517" y="115"/>
      <point x="517" y="205" type="curve" smooth="yes"/>
      <point x="517" y="285"/>
      <point x="435" y="388"/>
      <point x="357" y="388" type="curve" smooth="yes"/>
      <point x="303" y="388"/>
      <point x="257" y="371"/>
      <point x="200" y="333" type="curve"/>
    </contour>
    <contour>
      <point x="244" y="136" type="curve" smooth="yes"/>
      <point x="217" y="136"/>
      <point x="191" y="143"/>
      <point x="171" y="158" type="curve"/>
      <point x="190" y="218"/>
      <point x="257" y="260"/>
      <point x="325" y="260" type="curve" smooth="yes"/>
      <point x="347" y="260"/>
      <point x="369" y="256"/>
      <point x="390" y="246" type="curve"/>
      <point x="383" y="178"/>
      <point x="310" y="136"/>
    </contour>
  </outline>
</glyph>
<glyph name="seven" format="1">
  <advance width="491"/>
  <unicode hex="0037"/>
  <outline>
    <contour>
      <point x="113" y="108" type="curve" smooth="yes"/>
      <point x="113" y="75"/>
      <point x="187" y="0"/>
      <point x="226" y="0" type="curve" smooth="yes"/>
      <point x="267" y="0"/>
      <point x="300" y="136"/>
      <point x="369" y="275" type="curve" smooth="yes"/>
      <point x="416" y="370"/>
      <point x="502" y="499"/>
      <point x="502" y="542" type="curve" smooth="yes"/>
      <point x="502" y="580"/>
      <point x="457" y="659"/>
      <point x="415" y="668" type="curve" smooth="yes"/>
      <point x="394" y="672"/>
      <point x="339" y="660"/>
      <point x="259" y="660" type="curve" smooth="yes"/>
      <point x="192" y="660"/>
      <point x="100" y="673"/>
      <point x="75" y="662" type="curve" smooth="yes"/>
      <point x="36" y="645"/>
      <point x="58" y="525"/>
      <point x="91" y="513" type="curve" smooth="yes"/>
      <point x="124" y="501"/>
      <point x="281" y="532"/>
      <point x="362" y="530" type="curve"/>
      <point x="296" y="415"/>
      <point x="113" y="132"/>
    </contour>
  </outline>
</glyph>
<glyph name="eight" format="1">
  <advance width="591"/>
  <unicode hex="0038"/>
  <outline>
    <contour>
      <point x="441" y="668" type="curve" smooth="yes"/>
      <point x="270" y="668"/>
      <point x="104" y="613"/>
      <point x="79" y="563" type="curve" smooth="yes"/>
      <point x="61" y="530"/>
      <point x="61" y="457"/>
      <point x="87" y="438" type="curve" smooth="yes"/>
      <point x="129" y="408"/>
      <point x="182" y="366"/>
      <point x="219" y="341" type="curve"/>
      <point x="99" y="273"/>
      <point x="32" y="196"/>
      <point x="32" y="138" type="curve" smooth="yes"/>
      <point x="32" y="92"/>
      <point x="126" y="0"/>
      <point x="190" y="0" type="curve" smooth="yes"/>
      <point x="365" y="0"/>
      <point x="545" y="113"/>
      <point x="545" y="208" type="curve" smooth="yes"/>
      <point x="545" y="245"/>
      <point x="474" y="293"/>
      <point x="397" y="333" type="curve"/>
      <point x="479" y="383"/>
      <point x="590" y="475"/>
      <point x="590" y="533" type="curve" smooth="yes"/>
      <point x="590" y="586"/>
      <point x="507" y="668"/>
    </contour>
    <contour>
      <point x="193" y="479" type="curve"/>
      <point x="271" y="520"/>
      <point x="347" y="539"/>
      <point x="446" y="557" type="curve"/>
      <point x="416" y="489"/>
      <point x="361" y="425"/>
      <point x="308" y="391" type="curve"/>
      <point x="269" y="423"/>
      <point x="230" y="452"/>
    </contour>
    <contour>
      <point x="173" y="107" type="curve"/>
      <point x="208" y="172"/>
      <point x="263" y="230"/>
      <point x="326" y="280" type="curve"/>
      <point x="354" y="258"/>
      <point x="380" y="227"/>
      <point x="393" y="208" type="curve"/>
      <point x="349" y="154"/>
      <point x="276" y="121"/>
    </contour>
  </outline>
</glyph>
<glyph name="nine" format="1">
  <advance width="545"/>
  <unicode hex="0039"/>
  <outline>
    <contour>
      <point x="384" y="548" type="curve" smooth="yes"/>
      <point x="395" y="548"/>
      <point x="405" y="547"/>
      <point x="416" y="545" type="curve"/>
      <point x="406" y="434"/>
      <point x="301" y="386"/>
      <point x="213" y="386" type="curve" smooth="yes"/>
      <point x="200" y="386"/>
      <point x="187" y="387"/>
      <point x="174" y="389" type="curve"/>
      <point x="211" y="492"/>
      <point x="290" y="548"/>
    </contour>
    <contour>
      <point x="364" y="314" type="line"/>
      <point x="275" y="221"/>
      <point x="236" y="188"/>
      <point x="119" y="122" type="curve"/>
      <point x="89" y="55"/>
      <point x="135" y="-2"/>
      <point x="214" y="0" type="curve"/>
      <point x="388" y="93"/>
      <point x="539" y="309"/>
      <point x="539" y="460" type="curve" smooth="yes"/>
      <point x="539" y="564"/>
      <point x="455" y="668"/>
      <point x="333" y="668" type="curve" smooth="yes"/>
      <point x="186" y="668"/>
      <point x="51" y="529"/>
      <point x="51" y="408" type="curve" smooth="yes"/>
      <point x="51" y="357"/>
      <point x="120" y="273"/>
      <point x="193" y="273" type="curve" smooth="yes"/>
      <point x="237" y="273"/>
      <point x="287" y="288"/>
      <point x="349" y="329" type="curve"/>
    </contour>
  </outline>
</glyph>
<glyph name="colon" format="1">
  <advance width="326"/>
  <unicode hex="003A"/>
  <outline>
    <contour>
      <point x="288" y="436" type="curve" smooth="yes"/>
      <point x="288" y="469"/>
      <point x="253" y="537"/>
      <point x="216" y="537" type="curve" smooth="yes"/>
      <point x="164" y="537"/>
      <point x="77" y="491"/>
      <point x="77" y="456" type="curve" smooth="yes"/>
      <point x="77" y="416"/>
      <point x="121" y="347"/>
      <point x="156" y="347" type="curve" smooth="yes"/>
      <point x="199" y="347"/>
      <point x="288" y="397"/>
    </contour>
    <contour>
      <point x="241" y="89" type="curve" smooth="yes"/>
      <point x="241" y="122"/>
      <point x="206" y="190"/>
      <point x="169" y="190" type="curve" smooth="yes"/>
      <point x="117" y="190"/>
      <point x="30" y="144"/>
      <point x="30" y="109" type="curve" smooth="yes"/>
      <point x="30" y="69"/>
      <point x="74" y="0"/>
      <point x="109" y="0" type="curve" smooth="yes"/>
      <point x="152" y="0"/>
      <point x="241" y="50"/>
    </contour>
  </outline>
</glyph>
<glyph name="at" format="1">
  <advance width="1039"/>
  <unicode hex="0040"/>
  <outline>
    <contour>
      <point x="585" y="391" type="curve" smooth="yes"/>
      <point x="600" y="391"/>
      <point x="615" y="387"/>
      <point x="632" y="380" type="curve"/>
      <point x="603" y="269"/>
      <point x="520" y="181"/>
      <point x="426" y="124" type="curve"/>
      <point x="438" y="258"/>
      <point x="493" y="391"/>
    </contour>
    <contour>
      <point x="171" y="179" type="curve" smooth="yes"/>
      <point x="171" y="436"/>
      <point x="419" y="672"/>
      <point x="772" y="584" type="curve"/>
      <point x="934" y="433"/>
      <point x="890" y="200"/>
      <point x="710" y="131" type="curve"/>
      <point x="742" y="220"/>
      <point x="797" y="354"/>
      <point x="798" y="391" type="curve" smooth="yes"/>
      <point x="798" y="415"/>
      <point x="727" y="480"/>
      <point x="675" y="480" type="curve" smooth="yes"/>
      <point x="661" y="480"/>
      <point x="649" y="453"/>
      <point x="643" y="431" type="curve"/>
      <point x="633" y="463"/>
      <point x="588" y="504"/>
      <point x="550" y="504" type="curve" smooth="yes"/>
      <point x="386" y="504"/>
      <point x="281" y="304"/>
      <point x="281" y="149" type="curve" smooth="yes"/>
      <point x="281" y="93"/>
      <point x="360" y="0"/>
      <point x="421" y="0" type="curve" smooth="yes"/>
      <point x="485" y="0"/>
      <point x="551" y="89"/>
      <point x="603" y="172" type="curve"/>
      <point x="626" y="160" type="line"/>
      <point x="609" y="130"/>
      <point x="589" y="98"/>
      <point x="589" y="83" type="curve" smooth="yes"/>
      <point x="589" y="59"/>
      <point x="667" y="0"/>
      <point x="711" y="0" type="curve" smooth="yes"/>
      <point x="867" y="0"/>
      <point x="1010" y="197"/>
      <point x="1010" y="395" type="curve" smooth="yes"/>
      <point x="1010" y="552"/>
      <point x="845" y="726"/>
      <point x="642" y="726" type="curve" smooth="yes"/>
      <point x="240" y="726"/>
      <point x="26" y="440"/>
      <point x="26" y="171" type="curve" smooth="yes"/>
      <point x="29" y="-18"/>
      <point x="195" y="-235"/>
      <point x="384" y="-235" type="curve" smooth="yes"/>
      <point x="509" y="-235"/>
      <point x="576" y="-203"/>
      <point x="575" y="-141" type="curve" smooth="yes"/>
      <point x="574" y="-101"/>
      <point x="541" y="-60"/>
      <point x="502" y="-44" type="curve"/>
      <point x="444" y="-70"/>
      <point x="409" y="-82"/>
      <point x="332" y="-101" type="curve"/>
      <point x="222" y="-31"/>
      <point x="173" y="69"/>
    </contour>
  </outline>
</glyph>
<glyph name="B" format="1">
  <advance width="604"/>
  <unicode hex="0042"/>
  <outline>
    <contour>
      <point x="575" y="496" type="curve" smooth="yes"/>
      <point x="575" y="608"/>
      <point x="421" y="705"/>
      <point x="236" y="705" type="curve" smooth="yes"/>
      <point x="194" y="705"/>
      <point x="150" y="699"/>
      <point x="89" y="685" type="curve"/>
      <point x="57" y="632"/>
      <point x="71" y="579"/>
      <point x="104" y="545" type="curve"/>
      <point x="139" y="550" type="line"/>
      <point x="120" y="442"/>
      <point x="54" y="154"/>
      <point x="54" y="123" type="curve" smooth="yes"/>
      <point x="54" y="81"/>
      <point x="149" y="-5"/>
      <point x="211" y="-5" type="curve" smooth="yes"/>
      <point x="409" y="-5"/>
      <point x="556" y="99"/>
      <point x="556" y="197" type="curve" smooth="yes"/>
      <point x="556" y="252"/>
      <point x="511" y="304"/>
      <point x="416" y="319" type="curve"/>
      <point x="521" y="353"/>
      <point x="575" y="426"/>
    </contour>
    <contour>
      <point x="283" y="552" type="curve"/>
      <point x="373" y="564"/>
      <point x="430" y="527"/>
      <point x="430" y="484" type="curve" smooth="yes"/>
      <point x="430" y="431"/>
      <point x="372" y="383"/>
      <point x="253" y="367" type="curve"/>
      <point x="264" y="421"/>
      <point x="273" y="490"/>
    </contour>
    <contour>
      <point x="246" y="274" type="curve"/>
      <point x="272" y="278"/>
      <point x="294" y="279"/>
      <point x="313" y="278" type="curve" smooth="yes"/>
      <point x="367" y="273"/>
      <point x="387" y="243"/>
      <point x="384" y="213" type="curve" smooth="yes"/>
      <point x="380" y="165"/>
      <point x="324" y="124"/>
      <point x="202" y="116" type="curve"/>
      <point x="216" y="172"/>
      <point x="233" y="229"/>
    </contour>
  </outline>
</glyph>
<glyph name="C" format="1">
  <advance width="547"/>
  <unicode hex="0043"/>
  <outline>
    <contour>
      <point x="348" y="733" type="move" name="top"/>
    </contour>
    <contour>
      <point x="316" y="0" type="move" name="bottom"/>
    </contour>
    <contour>
      <point x="401" y="249" type="curve"/>
      <point x="350" y="205"/>
      <point x="276" y="163"/>
      <point x="182" y="146" type="curve"/>
      <point x="186" y="317"/>
      <point x="267" y="575"/>
      <point x="338" y="575" type="curve" smooth="yes"/>
      <point x="370" y="575"/>
      <point x="369" y="524"/>
      <point x="366" y="451" type="curve"/>
      <point x="443" y="423"/>
      <point x="532" y="445"/>
      <point x="531" y="523" type="curve" smooth="yes"/>
      <point x="531" y="599"/>
      <point x="448" y="710"/>
      <point x="335" y="710" type="curve" smooth="yes"/>
      <point x="118" y="710"/>
      <point x="20" y="378"/>
      <point x="19" y="185" type="curve" smooth="yes"/>
      <point x="19" y="112"/>
      <point x="147" y="-5"/>
      <point x="219" y="-5" type="curve" smooth="yes"/>
      <point x="316" y="-5"/>
      <point x="444" y="57"/>
      <point x="484" y="97" type="curve"/>
      <point x="513" y="156"/>
      <point x="484" y="229"/>
    </contour>
  </outline>
</glyph>
<glyph name="E" format="1">
  <advance width="553"/>
  <unicode hex="0045"/>
  <outline>
    <contour>
      <point x="441" y="0" type="move" name="ogonek"/>
    </contour>
    <contour>
      <point x="351" y="733" type="move" name="top"/>
    </contour>
    <contour>
      <point x="99" y="679" type="curve"/>
      <point x="50" y="630"/>
      <point x="64" y="559"/>
      <point x="110" y="536" type="curve"/>
      <point x="152" y="539" type="line"/>
      <point x="143" y="484"/>
      <point x="133" y="438"/>
      <point x="120" y="371" type="curve" smooth="yes"/>
      <point x="99" y="260"/>
      <point x="64" y="126"/>
      <point x="64" y="101" type="curve" smooth="yes"/>
      <point x="64" y="66"/>
      <point x="149" y="0"/>
      <point x="185" y="0" type="curve" smooth="yes"/>
      <point x="261" y="0"/>
      <point x="377" y="6"/>
      <point x="467" y="24" type="curve"/>
      <point x="518" y="74"/>
      <point x="504" y="155"/>
      <point x="439" y="183" type="curve"/>
      <point x="364" y="157"/>
      <point x="303" y="145"/>
      <point x="224" y="137" type="curve"/>
      <point x="232" y="177"/>
      <point x="242" y="223"/>
      <point x="252" y="275" type="curve"/>
      <point x="312" y="280"/>
      <point x="398" y="285"/>
      <point x="453" y="289" type="curve"/>
      <point x="496" y="321"/>
      <point x="497" y="402"/>
      <point x="444" y="432" type="curve"/>
      <point x="397" y="421"/>
      <point x="339" y="413"/>
      <point x="275" y="408" type="curve"/>
      <point x="286" y="463"/>
      <point x="295" y="501"/>
      <point x="307" y="544" type="curve"/>
      <point x="373" y="550"/>
      <point x="463" y="553"/>
      <point x="522" y="554" type="curve"/>
      <point x="560" y="590"/>
      <point x="564" y="671"/>
      <point x="513" y="700" type="curve"/>
      <point x="401" y="684"/>
      <point x="230" y="681"/>
    </contour>
  </outline>
</glyph>
<glyph name="I" format="1">
  <advance width="283"/>
  <unicode hex="0049"/>
  <outline>
    <contour>
      <point x="231" y="0" type="move" name="ogonek"/>
    </contour>
    <contour>
      <point x="211" y="733" type="move" name="top"/>
    </contour>
    <contour>
      <point x="213" y="303" type="curve" smooth="yes"/>
      <point x="238" y="443"/>
      <point x="284" y="579"/>
      <point x="284" y="603" type="curve" smooth="yes"/>
      <point x="284" y="638"/>
      <point x="190" y="700"/>
      <point x="151" y="700" type="curve" smooth="yes"/>
      <point x="120" y="700"/>
      <point x="90" y="490"/>
      <point x="74" y="401" type="curve" smooth="yes"/>
      <point x="50" y="260"/>
      <point x="17" y="127"/>
      <point x="18" y="94" type="curve" smooth="yes"/>
      <point x="18" y="62"/>
      <point x="104" y="0"/>
      <point x="151" y="0" type="curve" smooth="yes"/>
      <point x="186" y="0"/>
      <point x="184" y="135"/>
    </contour>
  </outline>
</glyph>
<glyph name="M" format="1">
  <advance width="709"/>
  <unicode hex="004D"/>
  <outline>
    <contour>
      <point x="213" y="303" type="curve"/>
      <point x="220" y="429" type="line"/>
      <point x="250" y="333"/>
      <point x="261" y="207"/>
      <point x="284" y="185" type="curve" smooth="yes"/>
      <point x="303" y="166"/>
      <point x="385" y="179"/>
      <point x="406" y="203" type="curve" smooth="yes"/>
      <point x="431" y="233"/>
      <point x="475" y="325"/>
      <point x="517" y="411" type="curve"/>
      <point x="531" y="406" type="line"/>
      <point x="495" y="295" type="line"/>
      <point x="474" y="193"/>
      <point x="457" y="117"/>
      <point x="458" y="94" type="curve" smooth="yes"/>
      <point x="458" y="62"/>
      <point x="544" y="0"/>
      <point x="591" y="0" type="curve" smooth="yes"/>
      <point x="626" y="0"/>
      <point x="624" y="135"/>
      <point x="653" y="303" type="curve" smooth="yes"/>
      <point x="678" y="443"/>
      <point x="706" y="579"/>
      <point x="706" y="603" type="curve" smooth="yes"/>
      <point x="706" y="638"/>
      <point x="612" y="700"/>
      <point x="573" y="700" type="curve" smooth="yes"/>
      <point x="527" y="700"/>
      <point x="455" y="490"/>
      <point x="357" y="343" type="curve"/>
      <point x="334" y="418"/>
      <point x="314" y="554"/>
      <point x="288" y="610" type="curve" smooth="yes"/>
      <point x="269" y="651"/>
      <point x="186" y="700"/>
      <point x="151" y="700" type="curve" smooth="yes"/>
      <point x="120" y="700"/>
      <point x="90" y="490"/>
      <point x="74" y="401" type="curve" smooth="yes"/>
      <point x="50" y="260"/>
      <point x="17" y="127"/>
      <point x="18" y="94" type="curve" smooth="yes"/>
      <point x="18" y="62"/>
      <point x="104" y="0"/>
      <point x="151" y="0" type="curve" smooth="yes"/>
      <point x="186" y="0"/>
      <point x="184" y="135"/>
    </contour>
  </outline>
</glyph>
<glyph name="N" format="1">
  <advance width="619"/>
  <unicode hex="004E"/>
  <outline>
    <contour>
      <point x="380" y="733" type="move" name="top"/>
    </contour>
    <contour>
      <point x="410" y="401" type="curve"/>
      <point x="398" y="270" type="line"/>
      <point x="359" y="392"/>
      <point x="310" y="537"/>
      <point x="283" y="610" type="curve" smooth="yes"/>
      <point x="269" y="649"/>
      <point x="186" y="700"/>
      <point x="151" y="700" type="curve" smooth="yes"/>
      <point x="120" y="700"/>
      <point x="90" y="490"/>
      <point x="74" y="401" type="curve" smooth="yes"/>
      <point x="50" y="260"/>
      <point x="17" y="127"/>
      <point x="18" y="94" type="curve" smooth="yes"/>
      <point x="18" y="62"/>
      <point x="104" y="0"/>
      <point x="151" y="0" type="curve" smooth="yes"/>
      <point x="186" y="0"/>
      <point x="184" y="135"/>
      <point x="213" y="303" type="curve"/>
      <point x="220" y="429" type="line"/>
      <point x="247" y="294"/>
      <point x="324" y="122"/>
      <point x="353" y="85" type="curve" smooth="yes"/>
      <point x="390" y="37"/>
      <point x="449" y="0"/>
      <point x="487" y="0" type="curve" smooth="yes"/>
      <point x="522" y="0"/>
      <point x="520" y="135"/>
      <point x="549" y="303" type="curve" smooth="yes"/>
      <point x="574" y="443"/>
      <point x="620" y="579"/>
      <point x="620" y="603" type="curve" smooth="yes"/>
      <point x="620" y="638"/>
      <point x="526" y="700"/>
      <point x="487" y="700" type="curve" smooth="yes"/>
      <point x="456" y="700"/>
      <point x="426" y="490"/>
    </contour>
  </outline>
</glyph>
<glyph name="O" format="1">
  <advance width="571"/>
  <unicode hex="004F"/>
  <outline>
    <contour>
      <point x="366" y="733" type="move" name="top"/>
    </contour>
    <contour>
      <point x="112" y="593" type="curve"/>
      <point x="74" y="507"/>
      <point x="15" y="269"/>
      <point x="15" y="191" type="curve" smooth="yes"/>
      <point x="15" y="117"/>
      <point x="142" y="-5"/>
      <point x="224" y="-5" type="curve" smooth="yes"/>
      <point x="385" y="-5"/>
      <point x="564" y="267"/>
      <point x="564" y="463" type="curve" smooth="yes"/>
      <point x="564" y="590"/>
      <point x="430" y="710"/>
      <point x="281" y="710" type="curve"/>
      <point x="205" y="685"/>
      <point x="182" y="595"/>
      <point x="234" y="532" type="curve"/>
      <point x="316" y="535"/>
      <point x="390" y="513"/>
      <point x="431" y="485" type="curve"/>
      <point x="399" y="345"/>
      <point x="317" y="182"/>
      <point x="178" y="132" type="curve"/>
      <point x="176" y="261"/>
      <point x="205" y="386"/>
      <point x="267" y="502" type="curve"/>
      <point x="262" y="583"/>
      <point x="216" y="624"/>
    </contour>
  </outline>
</glyph>
<glyph name="P" format="1">
  <advance width="582"/>
  <unicode hex="0050"/>
  <outline>
    <contour>
      <point x="237" y="235" type="curve"/>
      <point x="459" y="251"/>
      <point x="585" y="368"/>
      <point x="585" y="493" type="curve" smooth="yes"/>
      <point x="585" y="642"/>
      <point x="419" y="705"/>
      <point x="252" y="705" type="curve" smooth="yes"/>
      <point x="198" y="705"/>
      <point x="142" y="698"/>
      <point x="88" y="684" type="curve"/>
      <point x="59" y="629"/>
      <point x="68" y="580"/>
      <point x="102" y="547" type="curve"/>
      <point x="139" y="553" type="line"/>
      <point x="123" y="455"/>
      <point x="51" y="132"/>
      <point x="52" y="94" type="curve" smooth="yes"/>
      <point x="52" y="62"/>
      <point x="138" y="0"/>
      <point x="185" y="0" type="curve" smooth="yes"/>
      <point x="218" y="0"/>
      <point x="221" y="137"/>
    </contour>
    <contour>
      <point x="286" y="559" type="curve"/>
      <point x="379" y="573"/>
      <point x="434" y="537"/>
      <point x="434" y="491" type="curve" smooth="yes"/>
      <point x="434" y="434"/>
      <point x="371" y="382"/>
      <point x="252" y="359" type="curve"/>
      <point x="263" y="431"/>
      <point x="273" y="479"/>
    </contour>
  </outline>
</glyph>
<glyph name="R" format="1">
  <advance width="605"/>
  <unicode hex="0052"/>
  <outline>
    <contour>
      <point x="361" y="733" type="move" name="top"/>
    </contour>
    <contour>
      <point x="557" y="141" type="curve"/>
      <point x="458" y="175"/>
      <point x="397" y="207"/>
      <point x="329" y="271" type="curve"/>
      <point x="503" y="298"/>
      <point x="585" y="386"/>
      <point x="585" y="493" type="curve" smooth="yes"/>
      <point x="585" y="642"/>
      <point x="419" y="705"/>
      <point x="252" y="705" type="curve" smooth="yes"/>
      <point x="198" y="705"/>
      <point x="142" y="698"/>
      <point x="88" y="684" type="curve"/>
      <point x="59" y="629"/>
      <point x="68" y="580"/>
      <point x="102" y="547" type="curve"/>
      <point x="139" y="553" type="line"/>
      <point x="123" y="455"/>
      <point x="51" y="132"/>
      <point x="52" y="94" type="curve" smooth="yes"/>
      <point x="52" y="62"/>
      <point x="138" y="0"/>
      <point x="185" y="0" type="curve" smooth="yes"/>
      <point x="215" y="0"/>
      <point x="224" y="134"/>
      <point x="235" y="235" type="curve"/>
      <point x="281" y="128"/>
      <point x="358" y="47"/>
      <point x="450" y="-6" type="curve"/>
      <point x="541" y="3"/>
      <point x="573" y="68"/>
    </contour>
    <contour>
      <point x="286" y="559" type="curve"/>
      <point x="379" y="573"/>
      <point x="434" y="537"/>
      <point x="434" y="491" type="curve" smooth="yes"/>
      <point x="434" y="428"/>
      <point x="359" y="379"/>
      <point x="254" y="368" type="curve"/>
      <point x="265" y="440"/>
      <point x="273" y="479"/>
    </contour>
  </outline>
</glyph>
<glyph name="W" format="1">
  <advance width="716"/>
  <unicode hex="0057"/>
  <outline>
    <contour>
      <point x="710" y="480" type="curve" smooth="yes"/>
      <point x="710" y="593"/>
      <point x="629" y="677"/>
      <point x="486" y="700" type="curve"/>
      <point x="399" y="677"/>
      <point x="392" y="605"/>
      <point x="433" y="535" type="curve"/>
      <point x="486" y="537"/>
      <point x="525" y="526"/>
      <point x="571" y="503" type="curve"/>
      <point x="571" y="378"/>
      <point x="548" y="234"/>
      <point x="472" y="151" type="curve"/>
      <point x="457" y="286"/>
      <point x="425" y="409"/>
      <point x="351" y="409" type="curve" smooth="yes"/>
      <point x="309" y="409"/>
      <point x="254" y="306"/>
      <point x="189" y="210" type="curve"/>
      <point x="173" y="216" type="line"/>
      <point x="210" y="361"/>
      <point x="284" y="545"/>
      <point x="284" y="603" type="curve" smooth="yes"/>
      <point x="284" y="638"/>
      <point x="190" y="700"/>
      <point x="151" y="700" type="curve" smooth="yes"/>
      <point x="120" y="700"/>
      <point x="90" y="490"/>
      <point x="74" y="401" type="curve" smooth="yes"/>
      <point x="50" y="260"/>
      <point x="18" y="127"/>
      <point x="18" y="94" type="curve" smooth="yes"/>
      <point x="18" y="62"/>
      <point x="104" y="0"/>
      <point x="151" y="0" type="curve" smooth="yes"/>
      <point x="191" y="0"/>
      <point x="268" y="129"/>
      <point x="331" y="253" type="curve"/>
      <point x="336" y="189"/>
      <point x="341" y="96"/>
      <point x="346" y="78" type="curve" smooth="yes"/>
      <point x="355" y="50"/>
      <point x="448" y="0"/>
      <point x="512" y="0" type="curve" smooth="yes"/>
      <point x="628" y="0"/>
      <point x="710" y="358"/>
    </contour>
  </outline>
</glyph>
<glyph name="X" format="1">
  <advance width="593"/>
  <unicode hex="0058"/>
  <outline>
    <contour>
      <point x="276" y="192" type="curve"/>
      <point x="324" y="107"/>
      <point x="368" y="52"/>
      <point x="426" y="0" type="curve"/>
      <point x="510" y="-1"/>
      <point x="556" y="62"/>
      <point x="552" y="135" type="curve"/>
      <point x="489" y="172"/>
      <point x="420" y="230"/>
      <point x="361" y="299" type="curve"/>
      <point x="451" y="402"/>
      <point x="540" y="506"/>
      <point x="606" y="585" type="curve"/>
      <point x="599" y="672"/>
      <point x="543" y="721"/>
      <point x="439" y="694" type="curve"/>
      <point x="401" y="602"/>
      <point x="347" y="512"/>
      <point x="281" y="421" type="curve"/>
      <point x="238" y="531"/>
      <point x="211" y="674"/>
      <point x="174" y="674" type="curve" smooth="yes"/>
      <point x="134" y="674"/>
      <point x="59" y="624"/>
      <point x="59" y="588" type="curve" smooth="yes"/>
      <point x="59" y="544"/>
      <point x="122" y="433"/>
      <point x="203" y="328" type="curve"/>
      <point x="139" y="262"/>
      <point x="70" y="199"/>
      <point x="-7" y="142" type="curve"/>
      <point x="-23" y="67"/>
      <point x="31" y="-2"/>
      <point x="134" y="0" type="curve"/>
      <point x="177" y="60"/>
      <point x="227" y="124"/>
    </contour>
  </outline>
</glyph>
<glyph name="Y" format="1">
  <advance width="573"/>
  <unicode hex="0059"/>
  <outline>
    <contour>
      <point x="342" y="733" type="move" name="top"/>
    </contour>
    <contour>
      <point x="441" y="689" type="curve"/>
      <point x="401" y="600"/>
      <point x="346" y="493"/>
      <point x="281" y="382" type="curve"/>
      <point x="240" y="535"/>
      <point x="233" y="678"/>
      <point x="191" y="678" type="curve" smooth="yes"/>
      <point x="140" y="678"/>
      <point x="58" y="617"/>
      <point x="58" y="582" type="curve" smooth="yes"/>
      <point x="58" y="530"/>
      <point x="130" y="408"/>
      <point x="187" y="284" type="curve"/>
      <point x="163" y="188"/>
      <point x="146" y="124"/>
      <point x="147" y="94" type="curve" smooth="yes"/>
      <point x="147" y="62"/>
      <point x="233" y="0"/>
      <point x="280" y="0" type="curve" smooth="yes"/>
      <point x="312" y="0"/>
      <point x="312" y="96"/>
      <point x="330" y="231" type="curve"/>
      <point x="444" y="365"/>
      <point x="542" y="496"/>
      <point x="611" y="583" type="curve"/>
      <point x="607" y="668"/>
      <point x="552" y="719"/>
    </contour>
  </outline>
</glyph>
<glyph name="backslash" format="1">
  <advance width="505"/>
  <unicode hex="005C"/>
  <outline>
    <contour>
      <point x="433" y="-10" type="curve" smooth="yes"/>
      <point x="433" y="27"/>
      <point x="369" y="196"/>
      <point x="321" y="368" type="curve" smooth="yes"/>
      <point x="267" y="562"/>
      <point x="239" y="758"/>
      <point x="196" y="758" type="curve" smooth="yes"/>
      <point x="154" y="758"/>
      <point x="82" y="695"/>
      <point x="82" y="663" type="curve" smooth="yes"/>
      <point x="82" y="621"/>
      <point x="134" y="479"/>
      <point x="183" y="306" type="curve" smooth="yes"/>
      <point x="236" y="118"/>
      <point x="277" y="-91"/>
      <point x="311" y="-91" type="curve" smooth="yes"/>
      <point x="356" y="-91"/>
      <point x="433" y="-45"/>
    </contour>
  </outline>
</glyph>
<glyph name="bracketright" format="1">
  <advance width="521"/>
  <unicode hex="005D"/>
  <outline>
    <contour>
      <point x="229" y="8" type="curve"/>
      <point x="153" y="16"/>
      <point x="96" y="23"/>
      <point x="13" y="40" type="curve"/>
      <point x="-45" y="8"/>
      <point x="-54" y="-85"/>
      <point x="2" y="-117" type="curve"/>
      <point x="94" y="-127"/>
      <point x="194" y="-129"/>
      <point x="262" y="-129" type="curve" smooth="yes"/>
      <point x="299" y="-129"/>
      <point x="362" y="-80"/>
      <point x="371" y="-55" type="curve" smooth="yes"/>
      <point x="380" y="-30"/>
      <point x="420" y="260"/>
      <point x="437" y="371" type="curve" smooth="yes"/>
      <point x="448" y="438"/>
      <point x="476" y="611"/>
      <point x="483" y="658" type="curve" smooth="yes"/>
      <point x="490" y="706"/>
      <point x="436" y="781"/>
      <point x="392" y="782" type="curve" smooth="yes"/>
      <point x="309" y="784"/>
      <point x="238" y="791"/>
      <point x="122" y="800" type="curve"/>
      <point x="61" y="771"/>
      <point x="58" y="689"/>
      <point x="105" y="653" type="curve"/>
      <point x="189" y="651"/>
      <point x="264" y="649"/>
      <point x="327" y="643" type="curve"/>
      <point x="315" y="557"/>
      <point x="301" y="454"/>
      <point x="288" y="371" type="curve" smooth="yes"/>
      <point x="273" y="268"/>
      <point x="246" y="109"/>
    </contour>
  </outline>
</glyph>
<glyph name="grave" format="1">
  <advance width="277"/>
  <unicode hex="0060"/>
  <outline>
    <contour>
      <point x="257" y="593" type="move" name="_top"/>
    </contour>
    <contour>
      <point x="283" y="706" type="line"/>
      <point x="279" y="745"/>
      <point x="278" y="784"/>
      <point x="275" y="825" type="curve"/>
      <point x="204" y="864"/>
      <point x="122" y="842"/>
      <point x="98" y="762" type="curve"/>
      <point x="122" y="722"/>
      <point x="176" y="643"/>
      <point x="219" y="594" type="curve"/>
      <point x="269" y="583"/>
      <point x="305" y="601"/>
      <point x="314" y="637" type="curve"/>
    </contour>
  </outline>
</glyph>
<glyph name="b" format="1">
  <advance width="550"/>
  <unicode hex="0062"/>
  <outline>
    <contour>
      <point x="241" y="469" type="line"/>
      <point x="262" y="522"/>
      <point x="296" y="611"/>
      <point x="297" y="660" type="curve" smooth="yes"/>
      <point x="298" y="698"/>
      <point x="213" y="775"/>
      <point x="156" y="775" type="curve" smooth="yes"/>
      <point x="130" y="775"/>
      <point x="110" y="753"/>
      <point x="109" y="725" type="curve" smooth="yes"/>
      <point x="108" y="664"/>
      <point x="84" y="480"/>
      <point x="57" y="389" type="curve" smooth="yes"/>
      <point x="34" y="310"/>
      <point x="14" y="221"/>
      <point x="13" y="172" type="curve" smooth="yes"/>
      <point x="11" y="118"/>
      <point x="104" y="0"/>
      <point x="199" y="0" type="curve" smooth="yes"/>
      <point x="379" y="0"/>
      <point x="525" y="227"/>
      <point x="525" y="375" type="curve" smooth="yes"/>
      <point x="525" y="464"/>
      <point x="441" y="528"/>
      <point x="331" y="530" type="curve"/>
      <point x="236" y="491" type="line"/>
    </contour>
    <contour>
      <point x="237" y="416" type="curve" smooth="yes"/>
      <point x="265" y="432"/>
      <point x="359" y="394"/>
      <point x="359" y="368" type="curve" smooth="yes"/>
      <point x="359" y="285"/>
      <point x="275" y="126"/>
      <point x="199" y="126" type="curve" smooth="yes"/>
      <point x="141" y="126"/>
      <point x="188" y="389"/>
    </contour>
  </outline>
</glyph>
<glyph name="c" format="1">
  <advance width="516"/>
  <unicode hex="0063"/>
  <outline>
    <contour>
      <point x="342" y="593" type="move" name="top"/>
    </contour>
    <contour>
      <point x="276" y="0" type="move" name="bottom"/>
    </contour>
    <contour>
      <point x="309" y="445" type="curve"/>
      <point x="332" y="426"/>
      <point x="351" y="391"/>
      <point x="364" y="359" type="curve"/>
      <point x="443" y="344"/>
      <point x="491" y="391"/>
      <point x="491" y="436" type="curve" smooth="yes"/>
      <point x="491" y="502"/>
      <point x="399" y="564"/>
      <point x="297" y="564" type="curve" smooth="yes"/>
      <point x="126" y="564"/>
      <point x="13" y="349"/>
      <point x="13" y="196" type="curve" smooth="yes"/>
      <point x="13" y="113"/>
      <point x="133" y="0"/>
      <point x="233" y="0" type="curve" smooth="yes"/>
      <point x="331" y="0"/>
      <point x="461" y="57"/>
      <point x="459" y="123" type="curve" smooth="yes"/>
      <point x="458" y="181"/>
      <point x="414" y="217"/>
      <point x="351" y="229" type="curve"/>
      <point x="301" y="171"/>
      <point x="243" y="135"/>
      <point x="177" y="132" type="curve"/>
      <point x="166" y="236"/>
      <point x="203" y="376"/>
    </contour>
  </outline>
</glyph>
<glyph name="d" format="1">
  <advance width="700"/>
  <unicode hex="0064"/>
  <outline>
    <contour>
      <point x="388" y="179" type="line"/>
      <point x="369" y="145"/>
      <point x="348" y="110"/>
      <point x="348" y="93" type="curve" smooth="yes"/>
      <point x="347" y="66"/>
      <point x="425" y="0"/>
      <point x="473" y="0" type="curve" smooth="yes"/>
      <point x="538" y="0"/>
      <point x="668" y="57"/>
      <point x="668" y="109" type="curve" smooth="yes"/>
      <point x="668" y="153"/>
      <point x="641" y="190"/>
      <point x="581" y="211" type="curve"/>
      <point x="548" y="184"/>
      <point x="517" y="166"/>
      <point x="478" y="147" type="curve"/>
      <point x="487" y="202"/>
      <point x="505" y="286"/>
      <point x="519" y="343" type="curve" smooth="yes"/>
      <point x="543" y="446"/>
      <point x="610" y="603"/>
      <point x="610" y="663" type="curve" smooth="yes"/>
      <point x="610" y="698"/>
      <point x="525" y="775"/>
      <point x="465" y="775" type="curve" smooth="yes"/>
      <point x="439" y="775"/>
      <point x="419" y="753"/>
      <point x="419" y="725" type="curve" smooth="yes"/>
      <point x="419" y="664"/>
      <point x="417" y="481"/>
      <point x="389" y="384" type="curve"/>
      <point x="333" y="271"/>
      <point x="245" y="194"/>
      <point x="171" y="139" type="curve"/>
      <point x="184" y="289"/>
      <point x="244" y="437"/>
      <point x="343" y="437" type="curve" smooth="yes"/>
      <point x="370" y="437"/>
      <point x="399" y="426"/>
      <point x="433" y="403" type="curve"/>
      <point x="464" y="437" type="line"/>
      <point x="429" y="502"/>
      <point x="359" y="564"/>
      <point x="293" y="564" type="curve" smooth="yes"/>
      <point x="144" y="564"/>
      <point x="14" y="354"/>
      <point x="14" y="167" type="curve" smooth="yes"/>
      <point x="14" y="104"/>
      <point x="106" y="0"/>
      <point x="172" y="0" type="curve" smooth="yes"/>
      <point x="235" y="0"/>
      <point x="306" y="100"/>
      <point x="363" y="193" type="curve"/>
    </contour>
  </outline>
</glyph>
<glyph name="l" format="1">
  <advance width="385"/>
  <unicode hex="006C"/>
  <outline>
    <contour>
      <point x="254" y="801" type="move" name="top"/>
    </contour>
    <contour>
      <point x="353" y="109" type="curve" smooth="yes"/>
      <point x="353" y="153"/>
      <point x="326" y="190"/>
      <point x="266" y="211" type="curve"/>
      <point x="234" y="184"/>
      <point x="217" y="173"/>
      <point x="174" y="152" type="curve"/>
      <point x="191" y="267"/>
      <point x="222" y="434"/>
      <point x="250" y="519" type="curve" smooth="yes"/>
      <point x="266" y="565"/>
      <point x="306" y="616"/>
      <point x="306" y="672" type="curve" smooth="yes"/>
      <point x="306" y="709"/>
      <point x="207" y="774"/>
      <point x="164" y="774" type="curve" smooth="yes"/>
      <point x="131" y="774"/>
      <point x="98" y="553"/>
      <point x="80" y="460" type="curve" smooth="yes"/>
      <point x="52" y="312"/>
      <point x="8" y="133"/>
      <point x="8" y="99" type="curve" smooth="yes"/>
      <point x="8" y="65"/>
      <point x="96" y="0"/>
      <point x="158" y="0" type="curve" smooth="yes"/>
      <point x="223" y="0"/>
      <point x="353" y="57"/>
    </contour>
  </outline>
</glyph>
<glyph name="r" format="1">
  <advance width="517"/>
  <unicode hex="0072"/>
  <outline>
    <contour>
      <point x="302" y="593" type="move" name="top"/>
    </contour>
    <contour>
      <point x="238" y="258" type="curve"/>
      <point x="305" y="300"/>
      <point x="364" y="328"/>
      <point x="462" y="361" type="curve"/>
      <point x="518" y="448"/>
      <point x="500" y="550"/>
      <point x="354" y="546" type="curve"/>
      <point x="331" y="503"/>
      <point x="288" y="417"/>
      <point x="251" y="358" type="curve"/>
      <point x="239" y="364" type="line"/>
      <point x="247" y="397"/>
      <point x="254" y="436"/>
      <point x="254" y="464" type="curve" smooth="yes"/>
      <point x="254" y="490"/>
      <point x="183" y="564"/>
      <point x="139" y="564" type="curve" smooth="yes"/>
      <point x="100" y="564"/>
      <point x="26" y="491"/>
      <point x="26" y="447" type="curve" smooth="yes"/>
      <point x="26" y="417"/>
      <point x="105" y="383"/>
      <point x="105" y="358" type="curve" smooth="yes"/>
      <point x="105" y="300"/>
      <point x="41" y="155"/>
      <point x="41" y="98" type="curve" smooth="yes"/>
      <point x="41" y="66"/>
      <point x="122" y="0"/>
      <point x="178" y="0" type="curve" smooth="yes"/>
      <point x="218" y="0"/>
      <point x="234" y="129"/>
    </contour>
  </outline>
</glyph>
<glyph name="s" format="1">
  <advance width="508"/>
  <unicode hex="0073"/>
  <outline>
    <contour>
      <point x="331" y="593" type="move" name="top"/>
    </contour>
    <contour>
      <point x="266" y="0" type="move" name="bottom"/>
    </contour>
    <contour>
      <point x="332" y="347" type="curve"/>
      <point x="404" y="320"/>
      <point x="473" y="352"/>
      <point x="473" y="411" type="curve" smooth="yes"/>
      <point x="473" y="478"/>
      <point x="397" y="565"/>
      <point x="311" y="565" type="curve" smooth="yes"/>
      <point x="183" y="565"/>
      <point x="62" y="410"/>
      <point x="62" y="333" type="curve" smooth="yes"/>
      <point x="62" y="275"/>
      <point x="203" y="203"/>
      <point x="285" y="168" type="curve"/>
      <point x="252" y="142"/>
      <point x="218" y="125"/>
      <point x="176" y="114" type="curve"/>
      <point x="163" y="138"/>
      <point x="155" y="165"/>
      <point x="147" y="191" type="curve"/>
      <point x="71" y="211"/>
      <point x="10" y="176"/>
      <point x="10" y="107" type="curve" smooth="yes"/>
      <point x="10" y="59"/>
      <point x="113" y="0"/>
      <point x="193" y="0" type="curve" smooth="yes"/>
      <point x="297" y="0"/>
      <point x="446" y="70"/>
      <point x="446" y="145" type="curve" smooth="yes"/>
      <point x="446" y="235"/>
      <point x="214" y="282"/>
      <point x="214" y="322" type="curve" smooth="yes"/>
      <point x="214" y="353"/>
      <point x="256" y="401"/>
      <point x="314" y="445" type="curve"/>
      <point x="324" y="408"/>
      <point x="330" y="380"/>
    </contour>
  </outline>
</glyph>
<glyph name="w" format="1">
  <advance width="736"/>
  <unicode hex="0077"/>
  <outline>
    <contour>
      <point x="176" y="0" type="curve" smooth="yes"/>
      <point x="236" y="0"/>
      <point x="306" y="133"/>
      <point x="346" y="235" type="curve"/>
      <point x="322" y="118"/>
      <point x="383" y="0"/>
      <point x="435" y="0" type="curve" smooth="yes"/>
      <point x="569" y="0"/>
      <point x="709" y="257"/>
      <point x="709" y="391" type="curve" smooth="yes"/>
      <point x="709" y="464"/>
      <point x="648" y="531"/>
      <point x="554" y="566" type="curve"/>
      <point x="464" y="567"/>
      <point x="422" y="495"/>
      <point x="457" y="416" type="curve"/>
      <point x="501" y="405"/>
      <point x="544" y="391"/>
      <point x="578" y="372" type="curve"/>
      <point x="550" y="286"/>
      <point x="507" y="205"/>
      <point x="438" y="146" type="curve"/>
      <point x="444" y="213"/>
      <point x="444" y="268"/>
      <point x="444" y="314" type="curve" smooth="yes"/>
      <point x="444" y="334"/>
      <point x="375" y="394"/>
      <point x="346" y="394" type="curve" smooth="yes"/>
      <point x="311" y="394"/>
      <point x="271" y="242"/>
      <point x="192" y="119" type="curve"/>
      <point x="173" y="129" type="line"/>
      <point x="216" y="257"/>
      <point x="229" y="354"/>
      <point x="229" y="437" type="curve" smooth="yes"/>
      <point x="229" y="470"/>
      <point x="155" y="537"/>
      <point x="106" y="537" type="curve" smooth="yes"/>
      <point x="57" y="537"/>
      <point x="-9" y="464"/>
      <point x="-9" y="420" type="curve" smooth="yes"/>
      <point x="-9" y="390"/>
      <point x="72" y="359"/>
      <point x="72" y="329" type="curve" smooth="yes"/>
      <point x="72" y="235"/>
      <point x="41" y="146"/>
      <point x="41" y="99" type="curve" smooth="yes"/>
      <point x="41" y="71"/>
      <point x="145" y="0"/>
    </contour>
  </outline>
</glyph>
<glyph name="x" format="1">
  <advance width="614"/>
  <unicode hex="0078"/>
  <outline>
    <contour>
      <point x="368" y="139" type="curve"/>
      <point x="360" y="151"/>
      <point x="348" y="173"/>
      <point x="335" y="201" type="curve"/>
      <point x="410" y="276"/>
      <point x="546" y="416"/>
      <point x="573" y="473" type="curve"/>
      <point x="565" y="542"/>
      <point x="507" y="582"/>
      <point x="420" y="559" type="curve"/>
      <point x="376" y="464"/>
      <point x="341" y="412"/>
      <point x="282" y="336" type="curve"/>
      <point x="252" y="437"/>
      <point x="242" y="539"/>
      <point x="203" y="539" type="curve" smooth="yes"/>
      <point x="157" y="539"/>
      <point x="89" y="499"/>
      <point x="89" y="470" type="curve" smooth="yes"/>
      <point x="89" y="425"/>
      <point x="141" y="347"/>
      <point x="199" y="261" type="curve"/>
      <point x="156" y="218"/>
      <point x="93" y="173"/>
      <point x="18" y="134" type="curve"/>
      <point x="1" y="54"/>
      <point x="59" y="-9"/>
      <point x="143" y="0" type="curve"/>
      <point x="188" y="44"/>
      <point x="226" y="84"/>
      <point x="267" y="128" type="curve"/>
      <point x="306" y="58"/>
      <point x="346" y="0"/>
      <point x="391" y="0" type="curve" smooth="yes"/>
      <point x="459" y="0"/>
      <point x="578" y="60"/>
      <point x="578" y="115" type="curve" smooth="yes"/>
      <point x="578" y="167"/>
      <point x="542" y="208"/>
      <point x="474" y="211" type="curve"/>
      <point x="440" y="181"/>
      <point x="411" y="159"/>
    </contour>
  </outline>
</glyph>
<glyph name="z" format="1">
  <advance width="631"/>
  <unicode hex="007A"/>
  <outline>
    <contour>
      <point x="324" y="593" type="move" name="top"/>
    </contour>
    <contour>
      <point x="330" y="124" type="curve" smooth="yes"/>
      <point x="314" y="124"/>
      <point x="300" y="130"/>
      <point x="286" y="143" type="curve"/>
      <point x="393" y="235"/>
      <point x="565" y="403"/>
      <point x="565" y="453" type="curve" smooth="yes"/>
      <point x="565" y="520"/>
      <point x="511" y="553"/>
      <point x="421" y="540" type="curve"/>
      <point x="399" y="509"/>
      <point x="376" y="491"/>
      <point x="351" y="491" type="curve" smooth="yes"/>
      <point x="315" y="491"/>
      <point x="264" y="564"/>
      <point x="189" y="564" type="curve" smooth="yes"/>
      <point x="113" y="564"/>
      <point x="31" y="470"/>
      <point x="31" y="417" type="curve" smooth="yes"/>
      <point x="31" y="358"/>
      <point x="115" y="316"/>
      <point x="197" y="333" type="curve"/>
      <point x="216" y="385"/>
      <point x="240" y="434"/>
      <point x="263" y="434" type="curve" smooth="yes"/>
      <point x="284" y="434"/>
      <point x="305" y="418"/>
      <point x="346" y="423" type="curve"/>
      <point x="273" y="302"/>
      <point x="179" y="215"/>
      <point x="22" y="138" type="curve"/>
      <point x="2" y="66"/>
      <point x="48" y="1"/>
      <point x="128" y="0" type="curve"/>
      <point x="170" y="30"/>
      <point x="218" y="65"/>
      <point x="244" y="65" type="curve" smooth="yes"/>
      <point x="275" y="65"/>
      <point x="325" y="0"/>
      <point x="393" y="0" type="curve" smooth="yes"/>
      <point x="476" y="0"/>
      <point x="596" y="65"/>
      <point x="596" y="126" type="curve" smooth="yes"/>
      <point x="596" y="175"/>
      <point x="566" y="201"/>
      <point x="509" y="225" type="curve"/>
      <point x="465" y="181"/>
      <point x="377" y="124"/>
    </contour>
  </outline>
</glyph>
<glyph name="bar" format="1">
  <advance width="289"/>
  <unicode hex="007C"/>
  <outline>
    <contour>
      <point x="219" y="303" type="curve" smooth="yes"/>
      <point x="243" y="443"/>
      <point x="301" y="648"/>
      <point x="301" y="672" type="curve" smooth="yes"/>
      <point x="301" y="707"/>
      <point x="207" y="769"/>
      <point x="168" y="769" type="curve" smooth="yes"/>
      <point x="126" y="769"/>
      <point x="87" y="445"/>
      <point x="72" y="356" type="curve" smooth="yes"/>
      <point x="48" y="215"/>
      <point x="-10" y="-35"/>
      <point x="-9" y="-68" type="curve" smooth="yes"/>
      <point x="-9" y="-100"/>
      <point x="77" y="-162"/>
      <point x="124" y="-162" type="curve" smooth="yes"/>
      <point x="159" y="-162"/>
      <point x="190" y="135"/>
    </contour>
  </outline>
</glyph>
<glyph name="exclamdown" format="1">
  <advance width="335"/>
  <unicode hex="00A1"/>
  <outline>
    <contour>
      <point x="39" y="43" type="curve" smooth="yes"/>
      <point x="19" y="-55"/>
      <point x="-29" y="-153"/>
      <point x="-29" y="-183" type="curve" smooth="yes"/>
      <point x="-29" y="-220"/>
      <point x="43" y="-277"/>
      <point x="92" y="-277" type="curve" smooth="yes"/>
      <point x="146" y="-277"/>
      <point x="205" y="164"/>
      <point x="204" y="218" type="curve" smooth="yes"/>
      <point x="204" y="250"/>
      <point x="128" y="308"/>
      <point x="89" y="293" type="curve" smooth="yes"/>
      <point x="59" y="282"/>
      <point x="64" y="165"/>
    </contour>
    <contour>
      <point x="58" y="463" type="curve" smooth="yes"/>
      <point x="58" y="430"/>
      <point x="93" y="362"/>
      <point x="130" y="362" type="curve" smooth="yes"/>
      <point x="182" y="362"/>
      <point x="269" y="408"/>
      <point x="269" y="443" type="curve" smooth="yes"/>
      <point x="269" y="483"/>
      <point x="225" y="552"/>
      <point x="190" y="552" type="curve" smooth="yes"/>
      <point x="147" y="552"/>
      <point x="58" y="502"/>
    </contour>
  </outline>
</glyph>
<glyph name="cent" format="1">
  <advance width="516"/>
  <unicode hex="00A2"/>
  <outline>
    <contour>
      <point x="364" y="359" type="curve"/>
      <point x="443" y="344"/>
      <point x="491" y="391"/>
      <point x="491" y="436" type="curve" smooth="yes"/>
      <point x="491" y="480"/>
      <point x="449" y="523"/>
      <point x="392" y="546" type="curve"/>
      <point x="396" y="563"/>
      <point x="398" y="577"/>
      <point x="398" y="589" type="curve" smooth="yes"/>
      <point x="398" y="616"/>
      <point x="323" y="674"/>
      <point x="278" y="674" type="curve" smooth="yes"/>
      <point x="249" y="674"/>
      <point x="240" y="624"/>
      <point x="236" y="555" type="curve"/>
      <point x="97" y="508"/>
      <point x="13" y="329"/>
      <point x="13" y="196" type="curve" smooth="yes"/>
      <point x="13" y="137"/>
      <point x="73" y="64"/>
      <point x="145" y="25" type="curve"/>
      <point x="141" y="6"/>
      <point x="136" y="-11"/>
      <point x="136" y="-25" type="curve" smooth="yes"/>
      <point x="136" y="-61"/>
      <point x="210" y="-97"/>
      <point x="265" y="-97" type="curve" smooth="yes"/>
      <point x="281" y="-97"/>
      <point x="294" y="-46"/>
      <point x="301" y="8" type="curve"/>
      <point x="385" y="27"/>
      <point x="461" y="72"/>
      <point x="459" y="123" type="curve" smooth="yes"/>
      <point x="458" y="181"/>
      <point x="414" y="217"/>
      <point x="351" y="229" type="curve"/>
      <point x="301" y="171"/>
      <point x="243" y="135"/>
      <point x="177" y="132" type="curve"/>
      <point x="166" y="236"/>
      <point x="203" y="376"/>
      <point x="309" y="445" type="curve"/>
      <point x="332" y="426"/>
      <point x="351" y="391"/>
    </contour>
  </outline>
</glyph>
<glyph name="sterling" format="1">
  <advance width="606"/>
  <unicode hex="00A3"/>
  <outline>
    <contour>
      <point x="467" y="214" type="curve"/>
      <point x="425" y="180"/>
      <point x="385" y="157"/>
      <point x="330" y="132" type="curve"/>
      <point x="250" y="173" type="line"/>
      <point x="268" y="222"/>
      <point x="279" y="258"/>
      <point x="286" y="302" type="curve"/>
      <point x="420" y="306" type="line"/>
      <point x="457" y="341"/>
      <point x="453" y="421"/>
      <point x="413" y="444" type="curve"/>
      <point x="312" y="436" type="line"/>
      <point x="323" y="501"/>
      <point x="345" y="574"/>
      <point x="391" y="600" type="curve"/>
      <point x="423" y="580"/>
      <point x="446" y="525"/>
      <point x="454" y="486" type="curve"/>
      <point x="522" y="471"/>
      <point x="573" y="496"/>
      <point x="573" y="559" type="curve" smooth="yes"/>
      <point x="573" y="629"/>
      <point x="499" y="711"/>
      <point x="393" y="711" type="curve" smooth="yes"/>
      <point x="252" y="711"/>
      <point x="212" y="597"/>
      <point x="182" y="431" type="curve"/>
      <point x="99" y="430" type="line"/>
      <point x="60" y="395"/>
      <point x="62" y="322"/>
      <point x="102" y="298" type="curve"/>
      <point x="159" y="303" type="line"/>
      <point x="156" y="282"/>
      <point x="150" y="265"/>
      <point x="140" y="239" type="curve"/>
      <point x="133" y="242"/>
      <point x="126" y="245"/>
      <point x="114" y="245" type="curve" smooth="yes"/>
      <point x="58" y="245"/>
      <point x="-10" y="163"/>
      <point x="-10" y="113" type="curve" smooth="yes"/>
      <point x="-10" y="64"/>
      <point x="68" y="-1"/>
      <point x="109" y="-1" type="curve" smooth="yes"/>
      <point x="146" y="-1"/>
      <point x="186" y="35"/>
      <point x="223" y="83" type="curve"/>
      <point x="299" y="37"/>
      <point x="360" y="0"/>
      <point x="402" y="0" type="curve" smooth="yes"/>
      <point x="440" y="0"/>
      <point x="510" y="32"/>
      <point x="558" y="76" type="curve"/>
      <point x="579" y="145"/>
      <point x="540" y="206"/>
    </contour>
  </outline>
</glyph>
<glyph name="currency" format="1">
  <advance width="640"/>
  <unicode hex="00A4"/>
  <outline>
    <contour>
      <point x="573" y="612" type="curve" smooth="yes"/>
      <point x="555" y="622"/>
      <point x="516" y="593"/>
      <point x="464" y="545" type="curve"/>
      <point x="392" y="594"/>
      <point x="289" y="586"/>
      <point x="223" y="531" type="curve"/>
      <point x="174" y="587"/>
      <point x="136" y="622"/>
      <point x="118" y="612" type="curve" smooth="yes"/>
      <point x="80" y="592"/>
      <point x="43" y="503"/>
      <point x="57" y="475" type="curve"/>
      <point x="65" y="457"/>
      <point x="95" y="424"/>
      <point x="137" y="381" type="curve"/>
      <point x="122" y="335"/>
      <point x="114" y="290"/>
      <point x="111" y="248" type="curve"/>
      <point x="68" y="217"/>
      <point x="30" y="184"/>
      <point x="29" y="167" type="curve" smooth="yes"/>
      <point x="28" y="127"/>
      <point x="71" y="50"/>
      <point x="98" y="50" type="curve" smooth="yes"/>
      <point x="113" y="50"/>
      <point x="147" y="74"/>
      <point x="186" y="109" type="curve"/>
      <point x="216" y="86"/>
      <point x="249" y="70"/>
      <point x="280" y="70" type="curve" smooth="yes"/>
      <point x="334" y="70"/>
      <point x="383" y="92"/>
      <point x="423" y="126" type="curve"/>
      <point x="460" y="83"/>
      <point x="495" y="52"/>
      <point x="512" y="50" type="curve" smooth="yes"/>
      <point x="539" y="48"/>
      <point x="593" y="122"/>
      <point x="597" y="162" type="curve" smooth="yes"/>
      <point x="599" y="180"/>
      <point x="561" y="219"/>
      <point x="518" y="255" type="curve"/>
      <point x="540" y="301"/>
      <point x="553" y="349"/>
      <point x="554" y="390" type="curve" smooth="yes"/>
      <point x="554" y="397"/>
      <point x="554" y="404"/>
      <point x="553" y="410" type="curve"/>
      <point x="584" y="437"/>
      <point x="606" y="458"/>
      <point x="614" y="471" type="curve" smooth="yes"/>
      <point x="632" y="498"/>
      <point x="607" y="589"/>
    </contour>
    <contour>
      <point x="296" y="424" type="curve"/>
      <point x="338" y="452"/>
      <point x="388" y="450"/>
      <point x="433" y="416" type="curve"/>
      <point x="413" y="307"/>
      <point x="359" y="213"/>
      <point x="251" y="176" type="curve"/>
      <point x="241" y="253"/>
      <point x="261" y="338"/>
    </contour>
  </outline>
</glyph>
<glyph name="yen" format="1">
  <advance width="573"/>
  <unicode hex="00A5"/>
  <outline>
    <contour>
      <point x="519" y="437" type="curve"/>
      <point x="460" y="431" type="line"/>
      <point x="500" y="493"/>
      <point x="527" y="532"/>
      <point x="573" y="592" type="curve"/>
      <point x="562" y="670"/>
      <point x="504" y="717"/>
      <point x="396" y="679" type="curve"/>
      <point x="357" y="556"/>
      <point x="335" y="486"/>
      <point x="281" y="377" type="curve"/>
      <point x="248" y="494"/>
      <point x="233" y="678"/>
      <point x="194" y="678" type="curve" smooth="yes"/>
      <point x="138" y="678"/>
      <point x="58" y="617"/>
      <point x="58" y="582" type="curve" smooth="yes"/>
      <point x="58" y="548"/>
      <point x="88" y="485"/>
      <point x="125" y="411" type="curve"/>
      <point x="61" y="410" type="line"/>
      <point x="13" y="365"/>
      <point x="27" y="304"/>
      <point x="74" y="281" type="curve"/>
      <point x="188" y="288" type="line"/>
      <point x="179" y="242" type="line"/>
      <point x="138" y="241"/>
      <point x="90" y="240"/>
      <point x="41" y="240" type="curve"/>
      <point x="-7" y="195"/>
      <point x="7" y="134"/>
      <point x="54" y="111" type="curve"/>
      <point x="149" y="117" type="line"/>
      <point x="147" y="108"/>
      <point x="147" y="100"/>
      <point x="147" y="94" type="curve" smooth="yes"/>
      <point x="147" y="62"/>
      <point x="233" y="0"/>
      <point x="280" y="0" type="curve" smooth="yes"/>
      <point x="303" y="0"/>
      <point x="309" y="49"/>
      <point x="318" y="127" type="curve"/>
      <point x="391" y="131"/>
      <point x="461" y="135"/>
      <point x="508" y="137" type="curve"/>
      <point x="546" y="173"/>
      <point x="550" y="238"/>
      <point x="499" y="267" type="curve"/>
      <point x="458" y="263"/>
      <point x="402" y="259"/>
      <point x="336" y="255" type="curve"/>
      <point x="348" y="297" type="line"/>
      <point x="528" y="307" type="line"/>
      <point x="566" y="343"/>
      <point x="570" y="408"/>
    </contour>
  </outline>
</glyph>
<glyph name="dieresis" format="1">
  <advance width="469"/>
  <unicode hex="00A8"/>
  <outline>
    <contour>
      <point x="310" y="593" type="move" name="_top"/>
    </contour>
    <contour>
      <point x="274" y="719" type="curve" smooth="yes"/>
      <point x="260" y="761"/>
      <point x="168" y="784"/>
      <point x="132" y="768" type="curve" smooth="yes"/>
      <point x="104" y="753"/>
      <point x="85" y="713"/>
      <point x="85" y="679" type="curve" smooth="yes"/>
      <point x="85" y="646"/>
      <point x="152" y="593"/>
      <point x="190" y="593" type="curve" smooth="yes"/>
      <point x="235" y="593"/>
      <point x="287" y="679"/>
    </contour>
    <contour>
      <point x="514" y="719" type="curve" smooth="yes"/>
      <point x="500" y="761"/>
      <point x="408" y="784"/>
      <point x="372" y="768" type="curve" smooth="yes"/>
      <point x="344" y="753"/>
      <point x="325" y="713"/>
      <point x="325" y="679" type="curve" smooth="yes"/>
      <point x="325" y="646"/>
      <point x="392" y="593"/>
      <point x="430" y="593" type="curve" smooth="yes"/>
      <point x="475" y="593"/>
      <point x="527" y="679"/>
    </contour>
  </outline>
</glyph>
<glyph name="degree" format="1">
  <advance width="335"/>
  <unicode hex="00B0"/>
  <outline>
    <contour>
      <point x="164" y="636" type="curve"/>
      <point x="203" y="642"/>
      <point x="243" y="639"/>
      <point x="271" y="623" type="curve"/>
      <point x="258" y="552"/>
      <point x="222" y="505"/>
      <point x="166" y="485" type="curve"/>
      <point x="159" y="530"/>
      <point x="170" y="580"/>
      <point x="197" y="616" type="curve"/>
      <point x="197" y="659"/>
      <point x="143" y="681"/>
      <point x="98" y="655" type="curve"/>
      <point x="73" y="612"/>
      <point x="60" y="565"/>
      <point x="60" y="515" type="curve" smooth="yes"/>
      <point x="60" y="473"/>
      <point x="131" y="414"/>
      <point x="183" y="414" type="curve" smooth="yes"/>
      <point x="293" y="414"/>
      <point x="365" y="531"/>
      <point x="365" y="608" type="curve" smooth="yes"/>
      <point x="365" y="662"/>
      <point x="296" y="725"/>
      <point x="202" y="734" type="curve"/>
      <point x="144" y="719"/>
      <point x="126" y="674"/>
    </contour>
  </outline>
</glyph>
<glyph name="mu.math" format="1">
  <advance width="772"/>
  <unicode hex="00B5"/>
  <outline>
    <contour>
      <point x="551" y="147" type="curve"/>
      <point x="582" y="238"/>
      <point x="641" y="396"/>
      <point x="642" y="437" type="curve" smooth="yes"/>
      <point x="642" y="464"/>
      <point x="565" y="537"/>
      <point x="509" y="537" type="curve" smooth="yes"/>
      <point x="484" y="537"/>
      <point x="465" y="469"/>
      <point x="462" y="384" type="curve"/>
      <point x="406" y="259"/>
      <point x="280" y="139"/>
      <point x="256" y="139" type="curve" smooth="yes"/>
      <point x="229" y="139"/>
      <point x="345" y="358"/>
      <point x="345" y="464" type="curve" smooth="yes"/>
      <point x="345" y="490"/>
      <point x="285" y="555"/>
      <point x="241" y="555" type="curve" smooth="yes"/>
      <point x="202" y="555"/>
      <point x="187" y="410"/>
      <point x="115" y="226" type="curve" smooth="yes"/>
      <point x="37" y="26"/>
      <point x="-39" y="-85"/>
      <point x="-39" y="-118" type="curve" smooth="yes"/>
      <point x="-39" y="-139"/>
      <point x="21" y="-209"/>
      <point x="59" y="-209" type="curve" smooth="yes"/>
      <point x="93" y="-209"/>
      <point x="144" y="-85"/>
      <point x="192" y="34" type="curve"/>
      <point x="210" y="17"/>
      <point x="229" y="0"/>
      <point x="251" y="0" type="curve" smooth="yes"/>
      <point x="323" y="0"/>
      <point x="372" y="77"/>
      <point x="435" y="193" type="curve"/>
      <point x="460" y="179" type="line"/>
      <point x="442" y="145"/>
      <point x="421" y="110"/>
      <point x="421" y="91" type="curve" smooth="yes"/>
      <point x="421" y="68"/>
      <point x="501" y="0"/>
      <point x="545" y="0" type="curve" smooth="yes"/>
      <point x="610" y="0"/>
      <point x="740" y="57"/>
      <point x="740" y="109" type="curve" smooth="yes"/>
      <point x="740" y="153"/>
      <point x="713" y="190"/>
      <point x="653" y="211" type="curve"/>
      <point x="620" y="184"/>
      <point x="592" y="165"/>
    </contour>
  </outline>
</glyph>
<glyph name="paragraph" format="1">
  <advance width="773"/>
  <unicode hex="00B6"/>
  <outline>
    <contour>
      <point x="190" y="-159" type="curve" smooth="yes"/>
      <point x="306" y="-159"/>
      <point x="372" y="-66"/>
      <point x="396" y="74" type="curve" smooth="yes"/>
      <point x="424" y="239"/>
      <point x="450" y="446"/>
      <point x="467" y="572" type="curve"/>
      <point x="580" y="566" type="line"/>
      <point x="545" y="267"/>
      <point x="479" y="-6"/>
      <point x="479" y="-50" type="curve" smooth="yes"/>
      <point x="479" y="-94"/>
      <point x="553" y="-159"/>
      <point x="602" y="-159" type="curve" smooth="yes"/>
      <point x="642" y="-159"/>
      <point x="663" y="80"/>
      <point x="685" y="224" type="curve" smooth="yes"/>
      <point x="703" y="344"/>
      <point x="732" y="534"/>
      <point x="739" y="581" type="curve" smooth="yes"/>
      <point x="746" y="629"/>
      <point x="698" y="699"/>
      <point x="658" y="703" type="curve" smooth="yes"/>
      <point x="585" y="710"/>
      <point x="515" y="712"/>
      <point x="449" y="715" type="curve" smooth="yes"/>
      <point x="171" y="726"/>
      <point x="58" y="629"/>
      <point x="47" y="512" type="curve" smooth="yes"/>
      <point x="36" y="394"/>
      <point x="121" y="301"/>
      <point x="275" y="284" type="curve"/>
      <point x="252" y="75"/>
      <point x="218" y="3"/>
      <point x="98" y="0" type="curve"/>
      <point x="47" y="-93"/>
      <point x="109" y="-159"/>
    </contour>
  </outline>
</glyph>
<glyph name="ordmasculine" format="1">
  <advance width="368"/>
  <unicode hex="00BA"/>
  <outline>
    <contour>
      <point x="393" y="583" type="curve" smooth="yes"/>
      <point x="391" y="651"/>
      <point x="309" y="722"/>
      <point x="204" y="734" type="curve"/>
      <point x="144" y="716"/>
      <point x="128" y="660"/>
      <point x="170" y="617" type="curve"/>
      <point x="216" y="625"/>
      <point x="266" y="619"/>
      <point x="295" y="600" type="curve"/>
      <point x="282" y="515"/>
      <point x="246" y="467"/>
      <point x="170" y="440" type="curve"/>
      <point x="159" y="494"/>
      <point x="169" y="550"/>
      <point x="199" y="595" type="curve"/>
      <point x="200" y="646"/>
      <point x="145" y="671"/>
      <point x="93" y="645" type="curve"/>
      <point x="67" y="594"/>
      <point x="56" y="536"/>
      <point x="57" y="476" type="curve" smooth="yes"/>
      <point x="58" y="423"/>
      <point x="134" y="359"/>
      <point x="194" y="359" type="curve" smooth="yes"/>
      <point x="318" y="359"/>
      <point x="395" y="491"/>
    </contour>
  </outline>
</glyph>
<glyph name="onequarter" format="1">
  <advance width="977"/>
  <unicode hex="00BC"/>
  <outline>
    <contour>
      <point x="937" y="233" type="curve" smooth="yes"/>
      <point x="937" y="255"/>
      <point x="891" y="288"/>
      <point x="858" y="288" type="curve" smooth="yes"/>
      <point x="830" y="288"/>
      <point x="834" y="233"/>
      <point x="826" y="201" type="curve"/>
      <point x="786" y="194"/>
      <point x="738" y="193"/>
      <point x="695" y="196" type="curve"/>
      <point x="741" y="261"/>
      <point x="807" y="322"/>
      <point x="880" y="375" type="curve"/>
      <point x="885" y="423"/>
      <point x="857" y="450"/>
      <point x="811" y="450" type="curve" smooth="yes"/>
      <point x="740" y="450"/>
      <point x="598" y="241"/>
      <point x="598" y="201" type="curve" smooth="yes"/>
      <point x="598" y="168"/>
      <point x="636" y="123"/>
      <point x="667" y="109" type="curve" smooth="yes"/>
      <point x="689" y="102"/>
      <point x="758" y="102"/>
      <point x="809" y="113" type="curve"/>
      <point x="807" y="100"/>
      <point x="797" y="73"/>
      <point x="797" y="60" type="curve" smooth="yes"/>
      <point x="797" y="39"/>
      <point x="848" y="0"/>
      <point x="877" y="0" type="curve" smooth="yes"/>
      <point x="904" y="0"/>
      <point x="937" y="177"/>
    </contour>
    <contour>
      <point x="244" y="601" type="line"/>
      <point x="203" y="516"/>
      <point x="159" y="374"/>
      <point x="158" y="349" type="curve" smooth="yes"/>
      <point x="158" y="326"/>
      <point x="221" y="283"/>
      <point x="261" y="283" type="curve" smooth="yes"/>
      <point x="294" y="283"/>
      <point x="285" y="363"/>
      <point x="305" y="468" type="curve" smooth="yes"/>
      <point x="319" y="540"/>
      <point x="352" y="628"/>
      <point x="352" y="657" type="curve" smooth="yes"/>
      <point x="353" y="687"/>
      <point x="293" y="733"/>
      <point x="254" y="733" type="curve" smooth="yes"/>
      <point x="216" y="733"/>
      <point x="79" y="651"/>
      <point x="79" y="619" type="curve" smooth="yes"/>
      <point x="78" y="586"/>
      <point x="119" y="539"/>
      <point x="144" y="539" type="curve" smooth="yes"/>
      <point x="169" y="539"/>
      <point x="205" y="575"/>
      <point x="233" y="607" type="curve"/>
    </contour>
    <contour>
      <point x="631" y="754" type="curve" smooth="yes"/>
      <point x="596" y="754"/>
      <point x="512" y="540"/>
      <point x="413" y="351" type="curve" smooth="yes"/>
      <point x="336" y="203"/>
      <point x="240" y="71"/>
      <point x="240" y="32" type="curve" smooth="yes"/>
      <point x="240" y="7"/>
      <point x="289" y="-43"/>
      <point x="322" y="-43" type="curve" smooth="yes"/>
      <point x="353" y="-43"/>
      <point x="442" y="152"/>
      <point x="525" y="310" type="curve" smooth="yes"/>
      <point x="617" y="484"/>
      <point x="704" y="630"/>
      <point x="704" y="670" type="curve" smooth="yes"/>
      <point x="704" y="698"/>
      <point x="664" y="754"/>
    </contour>
  </outline>
</glyph>
<glyph name="onehalf" format="1">
  <advance width="1025"/>
  <unicode hex="00BD"/>
  <outline>
    <contour>
      <point x="244" y="601" type="line"/>
      <point x="203" y="516"/>
      <point x="159" y="374"/>
      <point x="158" y="349" type="curve" smooth="yes"/>
      <point x="158" y="326"/>
      <point x="221" y="283"/>
      <point x="261" y="283" type="curve" smooth="yes"/>
      <point x="294" y="283"/>
      <point x="285" y="363"/>
      <point x="305" y="468" type="curve" smooth="yes"/>
      <point x="319" y="540"/>
      <point x="352" y="628"/>
      <point x="352" y="657" type="curve" smooth="yes"/>
      <point x="353" y="687"/>
      <point x="293" y="733"/>
      <point x="254" y="733" type="curve" smooth="yes"/>
      <point x="216" y="733"/>
      <point x="79" y="651"/>
      <point x="79" y="619" type="curve" smooth="yes"/>
      <point x="78" y="586"/>
      <point x="119" y="539"/>
      <point x="144" y="539" type="curve" smooth="yes"/>
      <point x="169" y="539"/>
      <point x="205" y="575"/>
      <point x="233" y="607" type="curve"/>
    </contour>
    <contour>
      <point x="631" y="754" type="curve" smooth="yes"/>
      <point x="596" y="754"/>
      <point x="512" y="540"/>
      <point x="413" y="351" type="curve" smooth="yes"/>
      <point x="336" y="203"/>
      <point x="240" y="71"/>
      <point x="240" y="32" type="curve" smooth="yes"/>
      <point x="240" y="7"/>
      <point x="289" y="-43"/>
      <point x="322" y="-43" type="curve" smooth="yes"/>
      <point x="353" y="-43"/>
      <point x="442" y="152"/>
      <point x="525" y="310" type="curve" smooth="yes"/>
      <point x="617" y="484"/>
      <point x="704" y="630"/>
      <point x="704" y="670" type="curve" smooth="yes"/>
      <point x="704" y="698"/>
      <point x="664" y="754"/>
    </contour>
    <contour>
      <point x="940" y="35" type="curve"/>
      <point x="977" y="78"/>
      <point x="951" y="143"/>
      <point x="907" y="143" type="curve" smooth="yes"/>
      <point x="879" y="143"/>
      <point x="784" y="119"/>
      <point x="728" y="96" type="curve"/>
      <point x="723" y="104" type="line"/>
      <point x="885" y="195"/>
      <point x="965" y="272"/>
      <point x="967" y="342" type="curve" smooth="yes"/>
      <point x="968" y="396"/>
      <point x="908" y="450"/>
      <point x="856" y="450" type="curve" smooth="yes"/>
      <point x="751" y="450"/>
      <point x="664" y="416"/>
      <point x="660" y="362" type="curve" smooth="yes"/>
      <point x="658" y="327"/>
      <point x="687" y="299"/>
      <point x="723" y="293" type="curve"/>
      <point x="772" y="327"/>
      <point x="801" y="336"/>
      <point x="863" y="348" type="curve"/>
      <point x="808" y="229"/>
      <point x="614" y="168"/>
      <point x="612" y="110" type="curve" smooth="yes"/>
      <point x="611" y="68"/>
      <point x="659" y="0"/>
      <point x="699" y="0" type="curve" smooth="yes"/>
      <point x="760" y="0"/>
      <point x="873" y="24"/>
    </contour>
  </outline>
</glyph>
<glyph name="Adieresis" format="1">
  <advance width="556"/>
  <unicode hex="00C4"/>
  <outline>
    <contour>
      <point x="491" y="0" type="move" name="ogonek"/>
    </contour>
    <contour>
      <point x="371" y="733" type="move" name="top"/>
    </contour>
    <contour>
      <point x="-27" y="78" type="curve"/>
      <point x="-10" y="7"/>
      <point x="50" y="-13"/>
      <point x="127" y="5" type="curve"/>
      <point x="185" y="162"/>
      <point x="249" y="357"/>
      <point x="328" y="544" type="curve"/>
      <point x="336" y="396"/>
      <point x="327" y="98"/>
      <point x="335" y="68" type="curve" smooth="yes"/>
      <point x="344" y="34"/>
      <point x="451" y="-8"/>
      <point x="490" y="1" type="curve" smooth="yes"/>
      <point x="520" y="10"/>
      <point x="490" y="222"/>
      <point x="481" y="327" type="curve" smooth="yes"/>
      <point x="471" y="450"/>
      <point x="450" y="586"/>
      <point x="443" y="616" type="curve" smooth="yes"/>
      <point x="434" y="650"/>
      <point x="327" y="700"/>
      <point x="288" y="700" type="curve" smooth="yes"/>
      <point x="248" y="700"/>
      <point x="59" y="270"/>
    </contour>
    <contour>
      <point x="409" y="340" type="line"/>
      <point x="331" y="328"/>
      <point x="225" y="318"/>
      <point x="158" y="316" type="curve"/>
      <point x="113" y="274"/>
      <point x="123" y="209"/>
      <point x="167" y="177" type="curve"/>
      <point x="211" y="179"/>
      <point x="315" y="191"/>
      <point x="382" y="201" type="curve"/>
    </contour>
    <contour>
      <point x="335" y="859" type="curve" smooth="yes"/>
      <point x="321" y="901"/>
      <point x="229" y="924"/>
      <point x="193" y="908" type="curve" smooth="yes"/>
      <point x="165" y="893"/>
      <point x="146" y="853"/>
      <point x="146" y="819" type="curve" smooth="yes"/>
      <point x="146" y="786"/>
      <point x="213" y="733"/>
      <point x="251" y="733" type="curve" smooth="yes"/>
      <point x="296" y="733"/>
      <point x="348" y="819"/>
    </contour>
    <contour>
      <point x="575" y="859" type="curve" smooth="yes"/>
      <point x="561" y="901"/>
      <point x="469" y="924"/>
      <point x="433" y="908" type="curve" smooth="yes"/>
      <point x="405" y="893"/>
      <point x="386" y="853"/>
      <point x="386" y="819" type="curve" smooth="yes"/>
      <point x="386" y="786"/>
      <point x="453" y="733"/>
      <point x="491" y="733" type="curve" smooth="yes"/>
      <point x="536" y="733"/>
      <point x="588" y="819"/>
    </contour>
  </outline>
</glyph>
<glyph name="AE" format="1">
  <advance width="788"/>
  <unicode hex="00C6"/>
  <outline>
    <contour>
      <point x="505" y="689" type="curve" smooth="yes"/>
      <point x="405" y="689"/>
      <point x="339" y="700"/>
      <point x="308" y="700" type="curve" smooth="yes"/>
      <point x="248" y="700"/>
      <point x="59" y="270"/>
      <point x="-27" y="78" type="curve"/>
      <point x="-10" y="7"/>
      <point x="50" y="-13"/>
      <point x="127" y="5" type="curve"/>
      <point x="147" y="59"/>
      <point x="168" y="117"/>
      <point x="189" y="178" type="curve"/>
      <point x="243" y="183"/>
      <point x="300" y="190"/>
      <point x="345" y="196" type="curve"/>
      <point x="333" y="146"/>
      <point x="325" y="91"/>
      <point x="329" y="74" type="curve" smooth="yes"/>
      <point x="335" y="50"/>
      <point x="411" y="0"/>
      <point x="449" y="0" type="curve" smooth="yes"/>
      <point x="528" y="0"/>
      <point x="625" y="8"/>
      <point x="702" y="24" type="curve"/>
      <point x="753" y="74"/>
      <point x="739" y="155"/>
      <point x="674" y="183" type="curve"/>
      <point x="593" y="157"/>
      <point x="541" y="145"/>
      <point x="459" y="137" type="curve"/>
      <point x="488" y="279" type="line"/>
      <point x="547" y="284"/>
      <point x="633" y="289"/>
      <point x="688" y="293" type="curve"/>
      <point x="731" y="325"/>
      <point x="732" y="406"/>
      <point x="679" y="442" type="curve"/>
      <point x="632" y="425"/>
      <point x="574" y="417"/>
      <point x="497" y="412" type="curve"/>
      <point x="523" y="549" type="line"/>
      <point x="590" y="556"/>
      <point x="685" y="560"/>
      <point x="757" y="564" type="curve"/>
      <point x="795" y="600"/>
      <point x="799" y="681"/>
      <point x="748" y="710" type="curve"/>
      <point x="652" y="694"/>
      <point x="572" y="689"/>
    </contour>
    <contour>
      <point x="359" y="332" type="curve"/>
      <point x="332" y="329"/>
      <point x="274" y="324"/>
      <point x="241" y="321" type="curve"/>
      <point x="272" y="405"/>
      <point x="303" y="476"/>
      <point x="346" y="556" type="curve"/>
      <point x="357" y="468"/>
      <point x="362" y="401"/>
    </contour>
  </outline>
</glyph>
<glyph name="Ccedilla" format="1">
  <advance width="547"/>
  <unicode hex="00C7"/>
  <outline>
    <contour>
      <point x="348" y="733" type="move" name="top"/>
    </contour>
    <contour>
      <point x="316" y="0" type="move" name="bottom"/>
    </contour>
    <contour>
      <point x="401" y="249" type="curve"/>
      <point x="350" y="205"/>
      <point x="276" y="163"/>
      <point x="182" y="146" type="curve"/>
      <point x="186" y="317"/>
      <point x="267" y="575"/>
      <point x="338" y="575" type="curve" smooth="yes"/>
      <point x="370" y="575"/>
      <point x="369" y="524"/>
      <point x="366" y="451" type="curve"/>
      <point x="443" y="423"/>
      <point x="532" y="445"/>
      <point x="531" y="523" type="curve" smooth="yes"/>
      <point x="531" y="599"/>
      <point x="448" y="710"/>
      <point x="335" y="710" type="curve" smooth="yes"/>
      <point x="118" y="710"/>
      <point x="20" y="378"/>
      <point x="19" y="185" type="curve" smooth="yes"/>
      <point x="19" y="112"/>
      <point x="147" y="-5"/>
      <point x="219" y="-5" type="curve" smooth="yes"/>
      <point x="316" y="-5"/>
      <point x="444" y="57"/>
      <point x="484" y="97" type="curve"/>
      <point x="513" y="156"/>
      <point x="484" y="229"/>
    </contour>
    <contour>
      <point x="225" y="64" type="line"/>
      <point x="148" y="-91" type="line"/>
      <point x="151" y="-125"/>
      <point x="189" y="-146"/>
      <point x="226" y="-141" type="curve"/>
      <point x="239" y="-132"/>
      <point x="252" y="-124"/>
      <point x="273" y="-120" type="curve"/>
      <point x="288" y="-131"/>
      <point x="295" y="-144"/>
      <point x="295" y="-157" type="curve" smooth="yes"/>
      <point x="295" y="-188"/>
      <point x="261" y="-210"/>
      <point x="210" y="-210" type="curve" smooth="yes"/>
      <point x="173" y="-210"/>
      <point x="130" y="-196"/>
      <point x="95" y="-165" type="curve"/>
      <point x="59" y="-161"/>
      <point x="39" y="-191"/>
      <point x="45" y="-221" type="curve"/>
      <point x="92" y="-276"/>
      <point x="164" y="-300"/>
      <point x="233" y="-300" type="curve" smooth="yes"/>
      <point x="362" y="-300"/>
      <point x="436" y="-234"/>
      <point x="436" y="-158" type="curve" smooth="yes"/>
      <point x="436" y="-89"/>
      <point x="382" y="-43"/>
      <point x="315" y="-43" type="curve" smooth="yes"/>
      <point x="298" y="-43"/>
      <point x="279" y="-46"/>
      <point x="261" y="-53" type="curve"/>
      <point x="314" y="35" type="line"/>
    </contour>
  </outline>
</glyph>
<glyph name="Ecircumflex" format="1">
  <advance width="553"/>
  <unicode hex="00CA"/>
  <outline>
    <contour>
      <point x="441" y="0" type="move" name="ogonek"/>
    </contour>
    <contour>
      <point x="351" y="733" type="move" name="top"/>
    </contour>
    <contour>
      <point x="99" y="679" type="curve"/>
      <point x="50" y="630"/>
      <point x="64" y="559"/>
      <point x="110" y="536" type="curve"/>
      <point x="152" y="539" type="line"/>
      <point x="143" y="484"/>
      <point x="133" y="438"/>
      <point x="120" y="371" type="curve" smooth="yes"/>
      <point x="99" y="260"/>
      <point x="64" y="126"/>
      <point x="64" y="101" type="curve" smooth="yes"/>
      <point x="64" y="66"/>
      <point x="149" y="0"/>
      <point x="185" y="0" type="curve" smooth="yes"/>
      <point x="261" y="0"/>
      <point x="377" y="6"/>
      <point x="467" y="24" type="curve"/>
      <point x="518" y="74"/>
      <point x="504" y="155"/>
      <point x="439" y="183" type="curve"/>
      <point x="364" y="157"/>
      <point x="303" y="145"/>
      <point x="224" y="137" type="curve"/>
      <point x="232" y="177"/>
      <point x="242" y="223"/>
      <point x="252" y="275" type="curve"/>
      <point x="312" y="280"/>
      <point x="398" y="285"/>
      <point x="453" y="289" type="curve"/>
      <point x="496" y="321"/>
      <point x="497" y="402"/>
      <point x="444" y="432" type="curve"/>
      <point x="397" y="421"/>
      <point x="339" y="413"/>
      <point x="275" y="408" type="curve"/>
      <point x="286" y="463"/>
      <point x="295" y="501"/>
      <point x="307" y="544" type="curve"/>
      <point x="373" y="550"/>
      <point x="463" y="553"/>
      <point x="522" y="554" type="curve"/>
      <point x="560" y="590"/>
      <point x="564" y="671"/>
      <point x="513" y="700" type="curve"/>
      <point x="401" y="684"/>
      <point x="230" y="681"/>
    </contour>
    <contour>
      <point x="310" y="979" type="curve"/>
      <point x="101" y="812" type="line"/>
      <point x="101" y="751"/>
      <point x="166" y="718"/>
      <point x="238" y="733" type="curve"/>
      <point x="288" y="794"/>
      <point x="324" y="837"/>
      <point x="378" y="892" type="curve"/>
      <point x="463" y="736" type="line"/>
      <point x="523" y="724"/>
      <point x="560" y="741"/>
      <point x="575" y="785" type="curve"/>
      <point x="448" y="950" type="line"/>
      <point x="414" y="976"/>
      <point x="358" y="984"/>
    </contour>
  </outline>
</glyph>
<glyph name="Igrave" format="1">
  <advance width="283"/>
  <unicode hex="00CC"/>
  <outline>
    <contour>
      <point x="231" y="0" type="move" name="ogonek"/>
    </contour>
    <contour>
      <point x="211" y="733" type="move" name="top"/>
    </contour>
    <contour>
      <point x="213" y="303" type="curve" smooth="yes"/>
      <point x="238" y="443"/>
      <point x="284" y="579"/>
      <point x="284" y="603" type="curve" smooth="yes"/>
      <point x="284" y="638"/>
      <point x="190" y="700"/>
      <point x="151" y="700" type="curve" smooth="yes"/>
      <point x="120" y="700"/>
      <point x="90" y="490"/>
      <point x="74" y="401" type="curve" smooth="yes"/>
      <point x="50" y="260"/>
      <point x="17" y="127"/>
      <point x="18" y="94" type="curve" smooth="yes"/>
      <point x="18" y="62"/>
      <point x="104" y="0"/>
      <point x="151" y="0" type="curve" smooth="yes"/>
      <point x="186" y="0"/>
      <point x="184" y="135"/>
    </contour>
    <contour>
      <point x="237" y="846" type="line"/>
      <point x="233" y="885"/>
      <point x="232" y="924"/>
      <point x="229" y="965" type="curve"/>
      <point x="158" y="1004"/>
      <point x="76" y="982"/>
      <point x="52" y="902" type="curve"/>
      <point x="76" y="862"/>
      <point x="130" y="783"/>
      <point x="173" y="734" type="curve"/>
      <point x="223" y="723"/>
      <point x="259" y="741"/>
      <point x="268" y="777" type="curve"/>
    </contour>
  </outline>
</glyph>
<glyph name="Idieresis" format="1">
  <advance width="283"/>
  <unicode hex="00CF"/>
  <outline>
    <contour>
      <point x="231" y="0" type="move" name="ogonek"/>
    </contour>
    <contour>
      <point x="211" y="733" type="move" name="top"/>
    </contour>
    <contour>
      <point x="213" y="303" type="curve" smooth="yes"/>
      <point x="238" y="443"/>
      <point x="284" y="579"/>
      <point x="284" y="603" type="curve" smooth="yes"/>
      <point x="284" y="638"/>
      <point x="190" y="700"/>
      <point x="151" y="700" type="curve" smooth="yes"/>
      <point x="120" y="700"/>
      <point x="90" y="490"/>
      <point x="74" y="401" type="curve" smooth="yes"/>
      <point x="50" y="260"/>
      <point x="17" y="127"/>
      <point x="18" y="94" type="curve" smooth="yes"/>
      <point x="18" y="62"/>
      <point x="104" y="0"/>
      <point x="151" y="0" type="curve" smooth="yes"/>
      <point x="186" y="0"/>
      <point x="184" y="135"/>
    </contour>
    <contour>
      <point x="175" y="859" type="curve" smooth="yes"/>
      <point x="161" y="901"/>
      <point x="69" y="924"/>
      <point x="33" y="908" type="curve" smooth="yes"/>
      <point x="5" y="893"/>
      <point x="-14" y="853"/>
      <point x="-14" y="819" type="curve" smooth="yes"/>
      <point x="-14" y="786"/>
      <point x="53" y="733"/>
      <point x="91" y="733" type="curve" smooth="yes"/>
      <point x="136" y="733"/>
      <point x="188" y="819"/>
    </contour>
    <contour>
      <point x="415" y="859" type="curve" smooth="yes"/>
      <point x="401" y="901"/>
      <point x="309" y="924"/>
      <point x="273" y="908" type="curve" smooth="yes"/>
      <point x="245" y="893"/>
      <point x="226" y="853"/>
      <point x="226" y="819" type="curve" smooth="yes"/>
      <point x="226" y="786"/>
      <point x="293" y="733"/>
      <point x="331" y="733" type="curve" smooth="yes"/>
      <point x="376" y="733"/>
      <point x="428" y="819"/>
    </contour>
  </outline>
</glyph>
<glyph name="Ograve" format="1">
  <advance width="571"/>
  <unicode hex="00D2"/>
  <outline>
    <contour>
      <point x="366" y="733" type="move" name="top"/>
    </contour>
    <contour>
      <point x="112" y="593" type="curve"/>
      <point x="74" y="507"/>
      <point x="15" y="269"/>
      <point x="15" y="191" type="curve" smooth="yes"/>
      <point x="15" y="117"/>
      <point x="142" y="-5"/>
      <point x="224" y="-5" type="curve" smooth="yes"/>
      <point x="385" y="-5"/>
      <point x="564" y="267"/>
      <point x="564" y="463" type="curve" smooth="yes"/>
      <point x="564" y="590"/>
      <point x="430" y="710"/>
      <point x="281" y="710" type="curve"/>
      <point x="205" y="685"/>
      <point x="182" y="595"/>
      <point x="234" y="532" type="curve"/>
      <point x="316" y="535"/>
      <point x="390" y="513"/>
      <point x="431" y="485" type="curve"/>
      <point x="399" y="345"/>
      <point x="317" y="182"/>
      <point x="178" y="132" type="curve"/>
      <point x="176" y="261"/>
      <point x="205" y="386"/>
      <point x="267" y="502" type="curve"/>
      <point x="262" y="583"/>
      <point x="216" y="624"/>
    </contour>
    <contour>
      <point x="392" y="846" type="line"/>
      <point x="388" y="885"/>
      <point x="387" y="924"/>
      <point x="384" y="965" type="curve"/>
      <point x="313" y="1004"/>
      <point x="231" y="982"/>
      <point x="207" y="902" type="curve"/>
      <point x="231" y="862"/>
      <point x="285" y="783"/>
      <point x="328" y="734" type="curve"/>
      <point x="378" y="723"/>
      <point x="414" y="741"/>
      <point x="423" y="777" type="curve"/>
    </contour>
  </outline>
</glyph>
<glyph name="Oacute" format="1">
  <advance width="571"/>
  <unicode hex="00D3"/>
  <outline>
    <contour>
      <point x="366" y="733" type="move" name="top"/>
    </contour>
    <contour>
      <point x="112" y="593" type="curve"/>
      <point x="74" y="507"/>
      <point x="15" y="269"/>
      <point x="15" y="191" type="curve" smooth="yes"/>
      <point x="15" y="117"/>
      <point x="142" y="-5"/>
      <point x="224" y="-5" type="curve" smooth="yes"/>
      <point x="385" y="-5"/>
      <point x="564" y="267"/>
      <point x="564" y="463" type="curve" smooth="yes"/>
      <point x="564" y="590"/>
      <point x="430" y="710"/>
      <point x="281" y="710" type="curve"/>
      <point x="205" y="685"/>
      <point x="182" y="595"/>
      <point x="234" y="532" type="curve"/>
      <point x="316" y="535"/>
      <point x="390" y="513"/>
      <point x="431" y="485" type="curve"/>
      <point x="399" y="345"/>
      <point x="317" y="182"/>
      <point x="178" y="132" type="curve"/>
      <point x="176" y="261"/>
      <point x="205" y="386"/>
      <point x="267" y="502" type="curve"/>
      <point x="262" y="583"/>
      <point x="216" y="624"/>
    </contour>
    <contour>
      <point x="341" y="856" type="curve"/>
      <point x="326" y="831"/>
      <point x="314" y="808"/>
      <point x="292" y="780" type="curve"/>
      <point x="300" y="741"/>
      <point x="335" y="725"/>
      <point x="377" y="731" type="curve"/>
      <point x="434" y="786"/>
      <point x="484" y="844"/>
      <point x="525" y="901" type="curve"/>
      <point x="524" y="972"/>
      <point x="434" y="1005"/>
      <point x="353" y="965" type="curve"/>
      <point x="351" y="933"/>
      <point x="347" y="893"/>
    </contour>
  </outline>
</glyph>
<glyph name="Otilde" format="1">
  <advance width="571"/>
  <unicode hex="00D5"/>
  <outline>
    <contour>
      <point x="366" y="733" type="move" name="top"/>
    </contour>
    <contour>
      <point x="112" y="593" type="curve"/>
      <point x="74" y="507"/>
      <point x="15" y="269"/>
      <point x="15" y="191" type="curve" smooth="yes"/>
      <point x="15" y="117"/>
      <point x="142" y="-5"/>
      <point x="224" y="-5" type="curve" smooth="yes"/>
      <point x="385" y="-5"/>
      <point x="564" y="267"/>
      <point x="564" y="463" type="curve" smooth="yes"/>
      <point x="564" y="590"/>
      <point x="430" y="710"/>
      <point x="281" y="710" type="curve"/>
      <point x="205" y="685"/>
      <point x="182" y="595"/>
      <point x="234" y="532" type="curve"/>
      <point x="316" y="535"/>
      <point x="390" y="513"/>
      <point x="431" y="485" type="curve"/>
      <point x="399" y="345"/>
      <point x="317" y="182"/>
      <point x="178" y="132" type="curve"/>
      <point x="176" y="261"/>
      <point x="205" y="386"/>
      <point x="267" y="502" type="curve"/>
      <point x="262" y="583"/>
      <point x="216" y="624"/>
    </contour>
    <contour>
      <point x="623" y="865" type="curve"/>
      <point x="623" y="909"/>
      <point x="579" y="936"/>
      <point x="532" y="929" type="curve"/>
      <point x="467" y="849" type="line"/>
      <point x="461" y="849" type="line"/>
      <point x="413" y="893"/>
      <point x="347" y="936"/>
      <point x="288" y="936" type="curve" smooth="yes"/>
      <point x="239" y="936"/>
      <point x="147" y="849"/>
      <point x="111" y="805" type="curve"/>
      <point x="111" y="756"/>
      <point x="153" y="727"/>
      <point x="201" y="733" type="curve"/>
      <point x="275" y="816" type="line"/>
      <point x="283" y="814" type="line"/>
      <point x="324" y="772"/>
      <point x="381" y="733"/>
      <point x="447" y="733" type="curve" smooth="yes"/>
      <point x="502" y="733"/>
      <point x="586" y="808"/>
    </contour>
  </outline>
</glyph>
<glyph name="multiply" format="1">
  <advance width="461"/>
  <unicode hex="00D7"/>
  <outline>
    <contour>
      <point x="462" y="424" type="curve"/>
      <point x="472" y="490"/>
      <point x="426" y="526"/>
      <point x="352" y="524" type="curve"/>
      <point x="268" y="410"/>
      <point x="149" y="309"/>
      <point x="24" y="239" type="curve"/>
      <point x="2" y="170"/>
      <point x="46" y="122"/>
      <point x="120" y="128" type="curve"/>
      <point x="213" y="220"/>
      <point x="351" y="336"/>
    </contour>
    <contour>
      <point x="410" y="196" type="curve" smooth="yes"/>
      <point x="410" y="220"/>
      <point x="342" y="255"/>
      <point x="267" y="331" type="curve"/>
      <point x="206" y="405"/>
      <point x="195" y="522"/>
      <point x="149" y="522" type="curve" smooth="yes"/>
      <point x="109" y="522"/>
      <point x="53" y="481"/>
      <point x="56" y="453" type="curve" smooth="yes"/>
      <point x="58" y="434"/>
      <point x="107" y="364"/>
      <point x="165" y="294" type="curve" smooth="yes"/>
      <point x="232" y="212"/>
      <point x="311" y="130"/>
      <point x="336" y="130" type="curve" smooth="yes"/>
      <point x="366" y="130"/>
      <point x="410" y="176"/>
    </contour>
  </outline>
</glyph>
<glyph name="Oslash" format="1">
  <advance width="625"/>
  <unicode hex="00D8"/>
  <outline>
    <contour>
      <point x="517" y="635" type="curve"/>
      <point x="465" y="680"/>
      <point x="394" y="710"/>
      <point x="320" y="710" type="curve"/>
      <point x="269" y="693"/>
      <point x="242" y="647"/>
      <point x="245" y="599" type="curve"/>
      <point x="222" y="606"/>
      <point x="190" y="605"/>
      <point x="151" y="593" type="curve"/>
      <point x="116" y="514"/>
      <point x="64" y="308"/>
      <point x="55" y="214" type="curve"/>
      <point x="10" y="175"/>
      <point x="-23" y="145"/>
      <point x="-30" y="133" type="curve" smooth="yes"/>
      <point x="-49" y="104"/>
      <point x="-7" y="24"/>
      <point x="31" y="0" type="curve" smooth="yes"/>
      <point x="43" y="-7"/>
      <point x="80" y="20"/>
      <point x="130" y="63" type="curve"/>
      <point x="172" y="24"/>
      <point x="223" y="-5"/>
      <point x="263" y="-5" type="curve" smooth="yes"/>
      <point x="424" y="-5"/>
      <point x="603" y="267"/>
      <point x="603" y="463" type="curve" smooth="yes"/>
      <point x="603" y="472"/>
      <point x="602" y="481"/>
      <point x="601" y="491" type="curve"/>
      <point x="634" y="520"/>
      <point x="658" y="543"/>
      <point x="666" y="557" type="curve" smooth="yes"/>
      <point x="683" y="584"/>
      <point x="655" y="675"/>
      <point x="620" y="698" type="curve" smooth="yes"/>
      <point x="603" y="708"/>
      <point x="566" y="681"/>
    </contour>
    <contour>
      <point x="238" y="324" type="curve"/>
      <point x="253" y="385"/>
      <point x="275" y="445"/>
      <point x="306" y="502" type="curve"/>
      <point x="305" y="513"/>
      <point x="304" y="523"/>
      <point x="302" y="532" type="curve"/>
      <point x="353" y="530"/>
      <point x="400" y="519"/>
      <point x="435" y="504" type="curve"/>
      <point x="371" y="439"/>
      <point x="306" y="380"/>
    </contour>
    <contour>
      <point x="219" y="195" type="curve"/>
      <point x="311" y="281"/>
      <point x="389" y="354"/>
      <point x="475" y="435" type="curve"/>
      <point x="443" y="317"/>
      <point x="331" y="173"/>
      <point x="217" y="132" type="curve"/>
      <point x="217" y="153"/>
      <point x="217" y="174"/>
    </contour>
  </outline>
</glyph>
<glyph name="germandbls" format="1">
  <advance width="619"/>
  <unicode hex="00DF"/>
  <outline>
    <contour>
      <point x="346" y="0" type="curve" smooth="yes"/>
      <point x="478" y="0"/>
      <point x="585" y="138"/>
      <point x="585" y="257" type="curve" smooth="yes"/>
      <point x="585" y="322"/>
      <point x="538" y="371"/>
      <point x="450" y="411" type="curve"/>
      <point x="554" y="471"/>
      <point x="612" y="537"/>
      <point x="612" y="619" type="curve" smooth="yes"/>
      <point x="612" y="697"/>
      <point x="497" y="775"/>
      <point x="385" y="775" type="curve" smooth="yes"/>
      <point x="274" y="775"/>
      <point x="179" y="721"/>
      <point x="136" y="635" type="curve" smooth="yes"/>
      <point x="105" y="573"/>
      <point x="51" y="353"/>
      <point x="30" y="150" type="curve" smooth="yes"/>
      <point x="27" y="118"/>
      <point x="116" y="56"/>
      <point x="163" y="56" type="curve" smooth="yes"/>
      <point x="184" y="56"/>
      <point x="200" y="242"/>
      <point x="219" y="358" type="curve" smooth="yes"/>
      <point x="242" y="494"/>
      <point x="315" y="673"/>
      <point x="443" y="642" type="curve"/>
      <point x="433" y="511"/>
      <point x="281" y="471"/>
      <point x="281" y="422" type="curve" smooth="yes"/>
      <point x="281" y="375"/>
      <point x="417" y="337"/>
      <point x="417" y="281" type="curve" smooth="yes"/>
      <point x="417" y="227"/>
      <point x="333" y="159"/>
      <point x="240" y="122" type="curve"/>
      <point x="223" y="64"/>
      <point x="263" y="0"/>
    </contour>
  </outline>
</glyph>
<glyph name="ae" format="1">
  <advance width="844"/>
  <unicode hex="00E6"/>
  <outline>
    <contour>
      <point x="501" y="132" type="curve"/>
      <point x="498" y="161"/>
      <point x="498" y="186"/>
      <point x="500" y="213" type="curve"/>
      <point x="680" y="240"/>
      <point x="799" y="327"/>
      <point x="799" y="410" type="curve" smooth="yes"/>
      <point x="799" y="477"/>
      <point x="722" y="564"/>
      <point x="605" y="564" type="curve" smooth="yes"/>
      <point x="540" y="564"/>
      <point x="487" y="528"/>
      <point x="446" y="482" type="curve"/>
      <point x="410" y="526"/>
      <point x="363" y="564"/>
      <point x="305" y="564" type="curve" smooth="yes"/>
      <point x="128" y="564"/>
      <point x="14" y="340"/>
      <point x="14" y="167" type="curve" smooth="yes"/>
      <point x="14" y="104"/>
      <point x="99" y="0"/>
      <point x="166" y="0" type="curve" smooth="yes"/>
      <point x="227" y="0"/>
      <point x="307" y="71"/>
      <point x="359" y="154" type="curve"/>
      <point x="398" y="72"/>
      <point x="471" y="0"/>
      <point x="557" y="0" type="curve" smooth="yes"/>
      <point x="652" y="0"/>
      <point x="786" y="57"/>
      <point x="786" y="121" type="curve" smooth="yes"/>
      <point x="786" y="169"/>
      <point x="759" y="205"/>
      <point x="707" y="221" type="curve"/>
      <point x="650" y="182"/>
      <point x="578" y="139"/>
    </contour>
    <contour>
      <point x="658" y="402" type="curve" smooth="yes"/>
      <point x="658" y="373"/>
      <point x="605" y="321"/>
      <point x="515" y="288" type="curve"/>
      <point x="532" y="350"/>
      <point x="569" y="403"/>
      <point x="619" y="440" type="curve"/>
      <point x="646" y="433"/>
      <point x="658" y="419"/>
    </contour>
    <contour>
      <point x="343" y="437" type="curve" smooth="yes"/>
      <point x="359" y="437"/>
      <point x="376" y="433"/>
      <point x="394" y="425" type="curve"/>
      <point x="363" y="301"/>
      <point x="273" y="202"/>
      <point x="171" y="139" type="curve"/>
      <point x="184" y="289"/>
      <point x="244" y="437"/>
    </contour>
  </outline>
</glyph>
<glyph name="ccedilla" format="1">
  <advance width="516"/>
  <unicode hex="00E7"/>
  <outline>
    <contour>
      <point x="342" y="593" type="move" name="top"/>
    </contour>
    <contour>
      <point x="276" y="0" type="move" name="bottom"/>
    </contour>
    <contour>
      <point x="309" y="445" type="curve"/>
      <point x="332" y="426"/>
      <point x="351" y="391"/>
      <point x="364" y="359" type="curve"/>
      <point x="443" y="344"/>
      <point x="491" y="391"/>
      <point x="491" y="436" type="curve" smooth="yes"/>
      <point x="491" y="502"/>
      <point x="399" y="564"/>
      <point x="297" y="564" type="curve" smooth="yes"/>
      <point x="126" y="564"/>
      <point x="13" y="349"/>
      <point x="13" y="196" type="curve" smooth="yes"/>
      <point x="13" y="113"/>
      <point x="133" y="0"/>
      <point x="233" y="0" type="curve" smooth="yes"/>
      <point x="331" y="0"/>
      <point x="461" y="57"/>
      <point x="459" y="123" type="curve" smooth="yes"/>
      <point x="458" y="181"/>
      <point x="414" y="217"/>
      <point x="351" y="229" type="curve"/>
      <point x="301" y="171"/>
      <point x="243" y="135"/>
      <point x="177" y="132" type="curve"/>
      <point x="166" y="236"/>
      <point x="203" y="376"/>
    </contour>
    <contour>
      <point x="185" y="64" type="line"/>
      <point x="108" y="-91" type="line"/>
      <point x="111" y="-125"/>
      <point x="149" y="-146"/>
      <point x="186" y="-141" type="curve"/>
      <point x="199" y="-132"/>
      <point x="212" y="-124"/>
      <point x="233" y="-120" type="curve"/>
      <point x="248" y="-131"/>
      <point x="255" y="-144"/>
      <point x="255" y="-157" type="curve" smooth="yes"/>
      <point x="255" y="-188"/>
      <point x="221" y="-210"/>
      <point x="170" y="-210" type="curve" smooth="yes"/>
      <point x="133" y="-210"/>
      <point x="90" y="-196"/>
      <point x="55" y="-165" type="curve"/>
      <point x="19" y="-161"/>
      <point x="-1" y="-191"/>
      <point x="5" y="-221" type="curve"/>
      <point x="52" y="-276"/>
      <point x="124" y="-300"/>
      <point x="193" y="-300" type="curve" smooth="yes"/>
      <point x="322" y="-300"/>
      <point x="396" y="-234"/>
      <point x="396" y="-158" type="curve" smooth="yes"/>
      <point x="396" y="-89"/>
      <point x="342" y="-43"/>
      <point x="275" y="-43" type="curve" smooth="yes"/>
      <point x="258" y="-43"/>
      <point x="239" y="-46"/>
      <point x="221" y="-53" type="curve"/>
      <point x="274" y="35" type="line"/>
    </contour>
  </outline>
</glyph>
<glyph name="edieresis" format="1">
  <advance width="520"/>
  <unicode hex="00EB"/>
  <outline>
    <contour>
      <point x="351" y="0" type="move" name="ogonek"/>
    </contour>
    <contour>
      <point x="310" y="593" type="move" name="top"/>
    </contour>
    <contour>
      <point x="462" y="121" type="curve" smooth="yes"/>
      <point x="462" y="169"/>
      <point x="435" y="205"/>
      <point x="383" y="221" type="curve"/>
      <point x="311" y="172"/>
      <point x="247" y="139"/>
      <point x="177" y="132" type="curve"/>
      <point x="174" y="160"/>
      <point x="174" y="186"/>
      <point x="176" y="213" type="curve"/>
      <point x="355" y="239"/>
      <point x="475" y="327"/>
      <point x="475" y="410" type="curve" smooth="yes"/>
      <point x="475" y="477"/>
      <point x="398" y="564"/>
      <point x="281" y="564" type="curve" smooth="yes"/>
      <point x="117" y="564"/>
      <point x="13" y="334"/>
      <point x="13" y="196" type="curve" smooth="yes"/>
      <point x="13" y="113"/>
      <point x="133" y="0"/>
      <point x="233" y="0" type="curve" smooth="yes"/>
      <point x="328" y="0"/>
      <point x="462" y="57"/>
    </contour>
    <contour>
      <point x="295" y="440" type="curve"/>
      <point x="322" y="433"/>
      <point x="334" y="419"/>
      <point x="334" y="402" type="curve" smooth="yes"/>
      <point x="334" y="371"/>
      <point x="275" y="318"/>
      <point x="191" y="288" type="curve"/>
      <point x="208" y="350"/>
      <point x="245" y="403"/>
    </contour>
    <contour>
      <point x="274" y="719" type="curve" smooth="yes"/>
      <point x="260" y="761"/>
      <point x="168" y="784"/>
      <point x="132" y="768" type="curve" smooth="yes"/>
      <point x="104" y="753"/>
      <point x="85" y="713"/>
      <point x="85" y="679" type="curve" smooth="yes"/>
      <point x="85" y="646"/>
      <point x="152" y="593"/>
      <point x="190" y="593" type="curve" smooth="yes"/>
      <point x="235" y="593"/>
      <point x="287" y="679"/>
    </contour>
    <contour>
      <point x="514" y="719" type="curve" smooth="yes"/>
      <point x="500" y="761"/>
      <point x="408" y="784"/>
      <point x="372" y="768" type="curve" smooth="yes"/>
      <point x="344" y="753"/>
      <point x="325" y="713"/>
      <point x="325" y="679" type="curve" smooth="yes"/>
      <point x="325" y="646"/>
      <point x="392" y="593"/>
      <point x="430" y="593" type="curve" smooth="yes"/>
      <point x="475" y="593"/>
      <point x="527" y="679"/>
    </contour>
  </outline>
</glyph>
<glyph name="icircumflex" format="1">
  <advance width="385"/>
  <unicode hex="00EE"/>
  <outline>
    <contour>
      <point x="169" y="593" type="move" name="top"/>
    </contour>
    <contour>
      <point x="353" y="109" type="curve" smooth="yes"/>
      <point x="353" y="148"/>
      <point x="330" y="190"/>
      <point x="266" y="211" type="curve"/>
      <point x="231" y="184"/>
      <point x="209" y="167"/>
      <point x="174" y="151" type="curve"/>
      <point x="217" y="266"/>
      <point x="254" y="390"/>
      <point x="254" y="452" type="curve" smooth="yes"/>
      <point x="254" y="487"/>
      <point x="185" y="564"/>
      <point x="137" y="564" type="curve" smooth="yes"/>
      <point x="98" y="564"/>
      <point x="26" y="491"/>
      <point x="26" y="447" type="curve" smooth="yes"/>
      <point x="26" y="417"/>
      <point x="107" y="383"/>
      <point x="107" y="358" type="curve" smooth="yes"/>
      <point x="107" y="322"/>
      <point x="15" y="148"/>
      <point x="15" y="98" type="curve" smooth="yes"/>
      <point x="15" y="66"/>
      <point x="98" y="0"/>
      <point x="153" y="0" type="curve" smooth="yes"/>
      <point x="227" y="0"/>
      <point x="353" y="55"/>
    </contour>
    <contour>
      <point x="128" y="839" type="curve"/>
      <point x="-81" y="672" type="line"/>
      <point x="-81" y="611"/>
      <point x="-16" y="578"/>
      <point x="56" y="593" type="curve"/>
      <point x="106" y="654"/>
      <point x="142" y="697"/>
      <point x="196" y="752" type="curve"/>
      <point x="281" y="596" type="line"/>
      <point x="341" y="584"/>
      <point x="378" y="601"/>
      <point x="393" y="645" type="curve"/>
      <point x="266" y="810" type="line"/>
      <point x="232" y="836"/>
      <point x="176" y="844"/>
    </contour>
  </outline>
</glyph>
<glyph name="oacute" format="1">
  <advance width="511"/>
  <unicode hex="00F3"/>
  <outline>
    <contour>
      <point x="311" y="593" type="move" name="top"/>
    </contour>
    <contour>
      <point x="178" y="400" type="curve"/>
      <point x="243" y="410"/>
      <point x="314" y="404"/>
      <point x="357" y="372" type="curve"/>
      <point x="339" y="255"/>
      <point x="284" y="154"/>
      <point x="167" y="114" type="curve"/>
      <point x="154" y="197"/>
      <point x="172" y="288"/>
      <point x="217" y="358" type="curve"/>
      <point x="218" y="428"/>
      <point x="146" y="468"/>
      <point x="73" y="428" type="curve"/>
      <point x="30" y="343"/>
      <point x="12" y="254"/>
      <point x="12" y="177" type="curve" smooth="yes"/>
      <point x="12" y="109"/>
      <point x="119" y="0"/>
      <point x="203" y="0" type="curve" smooth="yes"/>
      <point x="376" y="0"/>
      <point x="490" y="206"/>
      <point x="490" y="344" type="curve" smooth="yes"/>
      <point x="490" y="440"/>
      <point x="383" y="548"/>
      <point x="236" y="565" type="curve"/>
      <point x="154" y="541"/>
      <point x="123" y="465"/>
    </contour>
    <contour>
      <point x="286" y="716" type="curve"/>
      <point x="271" y="691"/>
      <point x="259" y="668"/>
      <point x="237" y="640" type="curve"/>
      <point x="245" y="601"/>
      <point x="280" y="585"/>
      <point x="322" y="591" type="curve"/>
      <point x="379" y="646"/>
      <point x="429" y="704"/>
      <point x="470" y="761" type="curve"/>
      <point x="469" y="832"/>
      <point x="379" y="865"/>
      <point x="298" y="825" type="curve"/>
      <point x="296" y="793"/>
      <point x="292" y="753"/>
    </contour>
  </outline>
</glyph>
<glyph name="ocircumflex" format="1">
  <advance width="511"/>
  <unicode hex="00F4"/>
  <outline>
    <contour>
      <point x="311" y="593" type="move" name="top"/>
    </contour>
    <contour>
      <point x="178" y="400" type="curve"/>
      <point x="243" y="410"/>
      <point x="314" y="404"/>
      <point x="357" y="372" type="curve"/>
      <point x="339" y="255"/>
      <point x="284" y="154"/>
      <point x="167" y="114" type="curve"/>
      <point x="154" y="197"/>
      <point x="172" y="288"/>
      <point x="217" y="358" type="curve"/>
      <point x="218" y="428"/>
      <point x="146" y="468"/>
      <point x="73" y="428" type="curve"/>
      <point x="30" y="343"/>
      <point x="12" y="254"/>
      <point x="12" y="177" type="curve" smooth="yes"/>
      <point x="12" y="109"/>
      <point x="119" y="0"/>
      <point x="203" y="0" type="curve" smooth="yes"/>
      <point x="376" y="0"/>
      <point x="490" y="206"/>
      <point x="490" y="344" type="curve" smooth="yes"/>
      <point x="490" y="440"/>
      <point x="383" y="548"/>
      <point x="236" y="565" type="curve"/>
      <point x="154" y="541"/>
      <point x="123" y="465"/>
    </contour>
    <contour>
      <point x="270" y="839" type="curve"/>
      <point x="61" y="672" type="line"/>
      <point x="61" y="611"/>
      <point x="126" y="578"/>
      <point x="198" y="593" type="curve"/>
      <point x="248" y="654"/>
      <point x="284" y="697"/>
      <point x="338" y="752" type="curve"/>
      <point x="423" y="596" type="line"/>
      <point x="483" y="584"/>
      <point x="520" y="601"/>
      <point x="535" y="645" type="curve"/>
      <point x="408" y="810" type="line"/>
      <point x="374" y="836"/>
      <point x="318" y="844"/>
    </contour>
  </outline>
</glyph>
<glyph name="udieresis" format="1">
  <advance width="680"/>
  <unicode hex="00FC"/>
  <outline>
    <contour>
      <point x="591" y="0" type="move" name="ogonek"/>
    </contour>
    <contour>
      <point x="344" y="593" type="move" name="top"/>
    </contour>
    <contour>
      <point x="343" y="193" type="curve"/>
      <point x="368" y="179" type="line"/>
      <point x="350" y="145"/>
      <point x="329" y="110"/>
      <point x="329" y="91" type="curve" smooth="yes"/>
      <point x="329" y="68"/>
      <point x="409" y="0"/>
      <point x="453" y="0" type="curve" smooth="yes"/>
      <point x="518" y="0"/>
      <point x="648" y="57"/>
      <point x="648" y="109" type="curve" smooth="yes"/>
      <point x="648" y="153"/>
      <point x="621" y="190"/>
      <point x="561" y="211" type="curve"/>
      <point x="528" y="184"/>
      <point x="500" y="165"/>
      <point x="459" y="147" type="curve"/>
      <point x="490" y="238"/>
      <point x="549" y="396"/>
      <point x="550" y="437" type="curve" smooth="yes"/>
      <point x="550" y="464"/>
      <point x="473" y="537"/>
      <point x="417" y="537" type="curve" smooth="yes"/>
      <point x="392" y="537"/>
      <point x="373" y="469"/>
      <point x="370" y="384" type="curve"/>
      <point x="343" y="315"/>
      <point x="268" y="217"/>
      <point x="179" y="142" type="curve"/>
      <point x="220" y="249"/>
      <point x="254" y="377"/>
      <point x="254" y="464" type="curve" smooth="yes"/>
      <point x="254" y="490"/>
      <point x="181" y="564"/>
      <point x="137" y="564" type="curve" smooth="yes"/>
      <point x="98" y="564"/>
      <point x="26" y="491"/>
      <point x="26" y="447" type="curve" smooth="yes"/>
      <point x="26" y="417"/>
      <point x="107" y="383"/>
      <point x="107" y="358" type="curve" smooth="yes"/>
      <point x="107" y="322"/>
      <point x="30" y="156"/>
      <point x="30" y="106" type="curve" smooth="yes"/>
      <point x="30" y="75"/>
      <point x="103" y="0"/>
      <point x="159" y="0" type="curve" smooth="yes"/>
      <point x="231" y="0"/>
      <point x="280" y="77"/>
    </contour>
    <contour>
      <point x="308" y="719" type="curve" smooth="yes"/>
      <point x="294" y="761"/>
      <point x="202" y="784"/>
      <point x="166" y="768" type="curve" smooth="yes"/>
      <point x="138" y="753"/>
      <point x="119" y="713"/>
      <point x="119" y="679" type="curve" smooth="yes"/>
      <point x="119" y="646"/>
      <point x="186" y="593"/>
      <point x="224" y="593" type="curve" smooth="yes"/>
      <point x="269" y="593"/>
      <point x="321" y="679"/>
    </contour>
    <contour>
      <point x="548" y="719" type="curve" smooth="yes"/>
      <point x="534" y="761"/>
      <point x="442" y="784"/>
      <point x="406" y="768" type="curve" smooth="yes"/>
      <point x="378" y="753"/>
      <point x="359" y="713"/>
      <point x="359" y="679" type="curve" smooth="yes"/>
      <point x="359" y="646"/>
      <point x="426" y="593"/>
      <point x="464" y="593" type="curve" smooth="yes"/>
      <point x="509" y="593"/>
      <point x="561" y="679"/>
    </contour>
  </outline>
</glyph>
<glyph name="yacute" format="1">
  <advance width="569"/>
  <unicode hex="00FD"/>
  <outline>
    <contour>
      <point x="337" y="593" type="move" name="top"/>
    </contour>
    <contour>
      <point x="312" y="716" type="curve"/>
      <point x="297" y="691"/>
      <point x="285" y="668"/>
      <point x="263" y="640" type="curve"/>
      <point x="271" y="601"/>
      <point x="306" y="585"/>
      <point x="348" y="591" type="curve"/>
      <point x="405" y="646"/>
      <point x="455" y="704"/>
      <point x="496" y="761" type="curve"/>
      <point x="495" y="832"/>
      <point x="405" y="865"/>
      <point x="324" y="825" type="curve"/>
      <point x="322" y="793"/>
      <point x="318" y="753"/>
    </contour>
    <contour>
      <point x="394" y="133" type="line"/>
      <point x="218" y="12"/>
      <point x="34" y="-126"/>
      <point x="34" y="-190" type="curve" smooth="yes"/>
      <point x="34" y="-258"/>
      <point x="143" y="-356"/>
      <point x="226" y="-356" type="curve" smooth="yes"/>
      <point x="289" y="-356"/>
      <point x="366" y="-314"/>
      <point x="395" y="-266" type="curve" smooth="yes"/>
      <point x="427" y="-213"/>
      <point x="540" y="392"/>
      <point x="540" y="431" type="curve" smooth="yes"/>
      <point x="540" y="461"/>
      <point x="445" y="537"/>
      <point x="415" y="537" type="curve" smooth="yes"/>
      <point x="382" y="537"/>
      <point x="369" y="413"/>
      <point x="356" y="280" type="curve"/>
      <point x="309" y="242"/>
      <point x="257" y="205"/>
      <point x="194" y="172" type="curve"/>
      <point x="234" y="283"/>
      <point x="254" y="392"/>
      <point x="254" y="464" type="curve" smooth="yes"/>
      <point x="254" y="490"/>
      <point x="181" y="564"/>
      <point x="137" y="564" type="curve" smooth="yes"/>
      <point x="98" y="564"/>
      <point x="26" y="491"/>
      <point x="26" y="447" type="curve" smooth="yes"/>
      <point x="26" y="417"/>
      <point x="107" y="383"/>
      <point x="107" y="358" type="curve" smooth="yes"/>
      <point x="107" y="322"/>
      <point x="43" y="180"/>
      <point x="43" y="130" type="curve" smooth="yes"/>
      <point x="43" y="90"/>
      <point x="115" y="32"/>
      <point x="144" y="32" type="curve" smooth="yes"/>
      <point x="197" y="32"/>
      <point x="305" y="103"/>
      <point x="376" y="160" type="curve"/>
    </contour>
    <contour>
      <point x="254" y="-251" type="curve"/>
      <point x="215" y="-244"/>
      <point x="185" y="-222"/>
      <point x="184" y="-196" type="curve" smooth="yes"/>
      <point x="182" y="-155"/>
      <point x="267" y="-76"/>
      <point x="360" y="-3" type="curve"/>
      <point x="326" y="-117"/>
      <point x="301" y="-185"/>
    </contour>
  </outline>
</glyph>
<glyph name="Amacron" format="1">
  <advance width="556"/>
  <unicode hex="0100"/>
  <outline>
    <contour>
      <point x="491" y="0" type="move" name="ogonek"/>
    </contour>
    <contour>
      <point x="371" y="733" type="move" name="top"/>
    </contour>
    <contour>
      <point x="-27" y="78" type="curve"/>
      <point x="-10" y="7"/>
      <point x="50" y="-13"/>
      <point x="127" y="5" type="curve"/>
      <point x="185" y="162"/>
      <point x="249" y="357"/>
      <point x="328" y="544" type="curve"/>
      <point x="336" y="396"/>
      <point x="327" y="98"/>
      <point x="335" y="68" type="curve" smooth="yes"/>
      <point x="344" y="34"/>
      <point x="451" y="-8"/>
      <point x="490" y="1" type="curve" smooth="yes"/>
      <point x="520" y="10"/>
      <point x="490" y="222"/>
      <point x="481" y="327" type="curve" smooth="yes"/>
      <point x="471" y="450"/>
      <point x="450" y="586"/>
      <point x="443" y="616" type="curve" smooth="yes"/>
      <point x="434" y="650"/>
      <point x="327" y="700"/>
      <point x="288" y="700" type="curve" smooth="yes"/>
      <point x="248" y="700"/>
      <point x="59" y="270"/>
    </contour>
    <contour>
      <point x="409" y="340" type="line"/>
      <point x="331" y="328"/>
      <point x="225" y="318"/>
      <point x="158" y="316" type="curve"/>
      <point x="113" y="274"/>
      <point x="123" y="209"/>
      <point x="167" y="177" type="curve"/>
      <point x="211" y="179"/>
      <point x="315" y="191"/>
      <point x="382" y="201" type="curve"/>
    </contour>
    <contour>
      <point x="544" y="754" type="curve"/>
      <point x="586" y="787"/>
      <point x="590" y="846"/>
      <point x="538" y="879" type="curve"/>
      <point x="410" y="865"/>
      <point x="305" y="864"/>
      <point x="172" y="864" type="curve"/>
      <point x="131" y="824"/>
      <point x="135" y="763"/>
      <point x="186" y="740" type="curve"/>
      <point x="317" y="747"/>
      <point x="413" y="750"/>
    </contour>
  </outline>
</glyph>
<glyph name="Aogonek" format="1">
  <advance width="556"/>
  <unicode hex="0104"/>
  <outline>
    <contour>
      <point x="371" y="733" type="move" name="top"/>
    </contour>
    <contour>
      <point x="332" y="-134" type="curve"/>
      <point x="357" y="-72"/>
      <point x="409" y="-30"/>
      <point x="490" y="1" type="curve" smooth="yes"/>
      <point x="521" y="13"/>
      <point x="490" y="222"/>
      <point x="481" y="327" type="curve" smooth="yes"/>
      <point x="471" y="450"/>
      <point x="450" y="586"/>
      <point x="443" y="616" type="curve" smooth="yes"/>
      <point x="434" y="650"/>
      <point x="327" y="700"/>
      <point x="288" y="700" type="curve" smooth="yes"/>
      <point x="248" y="700"/>
      <point x="59" y="270"/>
      <point x="-27" y="78" type="curve"/>
      <point x="-10" y="7"/>
      <point x="50" y="-13"/>
      <point x="127" y="5" type="curve"/>
      <point x="147" y="59"/>
      <point x="168" y="117"/>
      <point x="189" y="178" type="curve"/>
      <point x="226" y="181"/>
      <point x="282" y="188"/>
      <point x="331" y="194" type="curve"/>
      <point x="331" y="129"/>
      <point x="332" y="79"/>
      <point x="335" y="68" type="curve" smooth="yes"/>
      <point x="338" y="58"/>
      <point x="349" y="47"/>
      <point x="365" y="37" type="curve"/>
      <point x="256" y="6"/>
      <point x="199" y="-59"/>
      <point x="199" y="-130" type="curve" smooth="yes"/>
      <point x="199" y="-203"/>
      <point x="262" y="-251"/>
      <point x="352" y="-251" type="curve" smooth="yes"/>
      <point x="424" y="-251"/>
      <point x="500" y="-222"/>
      <point x="547" y="-171" type="curve"/>
      <point x="556" y="-138"/>
      <point x="543" y="-115"/>
      <point x="509" y="-111" type="curve"/>
      <point x="461" y="-136"/>
      <point x="410" y="-147"/>
    </contour>
    <contour>
      <point x="332" y="330" type="curve"/>
      <point x="301" y="326"/>
      <point x="270" y="323"/>
      <point x="241" y="321" type="curve"/>
      <point x="268" y="395"/>
      <point x="297" y="470"/>
      <point x="328" y="544" type="curve"/>
      <point x="331" y="487"/>
      <point x="332" y="407"/>
    </contour>
  </outline>
</glyph>
<glyph name="aogonek" format="1">
  <advance width="700"/>
  <unicode hex="0105"/>
  <outline>
    <contour>
      <point x="384" y="593" type="move" name="top"/>
    </contour>
    <contour>
      <point x="645" y="-145" type="curve"/>
      <point x="654" y="-112"/>
      <point x="641" y="-89"/>
      <point x="607" y="-85" type="curve"/>
      <point x="559" y="-110"/>
      <point x="510" y="-121"/>
      <point x="434" y="-113" type="curve"/>
      <point x="465" y="-50"/>
      <point x="508" y="-7"/>
      <point x="582" y="29" type="curve" smooth="yes"/>
      <point x="623" y="49"/>
      <point x="668" y="77"/>
      <point x="668" y="109" type="curve" smooth="yes"/>
      <point x="668" y="153"/>
      <point x="641" y="190"/>
      <point x="581" y="211" type="curve"/>
      <point x="548" y="184"/>
      <point x="517" y="166"/>
      <point x="478" y="147" type="curve"/>
      <point x="509" y="238"/>
      <point x="573" y="396"/>
      <point x="574" y="437" type="curve" smooth="yes"/>
      <point x="574" y="464"/>
      <point x="497" y="537"/>
      <point x="441" y="537" type="curve" smooth="yes"/>
      <point x="425" y="537"/>
      <point x="412" y="507"/>
      <point x="406" y="482" type="curve"/>
      <point x="395" y="518"/>
      <point x="346" y="564"/>
      <point x="305" y="564" type="curve" smooth="yes"/>
      <point x="128" y="564"/>
      <point x="14" y="340"/>
      <point x="14" y="167" type="curve" smooth="yes"/>
      <point x="14" y="104"/>
      <point x="99" y="0"/>
      <point x="166" y="0" type="curve" smooth="yes"/>
      <point x="235" y="0"/>
      <point x="306" y="100"/>
      <point x="363" y="193" type="curve"/>
      <point x="388" y="179" type="line"/>
      <point x="369" y="145"/>
      <point x="348" y="110"/>
      <point x="348" y="93" type="curve" smooth="yes"/>
      <point x="348" y="76"/>
      <point x="374" y="48"/>
      <point x="409" y="29" type="curve"/>
      <point x="347" y="-7"/>
      <point x="306" y="-58"/>
      <point x="306" y="-104" type="curve" smooth="yes"/>
      <point x="306" y="-176"/>
      <point x="365" y="-225"/>
      <point x="452" y="-225" type="curve" smooth="yes"/>
      <point x="528" y="-225"/>
      <point x="605" y="-193"/>
    </contour>
    <contour>
      <point x="343" y="437" type="curve" smooth="yes"/>
      <point x="359" y="437"/>
      <point x="376" y="433"/>
      <point x="394" y="425" type="curve"/>
      <point x="363" y="301"/>
      <point x="273" y="202"/>
      <point x="171" y="139" type="curve"/>
      <point x="184" y="289"/>
      <point x="244" y="437"/>
    </contour>
  </outline>
</glyph>
<glyph name="Cacute" format="1">
  <advance width="547"/>
  <unicode hex="0106"/>
  <outline>
    <contour>
      <point x="348" y="733" type="move" name="top"/>
    </contour>
    <contour>
      <point x="316" y="0" type="move" name="bottom"/>
    </contour>
    <contour>
      <point x="401" y="249" type="curve"/>
      <point x="350" y="205"/>
      <point x="276" y="163"/>
      <point x="182" y="146" type="curve"/>
      <point x="186" y="317"/>
      <point x="267" y="575"/>
      <point x="338" y="575" type="curve" smooth="yes"/>
      <point x="370" y="575"/>
      <point x="369" y="524"/>
      <point x="366" y="451" type="curve"/>
      <point x="443" y="423"/>
      <point x="532" y="445"/>
      <point x="531" y="523" type="curve" smooth="yes"/>
      <point x="531" y="599"/>
      <point x="448" y="710"/>
      <point x="335" y="710" type="curve" smooth="yes"/>
      <point x="118" y="710"/>
      <point x="20" y="378"/>
      <point x="19" y="185" type="curve" smooth="yes"/>
      <point x="19" y="112"/>
      <point x="147" y="-5"/>
      <point x="219" y="-5" type="curve" smooth="yes"/>
      <point x="316" y="-5"/>
      <point x="444" y="57"/>
      <point x="484" y="97" type="curve"/>
      <point x="513" y="156"/>
      <point x="484" y="229"/>
    </contour>
    <contour>
      <point x="323" y="856" type="curve"/>
      <point x="308" y="831"/>
      <point x="296" y="808"/>
      <point x="274" y="780" type="curve"/>
      <point x="282" y="741"/>
      <point x="317" y="725"/>
      <point x="359" y="731" type="curve"/>
      <point x="416" y="786"/>
      <point x="466" y="844"/>
      <point x="507" y="901" type="curve"/>
      <point x="506" y="972"/>
      <point x="416" y="1005"/>
      <point x="335" y="965" type="curve"/>
      <point x="333" y="933"/>
      <point x="329" y="893"/>
    </contour>
  </outline>
</glyph>
<glyph name="edotaccent" format="1">
  <advance width="520"/>
  <unicode hex="0117"/>
  <outline>
    <contour>
      <point x="351" y="0" type="move" name="ogonek"/>
    </contour>
    <contour>
      <point x="310" y="593" type="move" name="top"/>
    </contour>
    <contour>
      <point x="462" y="121" type="curve" smooth="yes"/>
      <point x="462" y="169"/>
      <point x="435" y="205"/>
      <point x="383" y="221" type="curve"/>
      <point x="311" y="172"/>
      <point x="247" y="139"/>
      <point x="177" y="132" type="curve"/>
      <point x="174" y="160"/>
      <point x="174" y="186"/>
      <point x="176" y="213" type="curve"/>
      <point x="355" y="239"/>
      <point x="475" y="327"/>
      <point x="475" y="410" type="curve" smooth="yes"/>
      <point x="475" y="477"/>
      <point x="398" y="564"/>
      <point x="281" y="564" type="curve" smooth="yes"/>
      <point x="117" y="564"/>
      <point x="13" y="334"/>
      <point x="13" y="196" type="curve" smooth="yes"/>
      <point x="13" y="113"/>
      <point x="133" y="0"/>
      <point x="233" y="0" type="curve" smooth="yes"/>
      <point x="328" y="0"/>
      <point x="462" y="57"/>
    </contour>
    <contour>
      <point x="295" y="440" type="curve"/>
      <point x="322" y="433"/>
      <point x="334" y="419"/>
      <point x="334" y="402" type="curve" smooth="yes"/>
      <point x="334" y="371"/>
      <point x="275" y="318"/>
      <point x="191" y="288" type="curve"/>
      <point x="208" y="350"/>
      <point x="245" y="403"/>
    </contour>
    <contour>
      <point x="428" y="726" type="curve" smooth="yes"/>
      <point x="414" y="770"/>
      <point x="317" y="794"/>
      <point x="279" y="777" type="curve" smooth="yes"/>
      <point x="250" y="761"/>
      <point x="230" y="719"/>
      <point x="230" y="684" type="curve" smooth="yes"/>
      <point x="230" y="649"/>
      <point x="300" y="593"/>
      <point x="340" y="593" type="curve" smooth="yes"/>
      <point x="387" y="593"/>
      <point x="442" y="684"/>
    </contour>
  </outline>
</glyph>
<glyph name="Eogonek" format="1">
  <advance width="553"/>
  <unicode hex="0118"/>
  <outline>
    <contour>
      <point x="351" y="733" type="move" name="top"/>
    </contour>
    <contour>
      <point x="99" y="679" type="curve"/>
      <point x="50" y="630"/>
      <point x="64" y="559"/>
      <point x="110" y="536" type="curve"/>
      <point x="152" y="539" type="line"/>
      <point x="143" y="484"/>
      <point x="133" y="438"/>
      <point x="120" y="371" type="curve" smooth="yes"/>
      <point x="99" y="260"/>
      <point x="64" y="126"/>
      <point x="64" y="101" type="curve" smooth="yes"/>
      <point x="64" y="66"/>
      <point x="149" y="0"/>
      <point x="185" y="0" type="curve"/>
      <point x="259" y="5" type="line"/>
      <point x="204" y="-27"/>
      <point x="158" y="-76"/>
      <point x="158" y="-134" type="curve" smooth="yes"/>
      <point x="158" y="-199"/>
      <point x="214" y="-251"/>
      <point x="307" y="-251" type="curve" smooth="yes"/>
      <point x="372" y="-251"/>
      <point x="445" y="-224"/>
      <point x="497" y="-171" type="curve"/>
      <point x="506" y="-138"/>
      <point x="493" y="-115"/>
      <point x="459" y="-111" type="curve"/>
      <point x="403" y="-138"/>
      <point x="344" y="-147"/>
      <point x="282" y="-134" type="curve"/>
      <point x="322" y="-62"/>
      <point x="395" y="-5"/>
      <point x="467" y="24" type="curve"/>
      <point x="518" y="74"/>
      <point x="504" y="155"/>
      <point x="439" y="183" type="curve"/>
      <point x="364" y="157"/>
      <point x="303" y="145"/>
      <point x="224" y="137" type="curve"/>
      <point x="232" y="177"/>
      <point x="242" y="223"/>
      <point x="252" y="275" type="curve"/>
      <point x="312" y="280"/>
      <point x="398" y="285"/>
      <point x="453" y="289" type="curve"/>
      <point x="496" y="321"/>
      <point x="497" y="402"/>
      <point x="444" y="432" type="curve"/>
      <point x="397" y="421"/>
      <point x="339" y="413"/>
      <point x="275" y="408" type="curve"/>
      <point x="286" y="463"/>
      <point x="295" y="501"/>
      <point x="307" y="544" type="curve"/>
      <point x="373" y="550"/>
      <point x="463" y="553"/>
      <point x="522" y="554" type="curve"/>
      <point x="560" y="590"/>
      <point x="564" y="671"/>
      <point x="513" y="700" type="curve"/>
      <point x="401" y="684"/>
      <point x="230" y="681"/>
    </contour>
  </outline>
</glyph>
<glyph name="eogonek" format="1">
  <advance width="519"/>
  <unicode hex="0119"/>
  <outline>
    <contour>
      <point x="310" y="593" type="move" name="top"/>
    </contour>
    <contour>
      <point x="177" y="132" type="curve"/>
      <point x="174" y="160"/>
      <point x="174" y="186"/>
      <point x="176" y="213" type="curve"/>
      <point x="355" y="239"/>
      <point x="475" y="327"/>
      <point x="475" y="410" type="curve" smooth="yes"/>
      <point x="475" y="477"/>
      <point x="398" y="564"/>
      <point x="281" y="564" type="curve" smooth="yes"/>
      <point x="117" y="564"/>
      <point x="13" y="334"/>
      <point x="13" y="196" type="curve" smooth="yes"/>
      <point x="13" y="134"/>
      <point x="77" y="56"/>
      <point x="162" y="26" type="curve"/>
      <point x="98" y="-9"/>
      <point x="69" y="-59"/>
      <point x="69" y="-105" type="curve" smooth="yes"/>
      <point x="69" y="-169"/>
      <point x="124" y="-225"/>
      <point x="222" y="-225" type="curve" smooth="yes"/>
      <point x="294" y="-225"/>
      <point x="370" y="-196"/>
      <point x="417" y="-145" type="curve"/>
      <point x="426" y="-112"/>
      <point x="413" y="-89"/>
      <point x="379" y="-85" type="curve"/>
      <point x="331" y="-110"/>
      <point x="280" y="-121"/>
      <point x="202" y="-108" type="curve"/>
      <point x="226" y="-48"/>
      <point x="273" y="-4"/>
      <point x="341" y="19" type="curve" smooth="yes"/>
      <point x="405" y="41"/>
      <point x="462" y="80"/>
      <point x="462" y="121" type="curve" smooth="yes"/>
      <point x="462" y="169"/>
      <point x="435" y="205"/>
      <point x="383" y="221" type="curve"/>
      <point x="311" y="172"/>
      <point x="247" y="139"/>
    </contour>
    <contour>
      <point x="334" y="402" type="curve" smooth="yes"/>
      <point x="334" y="371"/>
      <point x="275" y="318"/>
      <point x="191" y="288" type="curve"/>
      <point x="208" y="350"/>
      <point x="245" y="403"/>
      <point x="295" y="440" type="curve"/>
      <point x="322" y="433"/>
      <point x="334" y="419"/>
    </contour>
  </outline>
</glyph>
<glyph name="Imacron" format="1">
  <advance width="283"/>
  <unicode hex="012A"/>
  <outline>
    <contour>
      <point x="231" y="0" type="move" name="ogonek"/>
    </contour>
    <contour>
      <point x="211" y="733" type="move" name="top"/>
    </contour>
    <contour>
      <point x="213" y="303" type="curve" smooth="yes"/>
      <point x="238" y="443"/>
      <point x="284" y="579"/>
      <point x="284" y="603" type="curve" smooth="yes"/>
      <point x="284" y="638"/>
      <point x="190" y="700"/>
      <point x="151" y="700" type="curve" smooth="yes"/>
      <point x="120" y="700"/>
      <point x="90" y="490"/>
      <point x="74" y="401" type="curve" smooth="yes"/>
      <point x="50" y="260"/>
      <point x="17" y="127"/>
      <point x="18" y="94" type="curve" smooth="yes"/>
      <point x="18" y="62"/>
      <point x="104" y="0"/>
      <point x="151" y="0" type="curve" smooth="yes"/>
      <point x="186" y="0"/>
      <point x="184" y="135"/>
    </contour>
    <contour>
      <point x="384" y="754" type="curve"/>
      <point x="426" y="787"/>
      <point x="430" y="846"/>
      <point x="378" y="879" type="curve"/>
      <point x="250" y="865"/>
      <point x="145" y="864"/>
      <point x="12" y="864" type="curve"/>
      <point x="-29" y="824"/>
      <point x="-25" y="763"/>
      <point x="26" y="740" type="curve"/>
      <point x="157" y="747"/>
      <point x="253" y="750"/>
    </contour>
  </outline>
</glyph>
<glyph name="Iogonek" format="1">
  <advance width="283"/>
  <unicode hex="012E"/>
  <outline>
    <contour>
      <point x="211" y="733" type="move" name="top"/>
    </contour>
    <contour>
      <point x="58" y="-134" type="curve"/>
      <point x="70" y="-81"/>
      <point x="108" y="-34"/>
      <point x="157" y="0" type="curve" smooth="yes"/>
      <point x="187" y="21"/>
      <point x="188" y="158"/>
      <point x="213" y="303" type="curve" smooth="yes"/>
      <point x="238" y="443"/>
      <point x="284" y="579"/>
      <point x="284" y="603" type="curve" smooth="yes"/>
      <point x="284" y="638"/>
      <point x="190" y="700"/>
      <point x="151" y="700" type="curve" smooth="yes"/>
      <point x="120" y="700"/>
      <point x="90" y="490"/>
      <point x="74" y="401" type="curve" smooth="yes"/>
      <point x="50" y="260"/>
      <point x="17" y="127"/>
      <point x="18" y="94" type="curve" smooth="yes"/>
      <point x="18" y="78"/>
      <point x="39" y="55"/>
      <point x="66" y="36" type="curve"/>
      <point x="-14" y="1"/>
      <point x="-71" y="-59"/>
      <point x="-71" y="-124" type="curve" smooth="yes"/>
      <point x="-71" y="-199"/>
      <point x="-11" y="-250"/>
      <point x="81" y="-250" type="curve" smooth="yes"/>
      <point x="138" y="-250"/>
      <point x="200" y="-229"/>
      <point x="248" y="-187" type="curve"/>
      <point x="257" y="-154"/>
      <point x="243" y="-128"/>
      <point x="209" y="-124" type="curve"/>
      <point x="161" y="-143"/>
      <point x="114" y="-144"/>
    </contour>
  </outline>
</glyph>
<glyph name="lcommaaccent" format="1">
  <advance width="371"/>
  <unicode hex="013C"/>
  <outline>
    <contour>
      <point x="254" y="801" type="move" name="top"/>
    </contour>
    <contour>
      <point x="226" y="-133" type="curve"/>
      <point x="205" y="-70"/>
      <point x="121" y="-46"/>
      <point x="51" y="-98" type="curve"/>
      <point x="62" y="-219" type="line"/>
      <point x="10" y="-307" type="line"/>
      <point x="19" y="-338"/>
      <point x="46" y="-351"/>
      <point x="82" y="-349" type="curve"/>
      <point x="154" y="-285"/>
      <point x="190" y="-231"/>
    </contour>
    <contour>
      <point x="353" y="109" type="curve" smooth="yes"/>
      <point x="353" y="153"/>
      <point x="326" y="190"/>
      <point x="266" y="211" type="curve"/>
      <point x="234" y="184"/>
      <point x="217" y="173"/>
      <point x="174" y="152" type="curve"/>
      <point x="191" y="267"/>
      <point x="222" y="434"/>
      <point x="250" y="519" type="curve" smooth="yes"/>
      <point x="266" y="565"/>
      <point x="306" y="616"/>
      <point x="306" y="672" type="curve" smooth="yes"/>
      <point x="306" y="709"/>
      <point x="207" y="774"/>
      <point x="164" y="774" type="curve" smooth="yes"/>
      <point x="131" y="774"/>
      <point x="98" y="553"/>
      <point x="80" y="460" type="curve" smooth="yes"/>
      <point x="52" y="312"/>
      <point x="8" y="133"/>
      <point x="8" y="99" type="curve" smooth="yes"/>
      <point x="8" y="65"/>
      <point x="96" y="0"/>
      <point x="158" y="0" type="curve" smooth="yes"/>
      <point x="223" y="0"/>
      <point x="353" y="57"/>
    </contour>
  </outline>
</glyph>
<glyph name="Lcaron" format="1">
  <advance width="498"/>
  <unicode hex="013D"/>
  <outline>
    <contour>
      <point x="350" y="733" type="move" name="top"/>
    </contour>
    <contour>
      <point x="576" y="757" type="curve"/>
      <point x="555" y="820"/>
      <point x="471" y="844"/>
      <point x="401" y="792" type="curve"/>
      <point x="412" y="671" type="line"/>
      <point x="360" y="583" type="line"/>
      <point x="369" y="552"/>
      <point x="396" y="539"/>
      <point x="432" y="541" type="curve"/>
      <point x="504" y="605"/>
      <point x="540" y="659"/>
    </contour>
    <contour>
      <point x="178" y="137" type="curve"/>
      <point x="193" y="197"/>
      <point x="204" y="241"/>
      <point x="217" y="303" type="curve" smooth="yes"/>
      <point x="247" y="443"/>
      <point x="292" y="579"/>
      <point x="292" y="603" type="curve" smooth="yes"/>
      <point x="292" y="638"/>
      <point x="199" y="700"/>
      <point x="160" y="700" type="curve" smooth="yes"/>
      <point x="129" y="700"/>
      <point x="96" y="490"/>
      <point x="79" y="401" type="curve" smooth="yes"/>
      <point x="53" y="260"/>
      <point x="20" y="135"/>
      <point x="18" y="102" type="curve" smooth="yes"/>
      <point x="16" y="67"/>
      <point x="101" y="2"/>
      <point x="137" y="0" type="curve" smooth="yes"/>
      <point x="211" y="-4"/>
      <point x="335" y="6"/>
      <point x="433" y="26" type="curve"/>
      <point x="484" y="76"/>
      <point x="470" y="159"/>
      <point x="405" y="187" type="curve"/>
      <point x="330" y="161"/>
      <point x="257" y="145"/>
    </contour>
  </outline>
</glyph>
<glyph name="lcaron" format="1">
  <advance width="502"/>
  <unicode hex="013E"/>
  <outline>
    <contour>
      <point x="254" y="801" type="move" name="top"/>
    </contour>
    <contour>
      <point x="576" y="797" type="curve"/>
      <point x="555" y="860"/>
      <point x="471" y="884"/>
      <point x="401" y="832" type="curve"/>
      <point x="412" y="711" type="line"/>
      <point x="360" y="623" type="line"/>
      <point x="369" y="592"/>
      <point x="396" y="579"/>
      <point x="432" y="581" type="curve"/>
      <point x="504" y="645"/>
      <point x="540" y="699"/>
    </contour>
    <contour>
      <point x="353" y="109" type="curve" smooth="yes"/>
      <point x="353" y="153"/>
      <point x="326" y="190"/>
      <point x="266" y="211" type="curve"/>
      <point x="234" y="184"/>
      <point x="217" y="173"/>
      <point x="174" y="152" type="curve"/>
      <point x="191" y="267"/>
      <point x="222" y="434"/>
      <point x="250" y="519" type="curve" smooth="yes"/>
      <point x="266" y="565"/>
      <point x="306" y="616"/>
      <point x="306" y="672" type="curve" smooth="yes"/>
      <point x="306" y="709"/>
      <point x="207" y="774"/>
      <point x="164" y="774" type="curve" smooth="yes"/>
      <point x="131" y="774"/>
      <point x="98" y="553"/>
      <point x="80" y="460" type="curve" smooth="yes"/>
      <point x="52" y="312"/>
      <point x="8" y="133"/>
      <point x="8" y="99" type="curve" smooth="yes"/>
      <point x="8" y="65"/>
      <point x="96" y="0"/>
      <point x="158" y="0" type="curve" smooth="yes"/>
      <point x="223" y="0"/>
      <point x="353" y="57"/>
    </contour>
  </outline>
</glyph>
<glyph name="Lslash" format="1">
  <advance width="569"/>
  <unicode hex="0141"/>
  <outline>
    <contour>
      <point x="249" y="137" type="curve"/>
      <point x="268" y="225"/>
      <point x="277" y="264"/>
      <point x="294" y="336" type="curve"/>
      <point x="476" y="392" type="line"/>
      <point x="507" y="440"/>
      <point x="491" y="513"/>
      <point x="437" y="527" type="curve"/>
      <point x="328" y="486" type="line"/>
      <point x="346" y="539"/>
      <point x="360" y="589"/>
      <point x="360" y="606" type="curve" smooth="yes"/>
      <point x="360" y="641"/>
      <point x="270" y="700"/>
      <point x="231" y="700" type="curve" smooth="yes"/>
      <point x="203" y="700"/>
      <point x="173" y="525"/>
      <point x="156" y="426" type="curve"/>
      <point x="39" y="398" type="line"/>
      <point x="-7" y="343"/>
      <point x="6" y="278"/>
      <point x="63" y="257" type="curve"/>
      <point x="126" y="277" type="line"/>
      <point x="106" y="189"/>
      <point x="90" y="124"/>
      <point x="89" y="102" type="curve" smooth="yes"/>
      <point x="87" y="67"/>
      <point x="172" y="2"/>
      <point x="208" y="0" type="curve" smooth="yes"/>
      <point x="282" y="-4"/>
      <point x="406" y="6"/>
      <point x="504" y="26" type="curve"/>
      <point x="555" y="76"/>
      <point x="541" y="159"/>
      <point x="476" y="187" type="curve"/>
      <point x="401" y="161"/>
      <point x="328" y="145"/>
    </contour>
  </outline>
</glyph>
<glyph name="ncaron" format="1">
  <advance width="660"/>
  <unicode hex="0148"/>
  <outline>
    <contour>
      <point x="354" y="593" type="move" name="top"/>
    </contour>
    <contour>
      <point x="450" y="151" type="curve"/>
      <point x="473" y="231"/>
      <point x="541" y="394"/>
      <point x="542" y="437" type="curve" smooth="yes"/>
      <point x="543" y="464"/>
      <point x="471" y="537"/>
      <point x="430" y="537" type="curve" smooth="yes"/>
      <point x="389" y="537"/>
      <point x="308" y="433"/>
      <point x="234" y="336" type="curve"/>
      <point x="247" y="383"/>
      <point x="254" y="433"/>
      <point x="254" y="464" type="curve" smooth="yes"/>
      <point x="254" y="490"/>
      <point x="181" y="564"/>
      <point x="137" y="564" type="curve" smooth="yes"/>
      <point x="98" y="564"/>
      <point x="26" y="491"/>
      <point x="26" y="447" type="curve" smooth="yes"/>
      <point x="26" y="417"/>
      <point x="107" y="383"/>
      <point x="107" y="358" type="curve" smooth="yes"/>
      <point x="107" y="322"/>
      <point x="15" y="148"/>
      <point x="15" y="98" type="curve" smooth="yes"/>
      <point x="15" y="66"/>
      <point x="98" y="0"/>
      <point x="153" y="0" type="curve" smooth="yes"/>
      <point x="185" y="0"/>
      <point x="194" y="124"/>
      <point x="213" y="196" type="curve"/>
      <point x="265" y="263"/>
      <point x="328" y="336"/>
      <point x="362" y="336" type="curve" smooth="yes"/>
      <point x="390" y="336"/>
      <point x="308" y="124"/>
      <point x="307" y="96" type="curve" smooth="yes"/>
      <point x="306" y="70"/>
      <point x="385" y="0"/>
      <point x="433" y="0" type="curve" smooth="yes"/>
      <point x="498" y="0"/>
      <point x="628" y="57"/>
      <point x="628" y="109" type="curve" smooth="yes"/>
      <point x="628" y="153"/>
      <point x="601" y="190"/>
      <point x="541" y="211" type="curve"/>
      <point x="508" y="184"/>
      <point x="492" y="173"/>
    </contour>
    <contour>
      <point x="446" y="613" type="curve"/>
      <point x="507" y="668"/>
      <point x="553" y="714"/>
      <point x="609" y="770" type="curve"/>
      <point x="597" y="840"/>
      <point x="496" y="831"/>
      <point x="446" y="817" type="curve"/>
      <point x="408" y="762"/>
      <point x="368" y="719"/>
      <point x="317" y="671" type="curve"/>
      <point x="283" y="719"/>
      <point x="265" y="762"/>
      <point x="227" y="825" type="curve"/>
      <point x="179" y="840"/>
      <point x="141" y="816"/>
      <point x="135" y="775" type="curve"/>
      <point x="175" y="717"/>
      <point x="208" y="663"/>
      <point x="249" y="617" type="curve"/>
      <point x="297" y="588"/>
      <point x="384" y="584"/>
    </contour>
  </outline>
</glyph>
<glyph name="Ohungarumlaut" format="1">
  <advance width="571"/>
  <unicode hex="0150"/>
  <outline>
    <contour>
      <point x="366" y="733" type="move" name="top"/>
    </contour>
    <contour>
      <point x="112" y="593" type="curve"/>
      <point x="74" y="507"/>
      <point x="15" y="269"/>
      <point x="15" y="191" type="curve" smooth="yes"/>
      <point x="15" y="117"/>
      <point x="142" y="-5"/>
      <point x="224" y="-5" type="curve" smooth="yes"/>
      <point x="385" y="-5"/>
      <point x="564" y="267"/>
      <point x="564" y="463" type="curve" smooth="yes"/>
      <point x="564" y="590"/>
      <point x="430" y="710"/>
      <point x="281" y="710" type="curve"/>
      <point x="205" y="685"/>
      <point x="182" y="595"/>
      <point x="234" y="532" type="curve"/>
      <point x="316" y="535"/>
      <point x="390" y="513"/>
      <point x="431" y="485" type="curve"/>
      <point x="399" y="345"/>
      <point x="317" y="182"/>
      <point x="178" y="132" type="curve"/>
      <point x="176" y="261"/>
      <point x="205" y="386"/>
      <point x="267" y="502" type="curve"/>
      <point x="262" y="583"/>
      <point x="216" y="624"/>
    </contour>
    <contour>
      <point x="176" y="771" type="curve"/>
      <point x="198" y="730"/>
      <point x="244" y="727"/>
      <point x="277" y="735" type="curve"/>
      <point x="329" y="788"/>
      <point x="365" y="849"/>
      <point x="390" y="905" type="curve"/>
      <point x="366" y="953"/>
      <point x="290" y="965"/>
      <point x="234" y="946" type="curve"/>
      <point x="217" y="879"/>
      <point x="199" y="833"/>
    </contour>
    <contour>
      <point x="406" y="771" type="curve"/>
      <point x="428" y="730"/>
      <point x="474" y="727"/>
      <point x="507" y="735" type="curve"/>
      <point x="559" y="788"/>
      <point x="595" y="849"/>
      <point x="620" y="905" type="curve"/>
      <point x="596" y="953"/>
      <point x="520" y="965"/>
      <point x="464" y="946" type="curve"/>
      <point x="447" y="879"/>
      <point x="429" y="833"/>
    </contour>
  </outline>
</glyph>
<glyph name="OE" format="1">
  <advance width="832"/>
  <unicode hex="0152"/>
  <outline>
    <contour>
      <point x="421" y="674" type="curve"/>
      <point x="382" y="693"/>
      <point x="344" y="705"/>
      <point x="281" y="710" type="curve"/>
      <point x="230" y="693"/>
      <point x="203" y="647"/>
      <point x="206" y="599" type="curve"/>
      <point x="183" y="606"/>
      <point x="151" y="605"/>
      <point x="112" y="593" type="curve"/>
      <point x="74" y="507"/>
      <point x="15" y="269"/>
      <point x="15" y="191" type="curve" smooth="yes"/>
      <point x="15" y="117"/>
      <point x="142" y="-5"/>
      <point x="224" y="-5" type="curve" smooth="yes"/>
      <point x="274" y="-5"/>
      <point x="326" y="21"/>
      <point x="365" y="63" type="curve"/>
      <point x="387" y="34"/>
      <point x="440" y="0"/>
      <point x="464" y="0" type="curve" smooth="yes"/>
      <point x="540" y="0"/>
      <point x="656" y="6"/>
      <point x="746" y="24" type="curve"/>
      <point x="797" y="74"/>
      <point x="783" y="155"/>
      <point x="718" y="183" type="curve"/>
      <point x="644" y="158"/>
      <point x="576" y="146"/>
      <point x="496" y="136" type="curve"/>
      <point x="504" y="177"/>
      <point x="514" y="223"/>
      <point x="524" y="275" type="curve"/>
      <point x="584" y="280"/>
      <point x="677" y="285"/>
      <point x="732" y="289" type="curve"/>
      <point x="775" y="321"/>
      <point x="776" y="402"/>
      <point x="723" y="432" type="curve"/>
      <point x="676" y="421"/>
      <point x="618" y="413"/>
      <point x="554" y="408" type="curve"/>
      <point x="565" y="463"/>
      <point x="574" y="501"/>
      <point x="586" y="544" type="curve"/>
      <point x="652" y="550"/>
      <point x="742" y="553"/>
      <point x="801" y="554" type="curve"/>
      <point x="839" y="590"/>
      <point x="843" y="671"/>
      <point x="792" y="700" type="curve"/>
      <point x="682" y="686"/>
      <point x="541" y="678"/>
    </contour>
    <contour>
      <point x="267" y="502" type="curve"/>
      <point x="266" y="513"/>
      <point x="265" y="523"/>
      <point x="263" y="532" type="curve"/>
      <point x="333" y="530"/>
      <point x="395" y="510"/>
      <point x="431" y="485" type="curve"/>
      <point x="399" y="345"/>
      <point x="317" y="182"/>
      <point x="178" y="132" type="curve"/>
      <point x="176" y="261"/>
      <point x="205" y="386"/>
    </contour>
  </outline>
</glyph>
<glyph name="oe" format="1">
  <advance width="813"/>
  <unicode hex="0153"/>
  <outline>
    <contour>
      <point x="470" y="132" type="curve"/>
      <point x="467" y="160"/>
      <point x="467" y="186"/>
      <point x="469" y="213" type="curve"/>
      <point x="648" y="239"/>
      <point x="768" y="327"/>
      <point x="768" y="410" type="curve" smooth="yes"/>
      <point x="768" y="477"/>
      <point x="691" y="564"/>
      <point x="574" y="564" type="curve" smooth="yes"/>
      <point x="510" y="564"/>
      <point x="458" y="530"/>
      <point x="417" y="483" type="curve"/>
      <point x="372" y="526"/>
      <point x="309" y="557"/>
      <point x="236" y="565" type="curve"/>
      <point x="171" y="546"/>
      <point x="138" y="494"/>
      <point x="155" y="441" type="curve"/>
      <point x="131" y="447"/>
      <point x="102" y="444"/>
      <point x="73" y="428" type="curve"/>
      <point x="30" y="343"/>
      <point x="12" y="254"/>
      <point x="12" y="177" type="curve" smooth="yes"/>
      <point x="12" y="109"/>
      <point x="119" y="0"/>
      <point x="203" y="0" type="curve" smooth="yes"/>
      <point x="271" y="0"/>
      <point x="326" y="30"/>
      <point x="370" y="75" type="curve"/>
      <point x="417" y="28"/>
      <point x="477" y="0"/>
      <point x="526" y="0" type="curve" smooth="yes"/>
      <point x="621" y="0"/>
      <point x="755" y="57"/>
      <point x="755" y="121" type="curve" smooth="yes"/>
      <point x="755" y="169"/>
      <point x="728" y="205"/>
      <point x="676" y="221" type="curve"/>
      <point x="604" y="172"/>
      <point x="540" y="139"/>
    </contour>
    <contour>
      <point x="627" y="402" type="curve" smooth="yes"/>
      <point x="627" y="371"/>
      <point x="568" y="318"/>
      <point x="485" y="288" type="curve"/>
      <point x="485" y="293" type="line"/>
      <point x="503" y="353"/>
      <point x="539" y="404"/>
      <point x="588" y="440" type="curve"/>
      <point x="615" y="433"/>
      <point x="627" y="419"/>
    </contour>
    <contour>
      <point x="217" y="358" type="curve"/>
      <point x="217" y="375"/>
      <point x="213" y="390"/>
      <point x="206" y="403" type="curve"/>
      <point x="262" y="408"/>
      <point x="320" y="399"/>
      <point x="357" y="372" type="curve"/>
      <point x="344" y="255"/>
      <point x="284" y="154"/>
      <point x="167" y="114" type="curve"/>
      <point x="154" y="197"/>
      <point x="172" y="288"/>
    </contour>
  </outline>
</glyph>
<glyph name="Tcedilla" format="1">
  <advance width="567"/>
  <unicode hex="0162"/>
  <outline>
    <contour>
      <point x="380" y="733" type="move" name="top"/>
    </contour>
    <contour>
      <point x="317" y="0" type="move" name="bottom"/>
    </contour>
    <contour>
      <point x="93" y="671" type="curve"/>
      <point x="44" y="622"/>
      <point x="58" y="551"/>
      <point x="104" y="528" type="curve"/>
      <point x="260" y="547" type="line"/>
      <point x="251" y="492"/>
      <point x="239" y="438"/>
      <point x="227" y="371" type="curve" smooth="yes"/>
      <point x="208" y="260"/>
      <point x="175" y="127"/>
      <point x="176" y="94" type="curve" smooth="yes"/>
      <point x="176" y="62"/>
      <point x="262" y="0"/>
      <point x="309" y="0" type="curve" smooth="yes"/>
      <point x="344" y="0"/>
      <point x="342" y="135"/>
      <point x="371" y="303" type="curve" smooth="yes"/>
      <point x="390" y="410"/>
      <point x="402" y="482"/>
      <point x="415" y="552" type="curve"/>
      <point x="481" y="554"/>
      <point x="532" y="556"/>
      <point x="582" y="554" type="curve"/>
      <point x="620" y="590"/>
      <point x="624" y="671"/>
      <point x="573" y="700" type="curve"/>
      <point x="474" y="681"/>
      <point x="227" y="689"/>
    </contour>
    <contour>
      <point x="226" y="64" type="line"/>
      <point x="149" y="-91" type="line"/>
      <point x="152" y="-125"/>
      <point x="190" y="-146"/>
      <point x="227" y="-141" type="curve"/>
      <point x="240" y="-132"/>
      <point x="253" y="-124"/>
      <point x="274" y="-120" type="curve"/>
      <point x="289" y="-131"/>
      <point x="296" y="-144"/>
      <point x="296" y="-157" type="curve" smooth="yes"/>
      <point x="296" y="-188"/>
      <point x="262" y="-210"/>
      <point x="211" y="-210" type="curve" smooth="yes"/>
      <point x="174" y="-210"/>
      <point x="131" y="-196"/>
      <point x="96" y="-165" type="curve"/>
      <point x="60" y="-161"/>
      <point x="40" y="-191"/>
      <point x="46" y="-221" type="curve"/>
      <point x="93" y="-276"/>
      <point x="165" y="-300"/>
      <point x="234" y="-300" type="curve" smooth="yes"/>
      <point x="363" y="-300"/>
      <point x="437" y="-234"/>
      <point x="437" y="-158" type="curve" smooth="yes"/>
      <point x="437" y="-89"/>
      <point x="383" y="-43"/>
      <point x="316" y="-43" type="curve" smooth="yes"/>
      <point x="299" y="-43"/>
      <point x="280" y="-46"/>
      <point x="262" y="-53" type="curve"/>
      <point x="315" y="35" type="line"/>
    </contour>
  </outline>
</glyph>
<glyph name="Tcaron" format="1">
  <advance width="567"/>
  <unicode hex="0164"/>
  <outline>
    <contour>
      <point x="380" y="733" type="move" name="top"/>
    </contour>
    <contour>
      <point x="317" y="0" type="move" name="bottom"/>
    </contour>
    <contour>
      <point x="93" y="671" type="curve"/>
      <point x="44" y="622"/>
      <point x="58" y="551"/>
      <point x="104" y="528" type="curve"/>
      <point x="260" y="547" type="line"/>
      <point x="251" y="492"/>
      <point x="239" y="438"/>
      <point x="227" y="371" type="curve" smooth="yes"/>
      <point x="208" y="260"/>
      <point x="175" y="127"/>
      <point x="176" y="94" type="curve" smooth="yes"/>
      <point x="176" y="62"/>
      <point x="262" y="0"/>
      <point x="309" y="0" type="curve" smooth="yes"/>
      <point x="344" y="0"/>
      <point x="342" y="135"/>
      <point x="371" y="303" type="curve" smooth="yes"/>
      <point x="390" y="410"/>
      <point x="402" y="482"/>
      <point x="415" y="552" type="curve"/>
      <point x="481" y="554"/>
      <point x="532" y="556"/>
      <point x="582" y="554" type="curve"/>
      <point x="620" y="590"/>
      <point x="624" y="671"/>
      <point x="573" y="700" type="curve"/>
      <point x="474" y="681"/>
      <point x="227" y="689"/>
    </contour>
    <contour>
      <point x="472" y="753" type="curve"/>
      <point x="533" y="808"/>
      <point x="579" y="854"/>
      <point x="635" y="910" type="curve"/>
      <point x="623" y="980"/>
      <point x="522" y="971"/>
      <point x="472" y="957" type="curve"/>
      <point x="434" y="902"/>
      <point x="394" y="859"/>
      <point x="343" y="811" type="curve"/>
      <point x="309" y="859"/>
      <point x="291" y="902"/>
      <point x="253" y="965" type="curve"/>
      <point x="205" y="980"/>
      <point x="167" y="956"/>
      <point x="161" y="915" type="curve"/>
      <point x="201" y="857"/>
      <point x="234" y="803"/>
      <point x="275" y="757" type="curve"/>
      <point x="323" y="728"/>
      <point x="410" y="724"/>
    </contour>
  </outline>
</glyph>
<glyph name="Umacron" format="1">
  <advance width="587"/>
  <unicode hex="016A"/>
  <outline>
    <contour>
      <point x="361" y="0" type="move" name="ogonek"/>
    </contour>
    <contour>
      <point x="351" y="733" type="move" name="top"/>
    </contour>
    <contour>
      <point x="386" y="645" type="curve"/>
      <point x="397" y="604"/>
      <point x="402" y="561"/>
      <point x="402" y="517" type="curve" smooth="yes"/>
      <point x="402" y="330"/>
      <point x="313" y="138"/>
      <point x="225" y="138" type="curve" smooth="yes"/>
      <point x="154" y="138"/>
      <point x="229" y="484"/>
      <point x="280" y="601" type="curve"/>
      <point x="262" y="674"/>
      <point x="183" y="699"/>
      <point x="107" y="663" type="curve"/>
      <point x="59" y="499"/>
      <point x="26" y="251"/>
      <point x="26" y="169" type="curve" smooth="yes"/>
      <point x="26" y="103"/>
      <point x="164" y="-5"/>
      <point x="247" y="-5" type="curve" smooth="yes"/>
      <point x="407" y="-5"/>
      <point x="577" y="223"/>
      <point x="577" y="532" type="curve" smooth="yes"/>
      <point x="577" y="577"/>
      <point x="573" y="624"/>
      <point x="565" y="673" type="curve"/>
      <point x="502" y="721"/>
      <point x="437" y="700"/>
    </contour>
    <contour>
      <point x="524" y="754" type="curve"/>
      <point x="566" y="787"/>
      <point x="570" y="846"/>
      <point x="518" y="879" type="curve"/>
      <point x="390" y="865"/>
      <point x="285" y="864"/>
      <point x="152" y="864" type="curve"/>
      <point x="111" y="824"/>
      <point x="115" y="763"/>
      <point x="166" y="740" type="curve"/>
      <point x="297" y="747"/>
      <point x="393" y="750"/>
    </contour>
  </outline>
</glyph>
<glyph name="Uring" format="1">
  <advance width="587"/>
  <unicode hex="016E"/>
  <outline>
    <contour>
      <point x="361" y="0" type="move" name="ogonek"/>
    </contour>
    <contour>
      <point x="351" y="733" type="move" name="top"/>
    </contour>
    <contour>
      <point x="386" y="645" type="curve"/>
      <point x="397" y="604"/>
      <point x="402" y="561"/>
      <point x="402" y="517" type="curve" smooth="yes"/>
      <point x="402" y="330"/>
      <point x="313" y="138"/>
      <point x="225" y="138" type="curve" smooth="yes"/>
      <point x="154" y="138"/>
      <point x="229" y="484"/>
      <point x="280" y="601" type="curve"/>
      <point x="262" y="674"/>
      <point x="183" y="699"/>
      <point x="107" y="663" type="curve"/>
      <point x="59" y="499"/>
      <point x="26" y="251"/>
      <point x="26" y="169" type="curve" smooth="yes"/>
      <point x="26" y="103"/>
      <point x="164" y="-5"/>
      <point x="247" y="-5" type="curve" smooth="yes"/>
      <point x="407" y="-5"/>
      <point x="577" y="223"/>
      <point x="577" y="532" type="curve" smooth="yes"/>
      <point x="577" y="577"/>
      <point x="573" y="624"/>
      <point x="565" y="673" type="curve"/>
      <point x="502" y="721"/>
      <point x="437" y="700"/>
    </contour>
    <contour>
      <point x="301" y="955" type="curve"/>
      <point x="340" y="961"/>
      <point x="380" y="958"/>
      <point x="408" y="942" type="curve"/>
      <point x="395" y="871"/>
      <point x="359" y="824"/>
      <point x="303" y="804" type="curve"/>
      <point x="296" y="849"/>
      <point x="307" y="899"/>
      <point x="334" y="935" type="curve"/>
      <point x="334" y="978"/>
      <point x="280" y="1000"/>
      <point x="235" y="974" type="curve"/>
      <point x="210" y="931"/>
      <point x="197" y="884"/>
      <point x="197" y="834" type="curve" smooth="yes"/>
      <point x="197" y="792"/>
      <point x="268" y="733"/>
      <point x="320" y="733" type="curve" smooth="yes"/>
      <point x="430" y="733"/>
      <point x="502" y="850"/>
      <point x="502" y="927" type="curve" smooth="yes"/>
      <point x="502" y="981"/>
      <point x="433" y="1044"/>
      <point x="339" y="1053" type="curve"/>
      <point x="281" y="1038"/>
      <point x="263" y="993"/>
    </contour>
  </outline>
</glyph>
<glyph name="uogonek" format="1">
  <advance width="680"/>
  <unicode hex="0173"/>
  <outline>
    <contour>
      <point x="344" y="593" type="move" name="top"/>
    </contour>
    <contour>
      <point x="625" y="-145" type="curve"/>
      <point x="634" y="-112"/>
      <point x="621" y="-89"/>
      <point x="587" y="-85" type="curve"/>
      <point x="539" y="-110"/>
      <point x="490" y="-121"/>
      <point x="414" y="-113" type="curve"/>
      <point x="445" y="-50"/>
      <point x="488" y="-7"/>
      <point x="562" y="29" type="curve" smooth="yes"/>
      <point x="603" y="49"/>
      <point x="648" y="77"/>
      <point x="648" y="109" type="curve" smooth="yes"/>
      <point x="648" y="153"/>
      <point x="621" y="190"/>
      <point x="561" y="211" type="curve"/>
      <point x="528" y="184"/>
      <point x="500" y="165"/>
      <point x="459" y="147" type="curve"/>
      <point x="490" y="238"/>
      <point x="549" y="396"/>
      <point x="550" y="437" type="curve" smooth="yes"/>
      <point x="550" y="464"/>
      <point x="473" y="537"/>
      <point x="417" y="537" type="curve" smooth="yes"/>
      <point x="392" y="537"/>
      <point x="373" y="469"/>
      <point x="370" y="384" type="curve"/>
      <point x="343" y="315"/>
      <point x="268" y="217"/>
      <point x="179" y="142" type="curve"/>
      <point x="220" y="249"/>
      <point x="254" y="377"/>
      <point x="254" y="464" type="curve" smooth="yes"/>
      <point x="254" y="490"/>
      <point x="181" y="564"/>
      <point x="137" y="564" type="curve" smooth="yes"/>
      <point x="98" y="564"/>
      <point x="26" y="491"/>
      <point x="26" y="447" type="curve" smooth="yes"/>
      <point x="26" y="417"/>
      <point x="107" y="383"/>
      <point x="107" y="358" type="curve" smooth="yes"/>
      <point x="107" y="322"/>
      <point x="30" y="156"/>
      <point x="30" y="106" type="curve" smooth="yes"/>
      <point x="30" y="75"/>
      <point x="103" y="0"/>
      <point x="159" y="0" type="curve" smooth="yes"/>
      <point x="231" y="0"/>
      <point x="280" y="77"/>
      <point x="343" y="193" type="curve"/>
      <point x="368" y="179" type="line"/>
      <point x="350" y="145"/>
      <point x="329" y="110"/>
      <point x="329" y="91" type="curve" smooth="yes"/>
      <point x="329" y="77"/>
      <point x="355" y="52"/>
      <point x="389" y="29" type="curve"/>
      <point x="327" y="-7"/>
      <point x="286" y="-58"/>
      <point x="286" y="-104" type="curve" smooth="yes"/>
      <point x="286" y="-176"/>
      <point x="345" y="-225"/>
      <point x="432" y="-225" type="curve" smooth="yes"/>
      <point x="508" y="-225"/>
      <point x="585" y="-193"/>
    </contour>
  </outline>
</glyph>
<glyph name="Zacute" format="1">
  <advance width="539"/>
  <unicode hex="0179"/>
  <outline>
    <contour>
      <point x="310" y="733" type="move" name="top"/>
    </contour>
    <contour>
      <point x="111" y="691" type="curve"/>
      <point x="54" y="645"/>
      <point x="69" y="553"/>
      <point x="119" y="526" type="curve"/>
      <point x="216" y="536"/>
      <point x="282" y="540"/>
      <point x="373" y="549" type="curve"/>
      <point x="276" y="441"/>
      <point x="16" y="199"/>
      <point x="3" y="159" type="curve" smooth="yes"/>
      <point x="-7" y="127"/>
      <point x="32" y="39"/>
      <point x="65" y="11" type="curve" smooth="yes"/>
      <point x="88" y="-8"/>
      <point x="399" y="6"/>
      <point x="464" y="10" type="curve"/>
      <point x="510" y="59"/>
      <point x="499" y="154"/>
      <point x="444" y="179" type="curve"/>
      <point x="363" y="167"/>
      <point x="286" y="155"/>
      <point x="180" y="135" type="curve"/>
      <point x="319" y="268"/>
      <point x="510" y="482"/>
      <point x="531" y="538" type="curve" smooth="yes"/>
      <point x="541" y="565"/>
      <point x="498" y="665"/>
      <point x="459" y="682" type="curve" smooth="yes"/>
      <point x="434" y="693"/>
      <point x="224" y="694"/>
    </contour>
    <contour>
      <point x="285" y="856" type="curve"/>
      <point x="270" y="831"/>
      <point x="258" y="808"/>
      <point x="236" y="780" type="curve"/>
      <point x="244" y="741"/>
      <point x="279" y="725"/>
      <point x="321" y="731" type="curve"/>
      <point x="378" y="786"/>
      <point x="428" y="844"/>
      <point x="469" y="901" type="curve"/>
      <point x="468" y="972"/>
      <point x="378" y="1005"/>
      <point x="297" y="965" type="curve"/>
      <point x="295" y="933"/>
      <point x="291" y="893"/>
    </contour>
  </outline>
</glyph>
<glyph name="circumflex" format="1">
  <advance width="572"/>
  <unicode hex="02C6"/>
  <outline>
    <contour>
      <point x="341" y="593" type="move" name="_top"/>
    </contour>
    <contour>
      <point x="300" y="839" type="curve"/>
      <point x="91" y="672" type="line"/>
      <point x="91" y="611"/>
      <point x="156" y="578"/>
      <point x="228" y="593" type="curve"/>
      <point x="278" y="654"/>
      <point x="314" y="697"/>
      <point x="368" y="752" type="curve"/>
      <point x="453" y="596" type="line"/>
      <point x="513" y="584"/>
      <point x="550" y="601"/>
      <point x="565" y="645" type="curve"/>
      <point x="438" y="810" type="line"/>
      <point x="404" y="836"/>
      <point x="348" y="844"/>
    </contour>
  </outline>
</glyph>
<glyph name="breve" format="1">
  <advance width="423"/>
  <unicode hex="02D8"/>
  <outline>
    <contour>
      <point x="274" y="593" type="move" name="_top"/>
    </contour>
    <contour>
      <point x="473" y="712" type="curve"/>
      <point x="477" y="786"/>
      <point x="415" y="813"/>
      <point x="350" y="789" type="curve"/>
      <point x="325" y="735"/>
      <point x="300" y="702"/>
      <point x="245" y="676" type="curve"/>
      <point x="212" y="699"/>
      <point x="187" y="735"/>
      <point x="171" y="780" type="curve"/>
      <point x="142" y="797"/>
      <point x="107" y="778"/>
      <point x="97" y="754" type="curve"/>
      <point x="114" y="676"/>
      <point x="177" y="593"/>
      <point x="256" y="593" type="curve" smooth="yes"/>
      <point x="349" y="593"/>
      <point x="434" y="655"/>
    </contour>
  </outline>
</glyph>
<glyph name="dotaccent" format="1">
  <advance width="218"/>
  <unicode hex="02D9"/>
  <outline>
    <contour>
      <point x="156" y="593" type="move" name="_top"/>
    </contour>
    <contour>
      <point x="274" y="726" type="curve" smooth="yes"/>
      <point x="260" y="770"/>
      <point x="163" y="794"/>
      <point x="125" y="777" type="curve" smooth="yes"/>
      <point x="96" y="761"/>
      <point x="76" y="719"/>
      <point x="76" y="684" type="curve" smooth="yes"/>
      <point x="76" y="649"/>
      <point x="146" y="593"/>
      <point x="186" y="593" type="curve" smooth="yes"/>
      <point x="233" y="593"/>
      <point x="288" y="684"/>
    </contour>
  </outline>
</glyph>
<glyph name="ogonek" format="1">
  <advance width="396"/>
  <unicode hex="02DB"/>
  <outline>
    <contour>
      <point x="242" y="0" type="move" name="_ogonek"/>
    </contour>
    <contour>
      <point x="298" y="-171" type="curve"/>
      <point x="307" y="-138"/>
      <point x="294" y="-115"/>
      <point x="260" y="-111" type="curve"/>
      <point x="212" y="-136"/>
      <point x="161" y="-147"/>
      <point x="83" y="-134" type="curve"/>
      <point x="107" y="-73"/>
      <point x="162" y="-27"/>
      <point x="240" y="0" type="curve"/>
      <point x="246" y="28"/>
      <point x="236" y="45"/>
      <point x="207" y="53" type="curve"/>
      <point x="38" y="38"/>
      <point x="-50" y="-42"/>
      <point x="-50" y="-130" type="curve" smooth="yes"/>
      <point x="-50" y="-203"/>
      <point x="13" y="-251"/>
      <point x="103" y="-251" type="curve" smooth="yes"/>
      <point x="175" y="-251"/>
      <point x="251" y="-222"/>
    </contour>
  </outline>
</glyph>
<glyph name="tilde" format="1">
  <advance width="542"/>
  <unicode hex="02DC"/>
  <outline>
    <contour>
      <point x="337" y="593" type="move" name="_top"/>
    </contour>
    <contour>
      <point x="594" y="725" type="curve"/>
      <point x="594" y="769"/>
      <point x="550" y="796"/>
      <point x="503" y="789" type="curve"/>
      <point x="438" y="709" type="line"/>
      <point x="432" y="709" type="line"/>
      <point x="384" y="753"/>
      <point x="318" y="796"/>
      <point x="259" y="796" type="curve" smooth="yes"/>
      <point x="210" y="796"/>
      <point x="118" y="709"/>
      <point x="82" y="665" type="curve"/>
      <point x="82" y="616"/>
      <point x="124" y="587"/>
      <point x="172" y="593" type="curve"/>
      <point x="246" y="676" type="line"/>
      <point x="254" y="674" type="line"/>
      <point x="295" y="632"/>
      <point x="352" y="593"/>
      <point x="418" y="593" type="curve" smooth="yes"/>
      <point x="473" y="593"/>
      <point x="557" y="668"/>
    </contour>
  </outline>
</glyph>
<glyph name="hungarumlaut" format="1">
  <advance width="462"/>
  <unicode hex="02DD"/>
  <outline>
    <contour>
      <point x="266" y="593" type="move" name="_top"/>
    </contour>
    <contour>
      <point x="76" y="631" type="curve"/>
      <point x="98" y="590"/>
      <point x="144" y="587"/>
      <point x="177" y="595" type="curve"/>
      <point x="229" y="648"/>
      <point x="265" y="709"/>
      <point x="290" y="765" type="curve"/>
      <point x="266" y="813"/>
      <point x="190" y="825"/>
      <point x="134" y="806" type="curve"/>
      <point x="117" y="739"/>
      <point x="99" y="693"/>
    </contour>
    <contour>
      <point x="306" y="631" type="curve"/>
      <point x="328" y="590"/>
      <point x="374" y="587"/>
      <point x="407" y="595" type="curve"/>
      <point x="459" y="648"/>
      <point x="495" y="709"/>
      <point x="520" y="765" type="curve"/>
      <point x="496" y="813"/>
      <point x="420" y="825"/>
      <point x="364" y="806" type="curve"/>
      <point x="347" y="739"/>
      <point x="329" y="693"/>
    </contour>
  </outline>
</glyph>
<glyph name="gjCandrabindu" format="1">
  <advance width="0"/>
  <unicode hex="0A81"/>
  <outline>
    <contour>
      <point x="-278" y="619" type="move" name="_abvm"/>
    </contour>
    <contour>
      <point x="-87" y="878" type="curve"/>
      <point x="-90" y="909"/>
      <point x="-112" y="962"/>
      <point x="-149" y="959" type="curve"/>
      <point x="-206" y="953"/>
      <point x="-260" y="927"/>
      <point x="-257" y="895" type="curve"/>
      <point x="-254" y="862"/>
      <point x="-226" y="806"/>
      <point x="-198" y="808" type="curve"/>
      <point x="-149" y="813"/>
      <point x="-84" y="845"/>
    </contour>
    <contour>
      <point x="1" y="662" type="curve"/>
      <point x="15" y="728"/>
      <point x="-3" y="783"/>
      <point x="-71" y="808" type="curve"/>
      <point x="-129" y="775"/>
      <point x="-180" y="758"/>
      <point x="-240" y="748" type="curve"/>
      <point x="-272" y="799"/>
      <point x="-291" y="840"/>
      <point x="-314" y="898" type="curve"/>
      <point x="-348" y="912"/>
      <point x="-381" y="903"/>
      <point x="-406" y="871" type="curve"/>
      <point x="-381" y="766"/>
      <point x="-270" y="619"/>
      <point x="-195" y="619" type="curve" smooth="yes"/>
      <point x="-118" y="619"/>
      <point x="-47" y="632"/>
    </contour>
  </outline>
</glyph>
<glyph name="gjAnusvara" format="1">
  <advance width="0"/>
  <unicode hex="0A82"/>
  <outline>
    <contour>
      <point x="-271" y="642" type="move" name="_abvm"/>
    </contour>
    <contour>
      <point x="-62" y="700" type="curve" smooth="yes"/>
      <point x="-58" y="739"/>
      <point x="-71" y="808"/>
      <point x="-117" y="813" type="curve" smooth="yes"/>
      <point x="-188" y="820"/>
      <point x="-259" y="801"/>
      <point x="-263" y="761" type="curve" smooth="yes"/>
      <point x="-268" y="721"/>
      <point x="-247" y="647"/>
      <point x="-212" y="643" type="curve" smooth="yes"/>
      <point x="-152" y="636"/>
      <point x="-66" y="660"/>
    </contour>
  </outline>
</glyph>
<glyph name="gjII" format="1">
  <advance width="619"/>
  <unicode hex="0A88"/>
  <outline>
    <contour>
      <point x="86" y="642" type="move" name="abvm"/>
    </contour>
    <contour>
      <point x="444" y="441" type="curve" smooth="yes"/>
      <point x="444" y="304"/>
      <point x="343" y="180"/>
      <point x="163" y="131" type="curve"/>
      <point x="204" y="231"/>
      <point x="314" y="301"/>
      <point x="314" y="344" type="curve" smooth="yes"/>
      <point x="314" y="369"/>
      <point x="256" y="378"/>
      <point x="191" y="419" type="curve"/>
      <point x="246" y="456"/>
      <point x="288" y="474"/>
      <point x="343" y="490" type="curve"/>
      <point x="361" y="546"/>
      <point x="336" y="610"/>
      <point x="270" y="620" type="curve"/>
      <point x="154" y="604"/>
      <point x="23" y="509"/>
      <point x="23" y="457" type="curve" smooth="yes"/>
      <point x="23" y="413"/>
      <point x="81" y="368"/>
      <point x="137" y="336" type="curve"/>
      <point x="91" y="289"/>
      <point x="14" y="218"/>
      <point x="14" y="165" type="curve" smooth="yes"/>
      <point x="14" y="110"/>
      <point x="134" y="0"/>
      <point x="212" y="0" type="curve" smooth="yes"/>
      <point x="379" y="0"/>
      <point x="581" y="228"/>
      <point x="581" y="373" type="curve" smooth="yes"/>
      <point x="581" y="514"/>
      <point x="453" y="612"/>
      <point x="453" y="690" type="curve" smooth="yes"/>
      <point x="453" y="724"/>
      <point x="481" y="758"/>
      <point x="516" y="762" type="curve"/>
      <point x="527" y="734"/>
      <point x="517" y="704"/>
      <point x="500" y="676" type="curve"/>
      <point x="515" y="638"/>
      <point x="557" y="604"/>
      <point x="633" y="603" type="curve"/>
      <point x="657" y="636"/>
      <point x="666" y="673"/>
      <point x="666" y="711" type="curve" smooth="yes"/>
      <point x="666" y="779"/>
      <point x="512" y="878"/>
      <point x="434" y="878" type="curve" smooth="yes"/>
      <point x="357" y="878"/>
      <point x="315" y="814"/>
      <point x="315" y="754" type="curve" smooth="yes"/>
      <point x="315" y="646"/>
      <point x="444" y="557"/>
    </contour>
  </outline>
</glyph>
<glyph name="gjU" format="1">
  <advance width="657"/>
  <unicode hex="0A89"/>
  <outline>
    <contour>
      <point x="473" y="862" type="move" name="abvm"/>
    </contour>
    <contour>
      <point x="569" y="157" type="curve" smooth="yes"/>
      <point x="569" y="210"/>
      <point x="506" y="265"/>
      <point x="435" y="309" type="curve"/>
      <point x="542" y="350"/>
      <point x="642" y="416"/>
      <point x="645" y="480" type="curve" smooth="yes"/>
      <point x="649" y="537"/>
      <point x="556" y="619"/>
      <point x="487" y="619" type="curve" smooth="yes"/>
      <point x="382" y="619"/>
      <point x="305" y="589"/>
      <point x="305" y="537" type="curve" smooth="yes"/>
      <point x="305" y="506"/>
      <point x="328" y="472"/>
      <point x="362" y="447" type="curve"/>
      <point x="405" y="469"/>
      <point x="459" y="486"/>
      <point x="506" y="494" type="curve"/>
      <point x="468" y="406"/>
      <point x="266" y="368"/>
      <point x="266" y="312" type="curve" smooth="yes"/>
      <point x="266" y="280"/>
      <point x="317" y="234"/>
      <point x="367" y="191" type="curve"/>
      <point x="301" y="163"/>
      <point x="231" y="166"/>
      <point x="157" y="194" type="curve"/>
      <point x="157" y="469"/>
      <point x="243" y="604"/>
      <point x="405" y="781" type="curve"/>
      <point x="454" y="729"/>
      <point x="557" y="630"/>
      <point x="609" y="630" type="curve" smooth="yes"/>
      <point x="650" y="630"/>
      <point x="688" y="636"/>
      <point x="744" y="665" type="curve"/>
      <point x="767" y="758"/>
      <point x="736" y="829"/>
      <point x="662" y="850" type="curve"/>
      <point x="617" y="810"/>
      <point x="577" y="785"/>
      <point x="534" y="761" type="curve"/>
      <point x="468" y="802"/>
      <point x="442" y="898"/>
      <point x="398" y="898" type="curve" smooth="yes"/>
      <point x="201" y="898"/>
      <point x="-10" y="519"/>
      <point x="-10" y="282" type="curve" smooth="yes"/>
      <point x="-10" y="157"/>
      <point x="153" y="-1"/>
      <point x="301" y="-1" type="curve" smooth="yes"/>
      <point x="434" y="-1"/>
      <point x="569" y="99"/>
    </contour>
  </outline>
</glyph>
<glyph name="gjUU" format="1">
  <advance width="995"/>
  <unicode hex="0A8A"/>
  <outline>
    <contour>
      <point x="905" y="642" type="move" name="abvm"/>
    </contour>
    <contour>
      <point x="606" y="763" type="curve"/>
      <point x="673" y="721"/>
      <point x="701" y="667"/>
      <point x="701" y="599" type="curve" smooth="yes"/>
      <point x="701" y="539"/>
      <point x="682" y="469"/>
      <point x="660" y="389" type="curve" smooth="yes"/>
      <point x="627" y="267"/>
      <point x="591" y="140"/>
      <point x="591" y="125" type="curve" smooth="yes"/>
      <point x="591" y="83"/>
      <point x="712" y="0"/>
      <point x="746" y="0" type="curve" smooth="yes"/>
      <point x="798" y="0"/>
      <point x="952" y="76"/>
      <point x="952" y="130" type="curve" smooth="yes"/>
      <point x="952" y="183"/>
      <point x="917" y="222"/>
      <point x="852" y="241" type="curve"/>
      <point x="821" y="208"/>
      <point x="794" y="188"/>
      <point x="751" y="160" type="curve"/>
      <point x="796" y="285"/>
      <point x="865" y="450"/>
      <point x="865" y="598" type="curve" smooth="yes"/>
      <point x="865" y="719"/>
      <point x="715" y="894"/>
      <point x="544" y="894" type="curve" smooth="yes"/>
      <point x="203" y="894"/>
      <point x="-6" y="571"/>
      <point x="-8" y="282" type="curve" smooth="yes"/>
      <point x="-9" y="152"/>
      <point x="156" y="-1"/>
      <point x="281" y="-1" type="curve" smooth="yes"/>
      <point x="419" y="-1"/>
      <point x="551" y="99"/>
      <point x="552" y="157" type="curve" smooth="yes"/>
      <point x="552" y="210"/>
      <point x="492" y="265"/>
      <point x="423" y="309" type="curve"/>
      <point x="527" y="350"/>
      <point x="625" y="416"/>
      <point x="628" y="480" type="curve" smooth="yes"/>
      <point x="632" y="537"/>
      <point x="543" y="619"/>
      <point x="476" y="619" type="curve" smooth="yes"/>
      <point x="374" y="619"/>
      <point x="300" y="589"/>
      <point x="299" y="537" type="curve" smooth="yes"/>
      <point x="299" y="506"/>
      <point x="321" y="472"/>
      <point x="354" y="447" type="curve"/>
      <point x="395" y="469"/>
      <point x="448" y="486"/>
      <point x="494" y="494" type="curve"/>
      <point x="456" y="406"/>
      <point x="260" y="368"/>
      <point x="259" y="312" type="curve" smooth="yes"/>
      <point x="259" y="278"/>
      <point x="332" y="207"/>
      <point x="386" y="168" type="curve"/>
      <point x="321" y="155"/>
      <point x="216" y="157"/>
      <point x="146" y="183" type="curve"/>
      <point x="161" y="492"/>
      <point x="244" y="737"/>
    </contour>
  </outline>
</glyph>
<glyph name="gjvR" format="1">
  <advance width="1018"/>
  <unicode hex="0A8B"/>
  <outline>
    <contour>
      <point x="349" y="0" type="move" name="blwm"/>
    </contour>
    <contour>
      <point x="349" y="0" type="move" name="blwm.u"/>
    </contour>
    <contour>
      <point x="466" y="642" type="move" name="abvm"/>
    </contour>
    <contour>
      <point x="842" y="255" type="curve"/>
      <point x="809" y="206"/>
      <point x="765" y="178"/>
      <point x="696" y="149" type="curve"/>
      <point x="684" y="90"/>
      <point x="725" y="38"/>
      <point x="790" y="38" type="curve" smooth="yes"/>
      <point x="888" y="38"/>
      <point x="977" y="152"/>
      <point x="977" y="247" type="curve" smooth="yes"/>
      <point x="977" y="297"/>
      <point x="923" y="293"/>
      <point x="821" y="399" type="curve"/>
      <point x="860" y="428"/>
      <point x="882" y="458"/>
      <point x="882" y="481" type="curve" smooth="yes"/>
      <point x="882" y="513"/>
      <point x="820" y="577"/>
      <point x="786" y="577" type="curve" smooth="yes"/>
      <point x="744" y="577"/>
      <point x="649" y="493"/>
      <point x="649" y="460" type="curve" smooth="yes"/>
      <point x="649" y="447"/>
      <point x="656" y="431"/>
      <point x="669" y="415" type="curve"/>
      <point x="637" y="396"/>
      <point x="596" y="380"/>
      <point x="563" y="362" type="curve"/>
      <point x="585" y="417"/>
      <point x="607" y="476"/>
      <point x="607" y="500" type="curve" smooth="yes"/>
      <point x="607" y="527"/>
      <point x="505" y="593"/>
      <point x="466" y="593" type="curve" smooth="yes"/>
      <point x="447" y="593"/>
      <point x="433" y="521"/>
      <point x="407" y="409" type="curve" smooth="yes"/>
      <point x="405" y="399"/>
      <point x="400" y="381"/>
      <point x="396" y="364" type="curve"/>
      <point x="377" y="353" type="line"/>
      <point x="336" y="511"/>
      <point x="273" y="603"/>
      <point x="177" y="603" type="curve" smooth="yes"/>
      <point x="125" y="603"/>
      <point x="54" y="559"/>
      <point x="27" y="524" type="curve"/>
      <point x="23" y="447"/>
      <point x="65" y="404"/>
      <point x="130" y="390" type="curve"/>
      <point x="164" y="412"/>
      <point x="195" y="433"/>
      <point x="222" y="445" type="curve"/>
      <point x="263" y="414"/>
      <point x="291" y="370"/>
      <point x="311" y="315" type="curve"/>
      <point x="233" y="270"/>
      <point x="130" y="228"/>
      <point x="23" y="176" type="curve"/>
      <point x="-15" y="96"/>
      <point x="26" y="25"/>
      <point x="127" y="17" type="curve"/>
      <point x="212" y="89"/>
      <point x="273" y="138"/>
      <point x="347" y="199" type="curve"/>
      <point x="360" y="188" type="line"/>
      <point x="348" y="169"/>
      <point x="333" y="139"/>
      <point x="333" y="125" type="curve" smooth="yes"/>
      <point x="333" y="82"/>
      <point x="440" y="0"/>
      <point x="478" y="0" type="curve" smooth="yes"/>
      <point x="535" y="0"/>
      <point x="649" y="60"/>
      <point x="649" y="105" type="curve" smooth="yes"/>
      <point x="649" y="156"/>
      <point x="614" y="197"/>
      <point x="551" y="208" type="curve"/>
      <point x="529" y="189"/>
      <point x="510" y="174"/>
      <point x="483" y="160" type="curve"/>
      <point x="491" y="183"/>
      <point x="501" y="207"/>
      <point x="511" y="232" type="curve"/>
      <point x="604" y="268"/>
      <point x="680" y="302"/>
      <point x="744" y="344" type="curve"/>
      <point x="771" y="312"/>
      <point x="806" y="281"/>
    </contour>
  </outline>
</glyph>
<glyph name="gjEcandra" format="1">
  <advance width="945"/>
  <unicode hex="0A8D"/>
  <outline>
    <contour>
      <point x="540" y="239" type="curve" smooth="yes"/>
      <point x="560" y="239"/>
      <point x="588" y="261"/>
      <point x="610" y="285" type="curve"/>
      <point x="632" y="270" type="line"/>
      <point x="605" y="230"/>
      <point x="541" y="147"/>
      <point x="541" y="124" type="curve" smooth="yes"/>
      <point x="541" y="85"/>
      <point x="660" y="0"/>
      <point x="696" y="0" type="curve" smooth="yes"/>
      <point x="748" y="0"/>
      <point x="902" y="76"/>
      <point x="902" y="130" type="curve" smooth="yes"/>
      <point x="902" y="183"/>
      <point x="867" y="222"/>
      <point x="802" y="241" type="curve"/>
      <point x="771" y="208"/>
      <point x="744" y="188"/>
      <point x="701" y="160" type="curve"/>
      <point x="746" y="285"/>
      <point x="825" y="450"/>
      <point x="825" y="493" type="curve" smooth="yes"/>
      <point x="825" y="520"/>
      <point x="711" y="593"/>
      <point x="674" y="593" type="curve" smooth="yes"/>
      <point x="653" y="593"/>
      <point x="632" y="463"/>
      <point x="562" y="385" type="curve"/>
      <point x="518" y="420"/>
      <point x="486" y="449"/>
      <point x="462" y="449" type="curve" smooth="yes"/>
      <point x="437" y="449"/>
      <point x="389" y="380"/>
      <point x="389" y="358" type="curve" smooth="yes"/>
      <point x="389" y="343"/>
      <point x="418" y="321"/>
      <point x="460" y="289" type="curve"/>
      <point x="435" y="339" type="line"/>
      <point x="367" y="284"/>
      <point x="327" y="255"/>
      <point x="252" y="224" type="curve"/>
      <point x="219" y="268" type="line"/>
      <point x="332" y="330"/>
      <point x="418" y="431"/>
      <point x="418" y="492" type="curve" smooth="yes"/>
      <point x="418" y="545"/>
      <point x="331" y="619"/>
      <point x="275" y="619" type="curve" smooth="yes"/>
      <point x="196" y="619"/>
      <point x="76" y="586"/>
      <point x="76" y="518" type="curve" smooth="yes"/>
      <point x="76" y="480"/>
      <point x="100" y="449"/>
      <point x="137" y="419" type="curve"/>
      <point x="185" y="446"/>
      <point x="228" y="462"/>
      <point x="287" y="480" type="curve"/>
      <point x="241" y="405"/>
      <point x="180" y="355"/>
      <point x="86" y="314" type="curve"/>
      <point x="137" y="306" type="line"/>
      <point x="118" y="346"/>
      <point x="83" y="423"/>
      <point x="48" y="425" type="curve" smooth="yes"/>
      <point x="6" y="427"/>
      <point x="-59" y="377"/>
      <point x="-60" y="347" type="curve" smooth="yes"/>
      <point x="-63" y="306"/>
      <point x="-6" y="230"/>
      <point x="35" y="230" type="curve" smooth="yes"/>
      <point x="60" y="230"/>
      <point x="89" y="248"/>
      <point x="106" y="270" type="curve"/>
      <point x="53" y="253" type="line"/>
      <point x="86" y="177"/>
      <point x="159" y="85"/>
      <point x="239" y="85" type="curve" smooth="yes"/>
      <point x="329" y="85"/>
      <point x="450" y="200"/>
      <point x="514" y="274" type="curve"/>
      <point x="478" y="277" type="line"/>
      <point x="492" y="259"/>
      <point x="526" y="239"/>
    </contour>
    <contour>
      <point x="946" y="662" type="curve"/>
      <point x="960" y="728"/>
      <point x="942" y="783"/>
      <point x="874" y="808" type="curve"/>
      <point x="816" y="775"/>
      <point x="765" y="758"/>
      <point x="705" y="748" type="curve"/>
      <point x="673" y="799"/>
      <point x="654" y="840"/>
      <point x="631" y="898" type="curve"/>
      <point x="597" y="912"/>
      <point x="564" y="903"/>
      <point x="539" y="871" type="curve"/>
      <point x="564" y="766"/>
      <point x="675" y="619"/>
      <point x="750" y="619" type="curve" smooth="yes"/>
      <point x="827" y="619"/>
      <point x="898" y="632"/>
    </contour>
  </outline>
</glyph>
